<svg version="1.1" viewBox="0.0 0.0 600.0 371.0" fill="none" stroke="none" stroke-linecap="square" stroke-miterlimit="10" width="600" height="371" xmlns:xlink="http://www.w3.org/1999/xlink" xmlns="http://www.w3.org/2000/svg"><path fill="#ffffff" fill-opacity="0.0" d="M0 0L600.0 0L600.0 371.0L0 371.0L0 0Z" fill-rule="nonzero"/><path fill="#e0f8cf" d="M216.525 40.917057C241.9046 26.264135 270.69415 18.55 300.0 18.55L300.0 185.5Z" fill-rule="nonzero"/><path fill="#306850" d="M216.525 330.08295C164.87048 300.2602 133.05 245.1455 133.05 185.5C133.05 125.85451 164.87048 70.73981 216.525 40.917057L300.0 185.5Z" fill-rule="nonzero"/><path fill="#86c06c" d="M300.0 18.55C370.18552 18.55 432.87683 62.44693 456.88168 128.39973C480.88654 194.35254 461.0786 268.27673 407.3134 313.3911C353.54816 358.5055 277.30743 365.1757 216.525 330.08295L300.0 185.5Z" fill-rule="nonzero"/><path fill="#ffffff" d="M23.159374 24.55Q23.846874 24.846874 24.190624 25.378124Q24.55 25.909374 24.55 26.4875Q24.55 27.378124 23.83125 28.05Q23.128124 28.721874 22.05 28.721874Q21.409374 28.721874 20.721874 28.45625Q20.05 28.190624 19.784374 27.909374Q19.690624 27.815624 19.690624 27.70625Q19.690624 27.6125 19.753124 27.55Q19.83125 27.471874 19.925 27.471874Q20.01875 27.471874 20.128124 27.565624Q21.034374 28.2375 22.05 28.2375Q22.909374 28.2375 23.4875 27.70625Q24.065624 27.159374 24.065624 26.503124Q24.065624 26.065624 23.784374 25.64375Q23.503124 25.221874 22.95625 24.9875Q22.425 24.7375 21.878124 24.7375Q21.70625 24.7375 21.628124 24.675Q21.55 24.596874 21.55 24.4875Q21.55 24.378124 21.628124 24.315624Q21.70625 24.2375 21.846874 24.2375L22.26875 24.253124Q22.940624 24.253124 23.3625 23.846874Q23.8 23.440624 23.8 22.909374Q23.8 22.3625 23.346874 21.940624Q22.89375 21.51875 22.159374 21.51875Q21.659374 21.51875 21.221874 21.690624Q20.8 21.8625 20.55 22.175Q20.45625 22.284374 20.39375 22.315624Q20.346874 22.33125 20.284374 22.33125Q20.190624 22.33125 20.1125 22.26875Q20.05 22.20625 20.05 22.1125Q20.05 21.878124 20.55 21.51875Q21.26875 21.01875 22.159374 21.01875Q23.096874 21.01875 23.690624 21.58125Q24.3 22.14375 24.3 22.909374Q24.3 23.409374 24.003124 23.846874Q23.721874 24.284374 23.159374 24.55ZM27.8 21.690624L27.8 24.096874Q28.221874 23.925 28.6125 23.83125Q29.01875 23.7375 29.378124 23.7375Q30.315624 23.7375 30.925 24.39375Q31.55 25.034374 31.55 26.096874Q31.55 27.26875 30.846874 28.003124Q30.14375 28.721874 29.096874 28.721874Q28.39375 28.721874 27.753124 28.409374Q27.3 28.190624 26.925 27.878124Q26.70625 27.675 26.70625 27.55Q26.70625 27.440624 26.76875 27.378124Q26.846874 27.3 26.940624 27.3Q27.034374 27.3 27.14375 27.409374Q28.034374 28.2375 29.065624 28.2375Q29.940624 28.2375 30.503124 27.64375Q31.065624 27.05 31.065624 26.08125Q31.065624 25.2375 30.565624 24.7375Q30.08125 24.2375 29.33125 24.2375Q28.565624 24.2375 27.8 24.628124Q27.6125 24.721874 27.534374 24.721874Q27.425 24.721874 27.3625 24.659374Q27.3 24.58125 27.3 24.45625L27.3 21.190624L30.7375 21.190624Q30.909374 21.190624 30.9875 21.26875Q31.065624 21.33125 31.065624 21.440624Q31.065624 21.55 30.9875 21.628124Q30.909374 21.690624 30.7375 21.690624L27.8 21.690624ZM38.659374 24.8L38.659374 25.503124L33.64375 25.503124L33.64375 24.8L38.659374 24.8ZM44.065624 26.4875L40.8 26.4875L40.8 25.925L43.534374 21.190624L44.565624 21.190624L44.565624 26.003124L44.971874 26.003124Q45.159374 26.003124 45.2375 26.065624Q45.315624 26.128124 45.315624 26.253124Q45.315624 26.346874 45.2375 26.425Q45.159374 26.4875 44.971874 26.4875L44.565624 26.4875L44.565624 28.05L44.971874 28.05Q45.159374 28.05 45.2375 28.128124Q45.315624 28.190624 45.315624 28.3Q45.315624 28.409374 45.2375 28.4875Q45.159374 28.55 44.971874 28.55L43.14375 28.55Q42.971874 28.55 42.89375 28.4875Q42.815624 28.409374 42.815624 28.3Q42.815624 28.190624 42.89375 28.128124Q42.971874 28.05 43.14375 28.05L44.065624 28.05L44.065624 26.4875ZM44.065624 26.003124L44.065624 21.690624L43.815624 21.690624L41.315624 26.003124L44.065624 26.003124ZM51.065624 26.4875L47.8 26.4875L47.8 25.925L50.534374 21.190624L51.565624 21.190624L51.565624 26.003124L51.971874 26.003124Q52.159374 26.003124 52.2375 26.065624Q52.315624 26.128124 52.315624 26.253124Q52.315624 26.346874 52.2375 26.425Q52.159374 26.4875 51.971874 26.4875L51.565624 26.4875L51.565624 28.05L51.971874 28.05Q52.159374 28.05 52.2375 28.128124Q52.315624 28.190624 52.315624 28.3Q52.315624 28.409374 52.2375 28.4875Q52.159374 28.55 51.971874 28.55L50.14375 28.55Q49.971874 28.55 49.89375 28.4875Q49.815624 28.409374 49.815624 28.3Q49.815624 28.190624 49.89375 28.128124Q49.971874 28.05 50.14375 28.05L51.065624 28.05L51.065624 26.4875ZM51.065624 26.003124L51.065624 21.690624L50.815624 21.690624L48.315624 26.003124L51.065624 26.003124Z" fill-rule="nonzero"/><path fill="#9e9e9e" d="M23.159374 41.7375Q23.784374 42.034374 24.096874 42.534374Q24.409374 43.01875 24.409374 43.58125Q24.409374 44.440624 23.753124 45.08125Q23.096874 45.721874 22.159374 45.721874Q21.221874 45.721874 20.565624 45.08125Q19.909374 44.440624 19.909374 43.58125Q19.909374 43.01875 20.221874 42.534374Q20.534374 42.034374 21.159374 41.7375Q20.6125 41.425 20.3625 41.096874Q20.034374 40.6125 20.034374 40.034374Q20.034374 39.2375 20.64375 38.628124Q21.26875 38.01875 22.159374 38.01875Q23.034374 38.01875 23.659374 38.628124Q24.284374 39.2375 24.284374 40.034374Q24.284374 40.6125 23.940624 41.08125Q23.70625 41.425 23.159374 41.7375ZM23.784374 40.065624Q23.784374 39.425 23.3 38.971874Q22.83125 38.51875 22.14375 38.51875Q21.471874 38.51875 20.9875 38.971874Q20.51875 39.425 20.51875 40.05Q20.51875 40.628124 20.9875 41.065624Q21.45625 41.4875 22.14375 41.4875Q22.846874 41.4875 23.315624 41.065624Q23.784374 40.628124 23.784374 40.065624ZM23.909374 43.58125Q23.909374 42.940624 23.409374 42.45625Q22.909374 41.971874 22.159374 41.971874Q21.409374 41.971874 20.89375 42.45625Q20.39375 42.940624 20.39375 43.58125Q20.39375 44.253124 20.89375 44.753124Q21.409374 45.2375 22.159374 45.2375Q22.89375 45.2375 23.39375 44.753124Q23.909374 44.253124 23.909374 43.58125ZM29.05 44.14375L29.253124 44.14375Q29.58125 44.14375 29.815624 44.378124Q30.05 44.596874 30.05 44.925Q30.05 45.26875 29.815624 45.503124Q29.58125 45.721874 29.253124 45.721874L29.05 45.721874Q28.721874 45.721874 28.4875 45.503124Q28.253124 45.26875 28.253124 44.940624Q28.253124 44.596874 28.4875 44.378124Q28.721874 44.14375 29.05 44.14375ZM37.159374 41.55Q37.846874 41.846874 38.190624 42.378124Q38.55 42.909374 38.55 43.4875Q38.55 44.378124 37.83125 45.05Q37.128124 45.721874 36.05 45.721874Q35.409374 45.721874 34.721874 45.45625Q34.05 45.190624 33.784374 44.909374Q33.690624 44.815624 33.690624 44.70625Q33.690624 44.6125 33.753124 44.55Q33.83125 44.471874 33.925 44.471874Q34.01875 44.471874 34.128124 44.565624Q35.034374 45.2375 36.05 45.2375Q36.909374 45.2375 37.4875 44.70625Q38.065624 44.159374 38.065624 43.503124Q38.065624 43.065624 37.784374 42.64375Q37.503124 42.221874 36.95625 41.9875Q36.425 41.7375 35.878124 41.7375Q35.70625 41.7375 35.628124 41.675Q35.55 41.596874 35.55 41.4875Q35.55 41.378124 35.628124 41.315624Q35.70625 41.2375 35.846874 41.2375L36.26875 41.253124Q36.940624 41.253124 37.3625 40.846874Q37.8 40.440624 37.8 39.909374Q37.8 39.3625 37.346874 38.940624Q36.89375 38.51875 36.159374 38.51875Q35.659374 38.51875 35.221874 38.690624Q34.8 38.8625 34.55 39.175Q34.45625 39.284374 34.39375 39.315624Q34.346874 39.33125 34.284374 39.33125Q34.190624 39.33125 34.1125 39.26875Q34.05 39.20625 34.05 39.1125Q34.05 38.878124 34.55 38.51875Q35.26875 38.01875 36.159374 38.01875Q37.096874 38.01875 37.690624 38.58125Q38.3 39.14375 38.3 39.909374Q38.3 40.409374 38.003124 40.846874Q37.721874 41.284374 37.159374 41.55ZM43.89375 39.596874Q43.89375 40.221874 43.45625 40.675Q43.01875 41.1125 42.39375 41.1125Q41.784374 41.1125 41.33125 40.675Q40.89375 40.221874 40.89375 39.596874Q40.89375 38.95625 41.33125 38.51875Q41.784374 38.08125 42.39375 38.08125Q43.01875 38.08125 43.45625 38.51875Q43.89375 38.95625 43.89375 39.596874ZM43.55 39.596874Q43.55 39.1125 43.20625 38.76875Q42.878124 38.425 42.39375 38.425Q41.925 38.425 41.58125 38.76875Q41.253124 39.1125 41.253124 39.596874Q41.253124 40.08125 41.58125 40.425Q41.925 40.76875 42.39375 40.76875Q42.878124 40.76875 43.20625 40.425Q43.55 40.08125 43.55 39.596874ZM45.4875 41.3L40.940624 42.784374Q40.846874 42.8 40.815624 42.8Q40.753124 42.8 40.690624 42.753124Q40.64375 42.70625 40.64375 42.628124Q40.64375 42.565624 40.690624 42.51875Q40.721874 42.471874 40.815624 42.440624L45.378124 40.95625Q45.45625 40.940624 45.503124 40.940624Q45.565624 40.940624 45.6125 41.003124Q45.675 41.05 45.675 41.1125Q45.675 41.175 45.628124 41.2375Q45.596874 41.26875 45.4875 41.3ZM45.409374 44.175Q45.409374 44.8 44.971874 45.253124Q44.534374 45.690624 43.909374 45.690624Q43.3 45.690624 42.846874 45.253124Q42.409374 44.8 42.409374 44.175Q42.409374 43.534374 42.846874 43.096874Q43.284374 42.64375 43.909374 42.64375Q44.534374 42.64375 44.971874 43.096874Q45.409374 43.534374 45.409374 44.175ZM45.065624 44.175Q45.065624 43.675 44.721874 43.346874Q44.378124 43.003124 43.909374 43.003124Q43.440624 43.003124 43.096874 43.346874Q42.76875 43.690624 42.76875 44.175Q42.76875 44.659374 43.096874 45.003124Q43.440624 45.33125 43.909374 45.33125Q44.378124 45.33125 44.721874 45.003124Q45.065624 44.659374 45.065624 44.175Z" fill-rule="nonzero"/><path stroke="#757575" stroke-width="1.0" stroke-linecap="butt" d="M18.55 34.05L127.05 34.05L258.95065 32.30175" fill-rule="nonzero"/><path fill="#9e9e9e" d="M260.95065 32.30175C260.95065 31.19718 260.05524 30.301748 258.95065 30.301748C257.84607 30.301748 256.95065 31.19718 256.95065 32.30175C256.95065 33.40632 257.84607 34.30175 258.95065 34.30175C260.05524 34.30175 260.95065 33.40632 260.95065 32.30175" fill-rule="nonzero"/><path fill="#ffffff" d="M20.034374 179.5L23.815624 179.5L23.815624 179.3125Q23.815624 179.14062 23.878124 179.0625Q23.95625 178.98438 24.065624 178.98438Q24.175 178.98438 24.2375 179.0625Q24.315624 179.14062 24.315624 179.3125L24.315624 180.0L19.55 180.0L19.55 179.26562Q21.05 177.92188 22.471874 176.53125Q23.128124 175.875 23.378124 175.57812Q23.628124 175.26562 23.70625 175.04688Q23.8 174.8125 23.8 174.57812Q23.8 173.9375 23.284374 173.45312Q22.784374 172.96875 22.065624 172.96875Q21.425 172.96875 20.925 173.34375Q20.425 173.70312 20.284374 174.25Q20.2375 174.39062 20.190624 174.4375Q20.128124 174.48438 20.034374 174.48438Q19.925 174.48438 19.8625 174.42188Q19.8 174.35938 19.8 174.26562Q19.8 173.98438 20.096874 173.5Q20.409374 173.01562 20.940624 172.75Q21.4875 172.46875 22.065624 172.46875Q22.9875 172.46875 23.64375 173.10938Q24.3 173.75 24.3 174.5625Q24.3 174.89062 24.190624 175.1875Q24.08125 175.46875 23.815624 175.8125Q23.55 176.14062 22.8625 176.8125Q21.128124 178.53125 20.034374 179.46875L20.034374 179.5ZM27.8 173.14062L27.8 175.54688Q28.221874 175.375 28.6125 175.28125Q29.01875 175.1875 29.378124 175.1875Q30.315624 175.1875 30.925 175.84375Q31.55 176.48438 31.55 177.54688Q31.55 178.71875 30.846874 179.45312Q30.14375 180.17188 29.096874 180.17188Q28.39375 180.17188 27.753124 179.85938Q27.3 179.64062 26.925 179.32812Q26.70625 179.125 26.70625 179.0Q26.70625 178.89062 26.76875 178.82812Q26.846874 178.75 26.940624 178.75Q27.034374 178.75 27.14375 178.85938Q28.034374 179.6875 29.065624 179.6875Q29.940624 179.6875 30.503124 179.09375Q31.065624 178.5 31.065624 177.53125Q31.065624 176.6875 30.565624 176.1875Q30.08125 175.6875 29.33125 175.6875Q28.565624 175.6875 27.8 176.07812Q27.6125 176.17188 27.534374 176.17188Q27.425 176.17188 27.3625 176.10938Q27.3 176.03125 27.3 175.90625L27.3 172.64062L30.7375 172.64062Q30.909374 172.64062 30.9875 172.71875Q31.065624 172.78125 31.065624 172.89062Q31.065624 173.0 30.9875 173.07812Q30.909374 173.14062 30.7375 173.14062L27.8 173.14062ZM38.659374 176.25L38.659374 176.95312L33.64375 176.95312L33.64375 176.25L38.659374 176.25ZM44.159374 176.0Q44.846874 176.29688 45.190624 176.82812Q45.55 177.35938 45.55 177.9375Q45.55 178.82812 44.83125 179.5Q44.128124 180.17188 43.05 180.17188Q42.409374 180.17188 41.721874 179.90625Q41.05 179.64062 40.784374 179.35938Q40.690624 179.26562 40.690624 179.15625Q40.690624 179.0625 40.753124 179.0Q40.83125 178.92188 40.925 178.92188Q41.01875 178.92188 41.128124 179.01562Q42.034374 179.6875 43.05 179.6875Q43.909374 179.6875 44.4875 179.15625Q45.065624 178.60938 45.065624 177.95312Q45.065624 177.51562 44.784374 177.09375Q44.503124 176.67188 43.95625 176.4375Q43.425 176.1875 42.878124 176.1875Q42.70625 176.1875 42.628124 176.125Q42.55 176.04688 42.55 175.9375Q42.55 175.82812 42.628124 175.76562Q42.70625 175.6875 42.846874 175.6875L43.26875 175.70312Q43.940624 175.70312 44.3625 175.29688Q44.8 174.89062 44.8 174.35938Q44.8 173.8125 44.346874 173.39062Q43.89375 172.96875 43.159374 172.96875Q42.659374 172.96875 42.221874 173.14062Q41.8 173.3125 41.55 173.625Q41.45625 173.73438 41.39375 173.76562Q41.346874 173.78125 41.284374 173.78125Q41.190624 173.78125 41.1125 173.71875Q41.05 173.65625 41.05 173.5625Q41.05 173.32812 41.55 172.96875Q42.26875 172.46875 43.159374 172.46875Q44.096874 172.46875 44.690624 173.03125Q45.3 173.59375 45.3 174.35938Q45.3 174.85938 45.003124 175.29688Q44.721874 175.73438 44.159374 176.0ZM51.065624 177.9375L47.8 177.9375L47.8 177.375L50.534374 172.64062L51.565624 172.64062L51.565624 177.45312L51.971874 177.45312Q52.159374 177.45312 52.2375 177.51562Q52.315624 177.57812 52.315624 177.70312Q52.315624 177.79688 52.2375 177.875Q52.159374 177.9375 51.971874 177.9375L51.565624 177.9375L51.565624 179.5L51.971874 179.5Q52.159374 179.5 52.2375 179.57812Q52.315624 179.64062 52.315624 179.75Q52.315624 179.85938 52.2375 179.9375Q52.159374 180.0 51.971874 180.0L50.14375 180.0Q49.971874 180.0 49.89375 179.9375Q49.815624 179.85938 49.815624 179.75Q49.815624 179.64062 49.89375 179.57812Q49.971874 179.5 50.14375 179.5L51.065624 179.5L51.065624 177.9375ZM51.065624 177.45312L51.065624 173.14062L50.815624 173.14062L48.315624 177.45312L51.065624 177.45312Z" fill-rule="nonzero"/><path fill="#9e9e9e" d="M23.159374 193.0Q23.846874 193.29688 24.190624 193.82812Q24.55 194.35938 24.55 194.9375Q24.55 195.82812 23.83125 196.5Q23.128124 197.17188 22.05 197.17188Q21.409374 197.17188 20.721874 196.90625Q20.05 196.64062 19.784374 196.35938Q19.690624 196.26562 19.690624 196.15625Q19.690624 196.0625 19.753124 196.0Q19.83125 195.92188 19.925 195.92188Q20.01875 195.92188 20.128124 196.01562Q21.034374 196.6875 22.05 196.6875Q22.909374 196.6875 23.4875 196.15625Q24.065624 195.60938 24.065624 194.95312Q24.065624 194.51562 23.784374 194.09375Q23.503124 193.67188 22.95625 193.4375Q22.425 193.1875 21.878124 193.1875Q21.70625 193.1875 21.628124 193.125Q21.55 193.04688 21.55 192.9375Q21.55 192.82812 21.628124 192.76562Q21.70625 192.6875 21.846874 192.6875L22.26875 192.70312Q22.940624 192.70312 23.3625 192.29688Q23.8 191.89062 23.8 191.35938Q23.8 190.8125 23.346874 190.39062Q22.89375 189.96875 22.159374 189.96875Q21.659374 189.96875 21.221874 190.14062Q20.8 190.3125 20.55 190.625Q20.45625 190.73438 20.39375 190.76562Q20.346874 190.78125 20.284374 190.78125Q20.190624 190.78125 20.1125 190.71875Q20.05 190.65625 20.05 190.5625Q20.05 190.32812 20.55 189.96875Q21.26875 189.46875 22.159374 189.46875Q23.096874 189.46875 23.690624 190.03125Q24.3 190.59375 24.3 191.35938Q24.3 191.85938 24.003124 192.29688Q23.721874 192.73438 23.159374 193.0ZM30.159374 193.0Q30.846874 193.29688 31.190624 193.82812Q31.55 194.35938 31.55 194.9375Q31.55 195.82812 30.83125 196.5Q30.128124 197.17188 29.05 197.17188Q28.409374 197.17188 27.721874 196.90625Q27.05 196.64062 26.784374 196.35938Q26.690624 196.26562 26.690624 196.15625Q26.690624 196.0625 26.753124 196.0Q26.83125 195.92188 26.925 195.92188Q27.01875 195.92188 27.128124 196.01562Q28.034374 196.6875 29.05 196.6875Q29.909374 196.6875 30.4875 196.15625Q31.065624 195.60938 31.065624 194.95312Q31.065624 194.51562 30.784374 194.09375Q30.503124 193.67188 29.95625 193.4375Q29.425 193.1875 28.878124 193.1875Q28.70625 193.1875 28.628124 193.125Q28.55 193.04688 28.55 192.9375Q28.55 192.82812 28.628124 192.76562Q28.70625 192.6875 28.846874 192.6875L29.26875 192.70312Q29.940624 192.70312 30.3625 192.29688Q30.8 191.89062 30.8 191.35938Q30.8 190.8125 30.346874 190.39062Q29.89375 189.96875 29.159374 189.96875Q28.659374 189.96875 28.221874 190.14062Q27.8 190.3125 27.55 190.625Q27.45625 190.73438 27.39375 190.76562Q27.346874 190.78125 27.284374 190.78125Q27.190624 190.78125 27.1125 190.71875Q27.05 190.65625 27.05 190.5625Q27.05 190.32812 27.55 189.96875Q28.26875 189.46875 29.159374 189.46875Q30.096874 189.46875 30.690624 190.03125Q31.3 190.59375 31.3 191.35938Q31.3 191.85938 31.003124 192.29688Q30.721874 192.73438 30.159374 193.0ZM36.05 195.59375L36.253124 195.59375Q36.58125 195.59375 36.815624 195.82812Q37.05 196.04688 37.05 196.375Q37.05 196.71875 36.815624 196.95312Q36.58125 197.17188 36.253124 197.17188L36.05 197.17188Q35.721874 197.17188 35.4875 196.95312Q35.253124 196.71875 35.253124 196.39062Q35.253124 196.04688 35.4875 195.82812Q35.721874 195.59375 36.05 195.59375ZM44.159374 193.0Q44.846874 193.29688 45.190624 193.82812Q45.55 194.35938 45.55 194.9375Q45.55 195.82812 44.83125 196.5Q44.128124 197.17188 43.05 197.17188Q42.409374 197.17188 41.721874 196.90625Q41.05 196.64062 40.784374 196.35938Q40.690624 196.26562 40.690624 196.15625Q40.690624 196.0625 40.753124 196.0Q40.83125 195.92188 40.925 195.92188Q41.01875 195.92188 41.128124 196.01562Q42.034374 196.6875 43.05 196.6875Q43.909374 196.6875 44.4875 196.15625Q45.065624 195.60938 45.065624 194.95312Q45.065624 194.51562 44.784374 194.09375Q44.503124 193.67188 43.95625 193.4375Q43.425 193.1875 42.878124 193.1875Q42.70625 193.1875 42.628124 193.125Q42.55 193.04688 42.55 192.9375Q42.55 192.82812 42.628124 192.76562Q42.70625 192.6875 42.846874 192.6875L43.26875 192.70312Q43.940624 192.70312 44.3625 192.29688Q44.8 191.89062 44.8 191.35938Q44.8 190.8125 44.346874 190.39062Q43.89375 189.96875 43.159374 189.96875Q42.659374 189.96875 42.221874 190.14062Q41.8 190.3125 41.55 190.625Q41.45625 190.73438 41.39375 190.76562Q41.346874 190.78125 41.284374 190.78125Q41.190624 190.78125 41.1125 190.71875Q41.05 190.65625 41.05 190.5625Q41.05 190.32812 41.55 189.96875Q42.26875 189.46875 43.159374 189.46875Q44.096874 189.46875 44.690624 190.03125Q45.3 190.59375 45.3 191.35938Q45.3 191.85938 45.003124 192.29688Q44.721874 192.73438 44.159374 193.0ZM50.89375 191.04688Q50.89375 191.67188 50.45625 192.125Q50.01875 192.5625 49.39375 192.5625Q48.784374 192.5625 48.33125 192.125Q47.89375 191.67188 47.89375 191.04688Q47.89375 190.40625 48.33125 189.96875Q48.784374 189.53125 49.39375 189.53125Q50.01875 189.53125 50.45625 189.96875Q50.89375 190.40625 50.89375 191.04688ZM50.55 191.04688Q50.55 190.5625 50.20625 190.21875Q49.878124 189.875 49.39375 189.875Q48.925 189.875 48.58125 190.21875Q48.253124 190.5625 48.253124 191.04688Q48.253124 191.53125 48.58125 191.875Q48.925 192.21875 49.39375 192.21875Q49.878124 192.21875 50.20625 191.875Q50.55 191.53125 50.55 191.04688ZM52.4875 192.75L47.940624 194.23438Q47.846874 194.25 47.815624 194.25Q47.753124 194.25 47.690624 194.20312Q47.64375 194.15625 47.64375 194.07812Q47.64375 194.01562 47.690624 193.96875Q47.721874 193.92188 47.815624 193.89062L52.378124 192.40625Q52.45625 192.39062 52.503124 192.39062Q52.565624 192.39062 52.6125 192.45312Q52.675 192.5 52.675 192.5625Q52.675 192.625 52.628124 192.6875Q52.596874 192.71875 52.4875 192.75ZM52.409374 195.625Q52.409374 196.25 51.971874 196.70312Q51.534374 197.14062 50.909374 197.14062Q50.3 197.14062 49.846874 196.70312Q49.409374 196.25 49.409374 195.625Q49.409374 194.98438 49.846874 194.54688Q50.284374 194.09375 50.909374 194.09375Q51.534374 194.09375 51.971874 194.54688Q52.409374 194.98438 52.409374 195.625ZM52.065624 195.625Q52.065624 195.125 51.721874 194.79688Q51.378124 194.45312 50.909374 194.45312Q50.440624 194.45312 50.096874 194.79688Q49.76875 195.14062 49.76875 195.625Q49.76875 196.10938 50.096874 196.45312Q50.440624 196.78125 50.909374 196.78125Q51.378124 196.78125 51.721874 196.45312Q52.065624 196.10938 52.065624 195.625Z" fill-rule="nonzero"/><path stroke="#757575" stroke-width="1.0" stroke-linecap="butt" d="M18.55 185.5L127.05 185.5L141.3975 185.5" fill-rule="nonzero"/><path fill="#9e9e9e" d="M143.3975 185.5C143.3975 184.39543 142.50208 183.5 141.3975 183.5C140.29292 183.5 139.3975 184.39543 139.3975 185.5C139.3975 186.60457 140.29292 187.5 141.3975 187.5C142.50208 187.5 143.3975 186.60457 143.3975 185.5" fill-rule="nonzero"/><path fill="#ffffff" d="M550.29376 213.59622L550.29376 220.54935L551.98126 220.54935Q552.15314 220.54935 552.23126 220.62747Q552.3094 220.68997 552.3094 220.79935Q552.3094 220.90872 552.23126 220.98685Q552.15314 221.04935 551.98126 221.04935L548.1219 221.04935Q547.9344 221.04935 547.85626 220.98685Q547.79376 220.90872 547.79376 220.79935Q547.79376 220.68997 547.85626 220.62747Q547.9344 220.54935 548.1219 220.54935L549.8094 220.54935L549.8094 214.2681L548.2 214.78372Q548.075 214.81497 548.02814 214.81497Q547.9344 214.81497 547.85626 214.75247Q547.79376 214.67435 547.79376 214.56497Q547.79376 214.48685 547.85626 214.40872Q547.90314 214.36185 548.04376 214.29935L550.29376 213.59622ZM555.7 214.18997L555.7 216.59622Q556.1219 216.42435 556.5125 216.3306Q556.91876 216.23685 557.27814 216.23685Q558.21564 216.23685 558.825 216.8931Q559.45 217.53372 559.45 218.59622Q559.45 219.7681 558.7469 220.50247Q558.04376 221.22122 556.9969 221.22122Q556.29376 221.22122 555.65314 220.90872Q555.2 220.68997 554.825 220.37747Q554.60626 220.17435 554.60626 220.04935Q554.60626 219.93997 554.66876 219.87747Q554.7469 219.79935 554.84064 219.79935Q554.9344 219.79935 555.04376 219.90872Q555.9344 220.73685 556.96564 220.73685Q557.84064 220.73685 558.40314 220.1431Q558.96564 219.54935 558.96564 218.5806Q558.96564 217.73685 558.46564 217.23685Q557.98126 216.73685 557.23126 216.73685Q556.46564 216.73685 555.7 217.12747Q555.5125 217.22122 555.4344 217.22122Q555.325 217.22122 555.2625 217.15872Q555.2 217.0806 555.2 216.9556L555.2 213.68997L558.6375 213.68997Q558.8094 213.68997 558.8875 213.7681Q558.96564 213.8306 558.96564 213.93997Q558.96564 214.04935 558.8875 214.12747Q558.8094 214.18997 558.6375 214.18997L555.7 214.18997ZM566.5594 217.29935L566.5594 218.00247L561.54376 218.00247L561.54376 217.29935L566.5594 217.29935ZM568.9344 220.54935L572.71564 220.54935L572.71564 220.36185Q572.71564 220.18997 572.77814 220.11185Q572.85626 220.03372 572.96564 220.03372Q573.075 220.03372 573.1375 220.11185Q573.21564 220.18997 573.21564 220.36185L573.21564 221.04935L568.45 221.04935L568.45 220.31497Q569.95 218.97122 571.3719 217.5806Q572.02814 216.92435 572.27814 216.62747Q572.52814 216.31497 572.60626 216.09622Q572.7 215.86185 572.7 215.62747Q572.7 214.98685 572.1844 214.50247Q571.6844 214.0181 570.96564 214.0181Q570.325 214.0181 569.825 214.3931Q569.325 214.75247 569.1844 215.29935Q569.1375 215.43997 569.09064 215.48685Q569.02814 215.53372 568.9344 215.53372Q568.825 215.53372 568.7625 215.47122Q568.7 215.40872 568.7 215.31497Q568.7 215.03372 568.9969 214.54935Q569.3094 214.06497 569.84064 213.79935Q570.3875 213.5181 570.96564 213.5181Q571.8875 213.5181 572.54376 214.15872Q573.2 214.79935 573.2 215.61185Q573.2 215.93997 573.09064 216.23685Q572.98126 216.5181 572.71564 216.86185Q572.45 217.18997 571.7625 217.86185Q570.02814 219.5806 568.9344 220.5181L568.9344 220.54935ZM578.96564 218.98685L575.7 218.98685L575.7 218.42435L578.4344 213.68997L579.46564 213.68997L579.46564 218.50247L579.8719 218.50247Q580.0594 218.50247 580.1375 218.56497Q580.21564 218.62747 580.21564 218.75247Q580.21564 218.84622 580.1375 218.92435Q580.0594 218.98685 579.8719 218.98685L579.46564 218.98685L579.46564 220.54935L579.8719 220.54935Q580.0594 220.54935 580.1375 220.62747Q580.21564 220.68997 580.21564 220.79935Q580.21564 220.90872 580.1375 220.98685Q580.0594 221.04935 579.8719 221.04935L578.04376 221.04935Q577.8719 221.04935 577.79376 220.98685Q577.71564 220.90872 577.71564 220.79935Q577.71564 220.68997 577.79376 220.62747Q577.8719 220.54935 578.04376 220.54935L578.96564 220.54935L578.96564 218.98685ZM578.96564 218.50247L578.96564 214.18997L578.71564 214.18997L576.21564 218.50247L578.96564 218.50247Z" fill-rule="nonzero"/><path fill="#9e9e9e" d="M548.7 231.18997L548.7 233.59622Q549.1219 233.42435 549.5125 233.3306Q549.91876 233.23685 550.27814 233.23685Q551.21564 233.23685 551.825 233.8931Q552.45 234.53372 552.45 235.59622Q552.45 236.7681 551.7469 237.50247Q551.04376 238.22122 549.9969 238.22122Q549.29376 238.22122 548.65314 237.90872Q548.2 237.68997 547.825 237.37747Q547.60626 237.17435 547.60626 237.04935Q547.60626 236.93997 547.66876 236.87747Q547.7469 236.79935 547.84064 236.79935Q547.9344 236.79935 548.04376 236.90872Q548.9344 237.73685 549.96564 237.73685Q550.84064 237.73685 551.40314 237.1431Q551.96564 236.54935 551.96564 235.5806Q551.96564 234.73685 551.46564 234.23685Q550.98126 233.73685 550.23126 233.73685Q549.46564 233.73685 548.7 234.12747Q548.5125 234.22122 548.4344 234.22122Q548.325 234.22122 548.2625 234.15872Q548.2 234.0806 548.2 233.9556L548.2 230.68997L551.6375 230.68997Q551.8094 230.68997 551.8875 230.7681Q551.96564 230.8306 551.96564 230.93997Q551.96564 231.04935 551.8875 231.12747Q551.8094 231.18997 551.6375 231.18997L548.7 231.18997ZM558.0594 234.23685Q558.6844 234.53372 558.9969 235.03372Q559.3094 235.5181 559.3094 236.0806Q559.3094 236.93997 558.65314 237.5806Q557.9969 238.22122 557.0594 238.22122Q556.1219 238.22122 555.46564 237.5806Q554.8094 236.93997 554.8094 236.0806Q554.8094 235.5181 555.1219 235.03372Q555.4344 234.53372 556.0594 234.23685Q555.5125 233.92435 555.2625 233.59622Q554.9344 233.11185 554.9344 232.53372Q554.9344 231.73685 555.54376 231.12747Q556.16876 230.5181 557.0594 230.5181Q557.9344 230.5181 558.5594 231.12747Q559.1844 231.73685 559.1844 232.53372Q559.1844 233.11185 558.84064 233.5806Q558.60626 233.92435 558.0594 234.23685ZM558.6844 232.56497Q558.6844 231.92435 558.2 231.47122Q557.73126 231.0181 557.04376 231.0181Q556.3719 231.0181 555.8875 231.47122Q555.41876 231.92435 555.41876 232.54935Q555.41876 233.12747 555.8875 233.56497Q556.35626 233.98685 557.04376 233.98685Q557.7469 233.98685 558.21564 233.56497Q558.6844 233.12747 558.6844 232.56497ZM558.8094 236.0806Q558.8094 235.43997 558.3094 234.9556Q557.8094 234.47122 557.0594 234.47122Q556.3094 234.47122 555.79376 234.9556Q555.29376 235.43997 555.29376 236.0806Q555.29376 236.75247 555.79376 237.25247Q556.3094 237.73685 557.0594 237.73685Q557.79376 237.73685 558.29376 237.25247Q558.8094 236.75247 558.8094 236.0806ZM563.95 236.6431L564.15314 236.6431Q564.48126 236.6431 564.71564 236.87747Q564.95 237.09622 564.95 237.42435Q564.95 237.7681 564.71564 238.00247Q564.48126 238.22122 564.15314 238.22122L563.95 238.22122Q563.6219 238.22122 563.3875 238.00247Q563.15314 237.7681 563.15314 237.43997Q563.15314 237.09622 563.3875 236.87747Q563.6219 236.6431 563.95 236.6431ZM572.0594 234.04935Q572.7469 234.34622 573.09064 234.87747Q573.45 235.40872 573.45 235.98685Q573.45 236.87747 572.73126 237.54935Q572.02814 238.22122 570.95 238.22122Q570.3094 238.22122 569.6219 237.9556Q568.95 237.68997 568.6844 237.40872Q568.59064 237.31497 568.59064 237.2056Q568.59064 237.11185 568.65314 237.04935Q568.73126 236.97122 568.825 236.97122Q568.91876 236.97122 569.02814 237.06497Q569.9344 237.73685 570.95 237.73685Q571.8094 237.73685 572.3875 237.2056Q572.96564 236.65872 572.96564 236.00247Q572.96564 235.56497 572.6844 235.1431Q572.40314 234.72122 571.85626 234.48685Q571.325 234.23685 570.77814 234.23685Q570.60626 234.23685 570.52814 234.17435Q570.45 234.09622 570.45 233.98685Q570.45 233.87747 570.52814 233.81497Q570.60626 233.73685 570.7469 233.73685L571.16876 233.75247Q571.84064 233.75247 572.2625 233.34622Q572.7 232.93997 572.7 232.40872Q572.7 231.86185 572.2469 231.43997Q571.79376 231.0181 571.0594 231.0181Q570.5594 231.0181 570.1219 231.18997Q569.7 231.36185 569.45 231.67435Q569.35626 231.78372 569.29376 231.81497Q569.2469 231.8306 569.1844 231.8306Q569.09064 231.8306 569.0125 231.7681Q568.95 231.7056 568.95 231.61185Q568.95 231.37747 569.45 231.0181Q570.16876 230.5181 571.0594 230.5181Q571.9969 230.5181 572.59064 231.0806Q573.2 231.6431 573.2 232.40872Q573.2 232.90872 572.90314 233.34622Q572.6219 233.78372 572.0594 234.04935ZM578.79376 232.09622Q578.79376 232.72122 578.35626 233.17435Q577.91876 233.61185 577.29376 233.61185Q576.6844 233.61185 576.23126 233.17435Q575.79376 232.72122 575.79376 232.09622Q575.79376 231.4556 576.23126 231.0181Q576.6844 230.5806 577.29376 230.5806Q577.91876 230.5806 578.35626 231.0181Q578.79376 231.4556 578.79376 232.09622ZM578.45 232.09622Q578.45 231.61185 578.10626 231.2681Q577.77814 230.92435 577.29376 230.92435Q576.825 230.92435 576.48126 231.2681Q576.15314 231.61185 576.15314 232.09622Q576.15314 232.5806 576.48126 232.92435Q576.825 233.2681 577.29376 233.2681Q577.77814 233.2681 578.10626 232.92435Q578.45 232.5806 578.45 232.09622ZM580.3875 233.79935L575.84064 235.28372Q575.7469 235.29935 575.71564 235.29935Q575.65314 235.29935 575.59064 235.25247Q575.54376 235.2056 575.54376 235.12747Q575.54376 235.06497 575.59064 235.0181Q575.6219 234.97122 575.71564 234.93997L580.27814 233.4556Q580.35626 233.43997 580.40314 233.43997Q580.46564 233.43997 580.5125 233.50247Q580.575 233.54935 580.575 233.61185Q580.575 233.67435 580.52814 233.73685Q580.4969 233.7681 580.3875 233.79935ZM580.3094 236.67435Q580.3094 237.29935 579.8719 237.75247Q579.4344 238.18997 578.8094 238.18997Q578.2 238.18997 577.7469 237.75247Q577.3094 237.29935 577.3094 236.67435Q577.3094 236.03372 577.7469 235.59622Q578.1844 235.1431 578.8094 235.1431Q579.4344 235.1431 579.8719 235.59622Q580.3094 236.03372 580.3094 236.67435ZM579.96564 236.67435Q579.96564 236.17435 579.6219 235.84622Q579.27814 235.50247 578.8094 235.50247Q578.34064 235.50247 577.9969 235.84622Q577.66876 236.18997 577.66876 236.67435Q577.66876 237.15872 577.9969 237.50247Q578.34064 237.8306 578.8094 237.8306Q579.27814 237.8306 579.6219 237.50247Q579.96564 237.15872 579.96564 236.67435Z" fill-rule="nonzero"/><path stroke="#757575" stroke-width="1.0" stroke-linecap="butt" d="M581.45 226.54935L472.95 226.54935L453.19824 226.54935" fill-rule="nonzero"/><path fill="#9e9e9e" d="M455.19824 226.54935C455.19824 225.44478 454.30283 224.54935 453.19824 224.54935C452.0937 224.54935 451.19824 225.44478 451.19824 226.54935C451.19824 227.65392 452.0937 228.54935 453.19824 228.54935C454.30283 228.54935 455.19824 227.65392 455.19824 226.54935" fill-rule="nonzero"/></svg>