<svg version="1.1" viewBox="0.0 0.0 600.0 371.0" fill="none" stroke="none" stroke-linecap="square" stroke-miterlimit="10" width="600" height="371" xmlns:xlink="http://www.w3.org/1999/xlink" xmlns="http://www.w3.org/2000/svg"><path fill="#ffffff" fill-opacity="0.0" d="M0 0L600.0 0L600.0 371.0L0 371.0L0 0Z" fill-rule="nonzero"/><path fill="#e0f8cf" d="M256.79016 24.238684C270.883 20.46252 285.41003 18.55 300.0 18.55L300.0 185.5Z" fill-rule="nonzero"/><path fill="#306850" d="M216.525 330.08295C158.04666 296.32047 125.664505 230.65594 134.47829 163.70865C143.29205 96.76137 191.56604 41.71543 256.79016 24.238684L300.0 185.5Z" fill-rule="nonzero"/><path fill="#86c06c" d="M300.0 18.55C370.18552 18.55 432.87683 62.44693 456.88168 128.39973C480.88654 194.35254 461.0786 268.27673 407.3134 313.3911C353.54816 358.5055 277.30743 365.1757 216.525 330.08295L300.0 185.5Z" fill-rule="nonzero"/><path fill="#ffffff" d="M23.909374 22.190624L23.909374 22.01875Q23.909374 21.846874 23.971874 21.76875Q24.05 21.690624 24.159374 21.690624Q24.26875 21.690624 24.33125 21.76875Q24.409374 21.846874 24.409374 22.01875L24.409374 23.26875Q24.409374 23.45625 24.33125 23.534374Q24.26875 23.596874 24.159374 23.596874Q24.05 23.596874 23.9875 23.534374Q23.925 23.45625 23.909374 23.3Q23.878124 22.815624 23.39375 22.425Q22.925 22.034374 22.159374 22.034374Q21.346874 22.034374 20.8625 22.45625Q20.378124 22.8625 20.378124 23.440624Q20.378124 23.721874 20.503124 23.971874Q20.64375 24.20625 20.8625 24.3625Q21.096874 24.503124 21.378124 24.596874Q21.659374 24.690624 22.253124 24.784374Q23.253124 24.95625 23.64375 25.128124Q24.14375 25.346874 24.409374 25.753124Q24.675 26.159374 24.675 26.70625Q24.675 27.55 23.9875 28.14375Q23.315624 28.7375 22.175 28.7375Q20.89375 28.7375 20.128124 27.940624L20.128124 28.221874Q20.128124 28.39375 20.05 28.471874Q19.9875 28.55 19.878124 28.55Q19.76875 28.55 19.690624 28.471874Q19.628124 28.39375 19.628124 28.221874L19.628124 26.8625Q19.628124 26.675 19.690624 26.6125Q19.76875 26.534374 19.878124 26.534374Q19.9875 26.534374 20.05 26.6125Q20.128124 26.675 20.128124 26.83125Q20.159374 27.3625 20.70625 27.815624Q21.253124 28.253124 22.175 28.253124Q23.096874 28.253124 23.628124 27.8Q24.175 27.33125 24.175 26.690624Q24.175 26.3 23.971874 26.003124Q23.76875 25.70625 23.3625 25.51875Q23.08125 25.409374 22.190624 25.253124Q20.971874 25.05 20.425 24.628124Q19.89375 24.20625 19.89375 23.425Q19.89375 22.64375 20.503124 22.096874Q21.128124 21.534374 22.14375 21.534374Q23.175 21.534374 23.909374 22.190624ZM31.909374 26.01875Q31.909374 27.14375 31.096874 27.940624Q30.284374 28.7375 29.159374 28.7375Q28.003124 28.7375 27.190624 27.940624Q26.39375 27.14375 26.39375 26.01875Q26.39375 24.89375 27.190624 24.096874Q28.003124 23.3 29.159374 23.3Q30.284374 23.3 31.096874 24.096874Q31.909374 24.89375 31.909374 26.01875ZM31.409374 26.01875Q31.409374 25.096874 30.7375 24.45625Q30.08125 23.8 29.14375 23.8Q28.20625 23.8 27.55 24.45625Q26.89375 25.096874 26.89375 26.01875Q26.89375 26.940624 27.55 27.596874Q28.20625 28.253124 29.14375 28.253124Q30.08125 28.253124 30.7375 27.596874Q31.409374 26.940624 31.409374 26.01875ZM37.83125 28.55L37.83125 27.83125Q36.83125 28.7375 35.659374 28.7375Q34.940624 28.7375 34.565624 28.346874Q34.08125 27.83125 34.08125 27.14375L34.08125 23.971874L33.409374 23.971874Q33.2375 23.971874 33.159374 23.909374Q33.08125 23.83125 33.08125 23.721874Q33.08125 23.6125 33.159374 23.55Q33.2375 23.471874 33.409374 23.471874L34.565624 23.471874L34.565624 27.14375Q34.565624 27.628124 34.8625 27.940624Q35.175 28.253124 35.628124 28.253124Q36.83125 28.253124 37.83125 27.14375L37.83125 23.971874L36.925 23.971874Q36.753124 23.971874 36.675 23.909374Q36.596874 23.83125 36.596874 23.721874Q36.596874 23.6125 36.675 23.55Q36.753124 23.471874 36.925 23.471874L38.33125 23.471874L38.33125 28.05L38.7375 28.05Q38.925 28.05 38.9875 28.128124Q39.065624 28.190624 39.065624 28.3Q39.065624 28.409374 38.9875 28.4875Q38.925 28.55 38.7375 28.55L37.83125 28.55ZM42.14375 23.471874L44.815624 23.471874Q44.9875 23.471874 45.065624 23.55Q45.14375 23.6125 45.14375 23.721874Q45.14375 23.83125 45.065624 23.909374Q44.9875 23.971874 44.815624 23.971874L42.14375 23.971874L42.14375 27.253124Q42.14375 27.675 42.4875 27.971874Q42.83125 28.253124 43.4875 28.253124Q43.9875 28.253124 44.565624 28.1125Q45.14375 27.95625 45.471874 27.76875Q45.58125 27.690624 45.659374 27.690624Q45.753124 27.690624 45.815624 27.76875Q45.89375 27.83125 45.89375 27.940624Q45.89375 28.01875 45.815624 28.096874Q45.628124 28.284374 44.909374 28.51875Q44.190624 28.7375 43.51875 28.7375Q42.659374 28.7375 42.14375 28.346874Q41.64375 27.940624 41.64375 27.253124L41.64375 23.971874L40.7375 23.971874Q40.565624 23.971874 40.4875 23.909374Q40.409374 23.83125 40.409374 23.721874Q40.409374 23.6125 40.4875 23.55Q40.565624 23.471874 40.7375 23.471874L41.64375 23.471874L41.64375 22.01875Q41.64375 21.846874 41.70625 21.76875Q41.784374 21.690624 41.89375 21.690624Q42.003124 21.690624 42.065624 21.76875Q42.14375 21.846874 42.14375 22.01875L42.14375 23.471874ZM48.534374 21.190624L48.534374 24.221874Q49.003124 23.721874 49.425 23.51875Q49.8625 23.3 50.39375 23.3Q50.971874 23.3 51.3625 23.503124Q51.76875 23.70625 52.034374 24.128124Q52.315624 24.534374 52.315624 25.003124L52.315624 28.05L52.8625 28.05Q53.05 28.05 53.1125 28.128124Q53.190624 28.190624 53.190624 28.3Q53.190624 28.409374 53.1125 28.4875Q53.05 28.55 52.8625 28.55L51.26875 28.55Q51.08125 28.55 51.003124 28.4875Q50.925 28.409374 50.925 28.3Q50.925 28.190624 51.003124 28.128124Q51.08125 28.05 51.26875 28.05L51.815624 28.05L51.815624 25.034374Q51.815624 24.503124 51.425 24.14375Q51.05 23.784374 50.3625 23.784374Q49.815624 23.784374 49.440624 24.05Q49.159374 24.2375 48.534374 24.940624L48.534374 28.05L49.08125 28.05Q49.26875 28.05 49.33125 28.128124Q49.409374 28.190624 49.409374 28.3Q49.409374 28.409374 49.33125 28.4875Q49.26875 28.55 49.08125 28.55L47.4875 28.55Q47.3 28.55 47.221874 28.4875Q47.159374 28.409374 47.159374 28.3Q47.159374 28.190624 47.221874 28.128124Q47.3 28.05 47.4875 28.05L48.034374 28.05L48.034374 21.690624L47.378124 21.690624Q47.20625 21.690624 47.128124 21.628124Q47.05 21.55 47.05 21.440624Q47.05 21.33125 47.128124 21.26875Q47.20625 21.190624 47.378124 21.190624L48.534374 21.190624ZM65.76875 26.253124L62.534374 26.253124L61.878124 28.05L62.815624 28.05Q62.9875 28.05 63.065624 28.128124Q63.14375 28.190624 63.14375 28.3Q63.14375 28.409374 63.065624 28.4875Q62.9875 28.55 62.815624 28.55L60.971874 28.55Q60.8 28.55 60.721874 28.4875Q60.64375 28.409374 60.64375 28.3Q60.64375 28.190624 60.721874 28.128124Q60.8 28.05 60.971874 28.05L61.3625 28.05L63.534374 22.190624L62.08125 22.190624Q61.909374 22.190624 61.83125 22.128124Q61.753124 22.05 61.753124 21.940624Q61.753124 21.83125 61.83125 21.76875Q61.909374 21.690624 62.08125 21.690624L64.56563 21.690624L66.95625 28.05L67.34688 28.05Q67.51875 28.05 67.59688 28.128124Q67.675 28.190624 67.675 28.3Q67.675 28.409374 67.59688 28.4875Q67.51875 28.55 67.34688 28.55L65.50313 28.55Q65.33125 28.55 65.25313 28.4875Q65.175 28.409374 65.175 28.3Q65.175 28.190624 65.25313 28.128124Q65.33125 28.05 65.50313 28.05L66.44063 28.05L65.76875 26.253124ZM65.58125 25.76875L64.22188 22.190624L64.05 22.190624L62.721874 25.76875L65.58125 25.76875ZM68.90938 23.471874L68.90938 23.971874Q69.53438 23.3 70.175 23.3Q70.55 23.3 70.83125 23.503124Q71.12813 23.70625 71.31563 24.1125Q71.64375 23.70625 71.97188 23.503124Q72.31563 23.3 72.65938 23.3Q73.19063 23.3 73.50313 23.64375Q73.925 24.096874 73.925 24.6125L73.925 28.05L74.34688 28.05Q74.51875 28.05 74.59688 28.128124Q74.675 28.190624 74.675 28.3Q74.675 28.409374 74.59688 28.4875Q74.51875 28.55 74.34688 28.55L73.44063 28.55L73.44063 24.659374Q73.44063 24.284374 73.20625 24.05Q72.97188 23.8 72.675 23.8Q72.40938 23.8 72.1125 24.003124Q71.81563 24.20625 71.425 24.8L71.425 28.05L71.84688 28.05Q72.01875 28.05 72.09688 28.128124Q72.175 28.190624 72.175 28.3Q72.175 28.409374 72.09688 28.4875Q72.01875 28.55 71.84688 28.55L70.925 28.55L70.925 24.70625Q70.925 24.3 70.69063 24.05Q70.47188 23.8 70.175 23.8Q69.925 23.8 69.65938 23.971874Q69.3 24.20625 68.90938 24.8L68.90938 28.05L69.33125 28.05Q69.50313 28.05 69.58125 28.128124Q69.65938 28.190624 69.65938 28.3Q69.65938 28.409374 69.58125 28.4875Q69.50313 28.55 69.33125 28.55L68.00313 28.55Q67.83125 28.55 67.75313 28.4875Q67.675 28.409374 67.675 28.3Q67.675 28.190624 67.75313 28.128124Q67.83125 28.05 68.00313 28.05L68.425 28.05L68.425 23.971874L68.00313 23.971874Q67.83125 23.971874 67.75313 23.909374Q67.675 23.83125 67.675 23.721874Q67.675 23.6125 67.75313 23.55Q67.83125 23.471874 68.00313 23.471874L68.90938 23.471874ZM80.81563 26.128124L75.8 26.128124Q75.925 27.08125 76.59688 27.675Q77.26875 28.253124 78.25313 28.253124Q78.81563 28.253124 79.40938 28.08125Q80.01875 27.89375 80.39375 27.58125Q80.50313 27.503124 80.59688 27.503124Q80.69063 27.503124 80.75313 27.58125Q80.83125 27.64375 80.83125 27.753124Q80.83125 27.846874 80.7375 27.940624Q80.45625 28.2375 79.7375 28.4875Q79.01875 28.7375 78.25313 28.7375Q76.9875 28.7375 76.14375 27.909374Q75.3 27.08125 75.3 25.909374Q75.3 24.83125 76.09688 24.065624Q76.89375 23.3 78.06563 23.3Q79.26875 23.3 80.05 24.096874Q80.83125 24.878124 80.81563 26.128124ZM80.31563 25.628124Q80.175 24.815624 79.55 24.315624Q78.925 23.8 78.06563 23.8Q77.20625 23.8 76.58125 24.3Q75.95625 24.8 75.8 25.628124L80.31563 25.628124ZM84.56563 23.471874L84.56563 24.721874Q85.51875 23.846874 85.9875 23.596874Q86.47188 23.346874 86.87813 23.346874Q87.31563 23.346874 87.69063 23.64375Q88.08125 23.940624 88.08125 24.096874Q88.08125 24.20625 88.00313 24.284374Q87.925 24.346874 87.81563 24.346874Q87.76875 24.346874 87.72188 24.33125Q87.675 24.315624 87.56563 24.20625Q87.3625 24.003124 87.20625 23.925Q87.06563 23.846874 86.90938 23.846874Q86.59688 23.846874 86.12813 24.1125Q85.675 24.3625 84.56563 25.3625L84.56563 28.05L86.7375 28.05Q86.925 28.05 87.00313 28.128124Q87.08125 28.190624 87.08125 28.3Q87.08125 28.409374 87.00313 28.4875Q86.925 28.55 86.7375 28.55L82.87813 28.55Q82.70625 28.55 82.62813 28.4875Q82.55 28.409374 82.55 28.315624Q82.55 28.20625 82.62813 28.14375Q82.70625 28.08125 82.87813 28.08125L84.06563 28.08125L84.06563 23.971874L83.15938 23.971874Q82.9875 23.971874 82.90938 23.909374Q82.83125 23.83125 82.83125 23.721874Q82.83125 23.6125 82.90938 23.55Q82.9875 23.471874 83.15938 23.471874L84.56563 23.471874ZM92.39375 20.95625L92.39375 22.221874L91.675 22.221874L91.675 20.95625L92.39375 20.95625ZM92.40938 23.471874L92.40938 28.05L94.34688 28.05Q94.53438 28.05 94.59688 28.128124Q94.675 28.190624 94.675 28.3Q94.675 28.409374 94.59688 28.4875Q94.53438 28.55 94.34688 28.55L89.9875 28.55Q89.81563 28.55 89.7375 28.4875Q89.65938 28.409374 89.65938 28.3Q89.65938 28.190624 89.7375 28.128124Q89.81563 28.05 89.9875 28.05L91.925 28.05L91.925 23.971874L90.4875 23.971874Q90.31563 23.971874 90.22188 23.909374Q90.14375 23.83125 90.14375 23.721874Q90.14375 23.6125 90.22188 23.55Q90.3 23.471874 90.4875 23.471874L92.40938 23.471874ZM101.20625 23.971874L101.20625 23.815624Q101.20625 23.628124 101.26875 23.55Q101.34688 23.471874 101.45625 23.471874Q101.56563 23.471874 101.62813 23.55Q101.70625 23.628124 101.70625 23.815624L101.70625 24.925Q101.69063 25.096874 101.62813 25.175Q101.56563 25.253124 101.45625 25.253124Q101.34688 25.253124 101.28438 25.190624Q101.22188 25.128124 101.20625 24.95625Q101.175 24.55 100.65938 24.175Q100.14375 23.8 99.28438 23.8Q98.175 23.8 97.6125 24.4875Q97.05 25.175 97.05 26.05Q97.05 27.003124 97.675 27.628124Q98.3 28.253124 99.3 28.253124Q99.8625 28.253124 100.45625 28.05Q101.06563 27.83125 101.53438 27.3625Q101.65938 27.2375 101.75313 27.2375Q101.8625 27.2375 101.925 27.315624Q101.9875 27.378124 101.9875 27.471874Q101.9875 27.721874 101.39375 28.1125Q100.44063 28.7375 99.26875 28.7375Q98.08125 28.7375 97.31563 27.9875Q96.55 27.221874 96.55 26.065624Q96.55 24.8625 97.33125 24.08125Q98.1125 23.3 99.3 23.3Q100.44063 23.3 101.20625 23.971874ZM107.56563 28.55L107.56563 27.846874Q106.4875 28.7375 105.26875 28.7375Q104.39375 28.7375 103.89375 28.3Q103.39375 27.846874 103.39375 27.190624Q103.39375 26.4875 104.05 25.95625Q104.70625 25.409374 105.97188 25.409374Q106.3 25.409374 106.69063 25.45625Q107.09688 25.503124 107.56563 25.596874L107.56563 24.8Q107.56563 24.39375 107.19063 24.096874Q106.81563 23.8 106.06563 23.8Q105.4875 23.8 104.45625 24.128124Q104.26875 24.190624 104.22188 24.190624Q104.12813 24.190624 104.05 24.128124Q103.9875 24.05 103.9875 23.940624Q103.9875 23.846874 104.05 23.784374Q104.12813 23.690624 104.70625 23.55Q105.62813 23.3 106.09688 23.3Q107.01875 23.3 107.53438 23.76875Q108.06563 24.221874 108.06563 24.8L108.06563 28.05L108.72188 28.05Q108.90938 28.05 108.97188 28.128124Q109.05 28.190624 109.05 28.3Q109.05 28.409374 108.97188 28.4875Q108.90938 28.55 108.72188 28.55L107.56563 28.55ZM107.56563 26.096874Q107.22188 26.003124 106.83125 25.95625Q106.44063 25.909374 106.01875 25.909374Q104.94063 25.909374 104.34688 26.3625Q103.89375 26.721874 103.89375 27.190624Q103.89375 27.64375 104.2375 27.95625Q104.58125 28.253124 105.25313 28.253124Q105.89375 28.253124 106.44063 28.003124Q106.9875 27.7375 107.56563 27.190624L107.56563 26.096874Z" fill-rule="nonzero"/><path fill="#9e9e9e" d="M23.065624 43.4875L19.8 43.4875L19.8 42.925L22.534374 38.190624L23.565624 38.190624L23.565624 43.003124L23.971874 43.003124Q24.159374 43.003124 24.2375 43.065624Q24.315624 43.128124 24.315624 43.253124Q24.315624 43.346874 24.2375 43.425Q24.159374 43.4875 23.971874 43.4875L23.565624 43.4875L23.565624 45.05L23.971874 45.05Q24.159374 45.05 24.2375 45.128124Q24.315624 45.190624 24.315624 45.3Q24.315624 45.409374 24.2375 45.4875Q24.159374 45.55 23.971874 45.55L22.14375 45.55Q21.971874 45.55 21.89375 45.4875Q21.815624 45.409374 21.815624 45.3Q21.815624 45.190624 21.89375 45.128124Q21.971874 45.05 22.14375 45.05L23.065624 45.05L23.065624 43.4875ZM23.065624 43.003124L23.065624 38.690624L22.815624 38.690624L20.315624 43.003124L23.065624 43.003124ZM29.05 44.14375L29.253124 44.14375Q29.58125 44.14375 29.815624 44.378124Q30.05 44.596874 30.05 44.925Q30.05 45.26875 29.815624 45.503124Q29.58125 45.721874 29.253124 45.721874L29.05 45.721874Q28.721874 45.721874 28.4875 45.503124Q28.253124 45.26875 28.253124 44.940624Q28.253124 44.596874 28.4875 44.378124Q28.721874 44.14375 29.05 44.14375ZM34.034374 45.05L37.815624 45.05L37.815624 44.8625Q37.815624 44.690624 37.878124 44.6125Q37.95625 44.534374 38.065624 44.534374Q38.175 44.534374 38.2375 44.6125Q38.315624 44.690624 38.315624 44.8625L38.315624 45.55L33.55 45.55L33.55 44.815624Q35.05 43.471874 36.471874 42.08125Q37.128124 41.425 37.378124 41.128124Q37.628124 40.815624 37.70625 40.596874Q37.8 40.3625 37.8 40.128124Q37.8 39.4875 37.284374 39.003124Q36.784374 38.51875 36.065624 38.51875Q35.425 38.51875 34.925 38.89375Q34.425 39.253124 34.284374 39.8Q34.2375 39.940624 34.190624 39.9875Q34.128124 40.034374 34.034374 40.034374Q33.925 40.034374 33.8625 39.971874Q33.8 39.909374 33.8 39.815624Q33.8 39.534374 34.096874 39.05Q34.409374 38.565624 34.940624 38.3Q35.4875 38.01875 36.065624 38.01875Q36.9875 38.01875 37.64375 38.659374Q38.3 39.3 38.3 40.1125Q38.3 40.440624 38.190624 40.7375Q38.08125 41.01875 37.815624 41.3625Q37.55 41.690624 36.8625 42.3625Q35.128124 44.08125 34.034374 45.01875L34.034374 45.05ZM43.89375 39.596874Q43.89375 40.221874 43.45625 40.675Q43.01875 41.1125 42.39375 41.1125Q41.784374 41.1125 41.33125 40.675Q40.89375 40.221874 40.89375 39.596874Q40.89375 38.95625 41.33125 38.51875Q41.784374 38.08125 42.39375 38.08125Q43.01875 38.08125 43.45625 38.51875Q43.89375 38.95625 43.89375 39.596874ZM43.55 39.596874Q43.55 39.1125 43.20625 38.76875Q42.878124 38.425 42.39375 38.425Q41.925 38.425 41.58125 38.76875Q41.253124 39.1125 41.253124 39.596874Q41.253124 40.08125 41.58125 40.425Q41.925 40.76875 42.39375 40.76875Q42.878124 40.76875 43.20625 40.425Q43.55 40.08125 43.55 39.596874ZM45.4875 41.3L40.940624 42.784374Q40.846874 42.8 40.815624 42.8Q40.753124 42.8 40.690624 42.753124Q40.64375 42.70625 40.64375 42.628124Q40.64375 42.565624 40.690624 42.51875Q40.721874 42.471874 40.815624 42.440624L45.378124 40.95625Q45.45625 40.940624 45.503124 40.940624Q45.565624 40.940624 45.6125 41.003124Q45.675 41.05 45.675 41.1125Q45.675 41.175 45.628124 41.2375Q45.596874 41.26875 45.4875 41.3ZM45.409374 44.175Q45.409374 44.8 44.971874 45.253124Q44.534374 45.690624 43.909374 45.690624Q43.3 45.690624 42.846874 45.253124Q42.409374 44.8 42.409374 44.175Q42.409374 43.534374 42.846874 43.096874Q43.284374 42.64375 43.909374 42.64375Q44.534374 42.64375 44.971874 43.096874Q45.409374 43.534374 45.409374 44.175ZM45.065624 44.175Q45.065624 43.675 44.721874 43.346874Q44.378124 43.003124 43.909374 43.003124Q43.440624 43.003124 43.096874 43.346874Q42.76875 43.690624 42.76875 44.175Q42.76875 44.659374 43.096874 45.003124Q43.440624 45.33125 43.909374 45.33125Q44.378124 45.33125 44.721874 45.003124Q45.065624 44.659374 45.065624 44.175Z" fill-rule="nonzero"/><path stroke="#757575" stroke-width="1.0" stroke-linecap="butt" d="M18.55 34.05L127.05 34.05L279.29822 28.254366" fill-rule="nonzero"/><path fill="#9e9e9e" d="M281.29822 28.254366C281.29822 27.149797 280.4028 26.254366 279.29822 26.254366C278.19366 26.254366 277.29822 27.149797 277.29822 28.254366C277.29822 29.358936 278.19366 30.254366 279.29822 30.254366C280.4028 30.254366 281.29822 29.358936 281.29822 28.254366" fill-rule="nonzero"/><path fill="#ffffff" d="M24.565624 159.29822L23.925 159.29822L20.3 153.1576L20.3 158.79822L21.20625 158.79822Q21.39375 158.79822 21.471874 158.87634Q21.55 158.93884 21.55 159.04822Q21.55 159.1576 21.471874 159.23572Q21.39375 159.29822 21.20625 159.29822L19.39375 159.29822Q19.221874 159.29822 19.14375 159.23572Q19.065624 159.1576 19.065624 159.04822Q19.065624 158.93884 19.14375 158.87634Q19.221874 158.79822 19.39375 158.79822L19.815624 158.79822L19.815624 152.93884L19.14375 152.93884Q18.971874 152.93884 18.89375 152.87634Q18.815624 152.79822 18.815624 152.68884Q18.815624 152.57947 18.89375 152.51697Q18.971874 152.43884 19.14375 152.43884L20.440624 152.43884L24.065624 158.5951L24.065624 152.93884L23.159374 152.93884Q22.9875 152.93884 22.909374 152.87634Q22.83125 152.79822 22.83125 152.68884Q22.83125 152.57947 22.909374 152.51697Q22.9875 152.43884 23.159374 152.43884L24.971874 152.43884Q25.159374 152.43884 25.221874 152.51697Q25.3 152.57947 25.3 152.68884Q25.3 152.79822 25.221874 152.87634Q25.159374 152.93884 24.971874 152.93884L24.565624 152.93884L24.565624 159.29822ZM31.909374 156.76697Q31.909374 157.89197 31.096874 158.68884Q30.284374 159.48572 29.159374 159.48572Q28.003124 159.48572 27.190624 158.68884Q26.39375 157.89197 26.39375 156.76697Q26.39375 155.64197 27.190624 154.8451Q28.003124 154.04822 29.159374 154.04822Q30.284374 154.04822 31.096874 154.8451Q31.909374 155.64197 31.909374 156.76697ZM31.409374 156.76697Q31.409374 155.8451 30.7375 155.20447Q30.08125 154.54822 29.14375 154.54822Q28.20625 154.54822 27.55 155.20447Q26.89375 155.8451 26.89375 156.76697Q26.89375 157.68884 27.55 158.3451Q28.20625 159.00134 29.14375 159.00134Q30.08125 159.00134 30.7375 158.3451Q31.409374 157.68884 31.409374 156.76697ZM35.565624 154.2201L35.565624 155.4701Q36.51875 154.5951 36.9875 154.3451Q37.471874 154.0951 37.878124 154.0951Q38.315624 154.0951 38.690624 154.39197Q39.08125 154.68884 39.08125 154.8451Q39.08125 154.95447 39.003124 155.0326Q38.925 155.0951 38.815624 155.0951Q38.76875 155.0951 38.721874 155.07947Q38.675 155.06384 38.565624 154.95447Q38.3625 154.75134 38.20625 154.67322Q38.065624 154.5951 37.909374 154.5951Q37.596874 154.5951 37.128124 154.86072Q36.675 155.11072 35.565624 156.11072L35.565624 158.79822L37.7375 158.79822Q37.925 158.79822 38.003124 158.87634Q38.08125 158.93884 38.08125 159.04822Q38.08125 159.1576 38.003124 159.23572Q37.925 159.29822 37.7375 159.29822L33.878124 159.29822Q33.70625 159.29822 33.628124 159.23572Q33.55 159.1576 33.55 159.06384Q33.55 158.95447 33.628124 158.89197Q33.70625 158.82947 33.878124 158.82947L35.065624 158.82947L35.065624 154.7201L34.159374 154.7201Q33.9875 154.7201 33.909374 154.6576Q33.83125 154.57947 33.83125 154.4701Q33.83125 154.36072 33.909374 154.29822Q33.9875 154.2201 34.159374 154.2201L35.565624 154.2201ZM42.14375 154.2201L44.815624 154.2201Q44.9875 154.2201 45.065624 154.29822Q45.14375 154.36072 45.14375 154.4701Q45.14375 154.57947 45.065624 154.6576Q44.9875 154.7201 44.815624 154.7201L42.14375 154.7201L42.14375 158.00134Q42.14375 158.42322 42.4875 158.7201Q42.83125 159.00134 43.4875 159.00134Q43.9875 159.00134 44.565624 158.86072Q45.14375 158.70447 45.471874 158.51697Q45.58125 158.43884 45.659374 158.43884Q45.753124 158.43884 45.815624 158.51697Q45.89375 158.57947 45.89375 158.68884Q45.89375 158.76697 45.815624 158.8451Q45.628124 159.0326 44.909374 159.26697Q44.190624 159.48572 43.51875 159.48572Q42.659374 159.48572 42.14375 159.0951Q41.64375 158.68884 41.64375 158.00134L41.64375 154.7201L40.7375 154.7201Q40.565624 154.7201 40.4875 154.6576Q40.409374 154.57947 40.409374 154.4701Q40.409374 154.36072 40.4875 154.29822Q40.565624 154.2201 40.7375 154.2201L41.64375 154.2201L41.64375 152.76697Q41.64375 152.5951 41.70625 152.51697Q41.784374 152.43884 41.89375 152.43884Q42.003124 152.43884 42.065624 152.51697Q42.14375 152.5951 42.14375 152.76697L42.14375 154.2201ZM48.534374 151.93884L48.534374 154.9701Q49.003124 154.4701 49.425 154.26697Q49.8625 154.04822 50.39375 154.04822Q50.971874 154.04822 51.3625 154.25134Q51.76875 154.45447 52.034374 154.87634Q52.315624 155.2826 52.315624 155.75134L52.315624 158.79822L52.8625 158.79822Q53.05 158.79822 53.1125 158.87634Q53.190624 158.93884 53.190624 159.04822Q53.190624 159.1576 53.1125 159.23572Q53.05 159.29822 52.8625 159.29822L51.26875 159.29822Q51.08125 159.29822 51.003124 159.23572Q50.925 159.1576 50.925 159.04822Q50.925 158.93884 51.003124 158.87634Q51.08125 158.79822 51.26875 158.79822L51.815624 158.79822L51.815624 155.7826Q51.815624 155.25134 51.425 154.89197Q51.05 154.5326 50.3625 154.5326Q49.815624 154.5326 49.440624 154.79822Q49.159374 154.98572 48.534374 155.68884L48.534374 158.79822L49.08125 158.79822Q49.26875 158.79822 49.33125 158.87634Q49.409374 158.93884 49.409374 159.04822Q49.409374 159.1576 49.33125 159.23572Q49.26875 159.29822 49.08125 159.29822L47.4875 159.29822Q47.3 159.29822 47.221874 159.23572Q47.159374 159.1576 47.159374 159.04822Q47.159374 158.93884 47.221874 158.87634Q47.3 158.79822 47.4875 158.79822L48.034374 158.79822L48.034374 152.43884L47.378124 152.43884Q47.20625 152.43884 47.128124 152.37634Q47.05 152.29822 47.05 152.18884Q47.05 152.07947 47.128124 152.01697Q47.20625 151.93884 47.378124 151.93884L48.534374 151.93884ZM65.76875 157.00134L62.534374 157.00134L61.878124 158.79822L62.815624 158.79822Q62.9875 158.79822 63.065624 158.87634Q63.14375 158.93884 63.14375 159.04822Q63.14375 159.1576 63.065624 159.23572Q62.9875 159.29822 62.815624 159.29822L60.971874 159.29822Q60.8 159.29822 60.721874 159.23572Q60.64375 159.1576 60.64375 159.04822Q60.64375 158.93884 60.721874 158.87634Q60.8 158.79822 60.971874 158.79822L61.3625 158.79822L63.534374 152.93884L62.08125 152.93884Q61.909374 152.93884 61.83125 152.87634Q61.753124 152.79822 61.753124 152.68884Q61.753124 152.57947 61.83125 152.51697Q61.909374 152.43884 62.08125 152.43884L64.56563 152.43884L66.95625 158.79822L67.34688 158.79822Q67.51875 158.79822 67.59688 158.87634Q67.675 158.93884 67.675 159.04822Q67.675 159.1576 67.59688 159.23572Q67.51875 159.29822 67.34688 159.29822L65.50313 159.29822Q65.33125 159.29822 65.25313 159.23572Q65.175 159.1576 65.175 159.04822Q65.175 158.93884 65.25313 158.87634Q65.33125 158.79822 65.50313 158.79822L66.44063 158.79822L65.76875 157.00134ZM65.58125 156.51697L64.22188 152.93884L64.05 152.93884L62.721874 156.51697L65.58125 156.51697ZM68.90938 154.2201L68.90938 154.7201Q69.53438 154.04822 70.175 154.04822Q70.55 154.04822 70.83125 154.25134Q71.12813 154.45447 71.31563 154.86072Q71.64375 154.45447 71.97188 154.25134Q72.31563 154.04822 72.65938 154.04822Q73.19063 154.04822 73.50313 154.39197Q73.925 154.8451 73.925 155.36072L73.925 158.79822L74.34688 158.79822Q74.51875 158.79822 74.59688 158.87634Q74.675 158.93884 74.675 159.04822Q74.675 159.1576 74.59688 159.23572Q74.51875 159.29822 74.34688 159.29822L73.44063 159.29822L73.44063 155.4076Q73.44063 155.0326 73.20625 154.79822Q72.97188 154.54822 72.675 154.54822Q72.40938 154.54822 72.1125 154.75134Q71.81563 154.95447 71.425 155.54822L71.425 158.79822L71.84688 158.79822Q72.01875 158.79822 72.09688 158.87634Q72.175 158.93884 72.175 159.04822Q72.175 159.1576 72.09688 159.23572Q72.01875 159.29822 71.84688 159.29822L70.925 159.29822L70.925 155.45447Q70.925 155.04822 70.69063 154.79822Q70.47188 154.54822 70.175 154.54822Q69.925 154.54822 69.65938 154.7201Q69.3 154.95447 68.90938 155.54822L68.90938 158.79822L69.33125 158.79822Q69.50313 158.79822 69.58125 158.87634Q69.65938 158.93884 69.65938 159.04822Q69.65938 159.1576 69.58125 159.23572Q69.50313 159.29822 69.33125 159.29822L68.00313 159.29822Q67.83125 159.29822 67.75313 159.23572Q67.675 159.1576 67.675 159.04822Q67.675 158.93884 67.75313 158.87634Q67.83125 158.79822 68.00313 158.79822L68.425 158.79822L68.425 154.7201L68.00313 154.7201Q67.83125 154.7201 67.75313 154.6576Q67.675 154.57947 67.675 154.4701Q67.675 154.36072 67.75313 154.29822Q67.83125 154.2201 68.00313 154.2201L68.90938 154.2201ZM80.81563 156.87634L75.8 156.87634Q75.925 157.82947 76.59688 158.42322Q77.26875 159.00134 78.25313 159.00134Q78.81563 159.00134 79.40938 158.82947Q80.01875 158.64197 80.39375 158.32947Q80.50313 158.25134 80.59688 158.25134Q80.69063 158.25134 80.75313 158.32947Q80.83125 158.39197 80.83125 158.50134Q80.83125 158.5951 80.7375 158.68884Q80.45625 158.98572 79.7375 159.23572Q79.01875 159.48572 78.25313 159.48572Q76.9875 159.48572 76.14375 158.6576Q75.3 157.82947 75.3 156.6576Q75.3 155.57947 76.09688 154.81384Q76.89375 154.04822 78.06563 154.04822Q79.26875 154.04822 80.05 154.8451Q80.83125 155.62634 80.81563 156.87634ZM80.31563 156.37634Q80.175 155.56384 79.55 155.06384Q78.925 154.54822 78.06563 154.54822Q77.20625 154.54822 76.58125 155.04822Q75.95625 155.54822 75.8 156.37634L80.31563 156.37634ZM84.56563 154.2201L84.56563 155.4701Q85.51875 154.5951 85.9875 154.3451Q86.47188 154.0951 86.87813 154.0951Q87.31563 154.0951 87.69063 154.39197Q88.08125 154.68884 88.08125 154.8451Q88.08125 154.95447 88.00313 155.0326Q87.925 155.0951 87.81563 155.0951Q87.76875 155.0951 87.72188 155.07947Q87.675 155.06384 87.56563 154.95447Q87.3625 154.75134 87.20625 154.67322Q87.06563 154.5951 86.90938 154.5951Q86.59688 154.5951 86.12813 154.86072Q85.675 155.11072 84.56563 156.11072L84.56563 158.79822L86.7375 158.79822Q86.925 158.79822 87.00313 158.87634Q87.08125 158.93884 87.08125 159.04822Q87.08125 159.1576 87.00313 159.23572Q86.925 159.29822 86.7375 159.29822L82.87813 159.29822Q82.70625 159.29822 82.62813 159.23572Q82.55 159.1576 82.55 159.06384Q82.55 158.95447 82.62813 158.89197Q82.70625 158.82947 82.87813 158.82947L84.06563 158.82947L84.06563 154.7201L83.15938 154.7201Q82.9875 154.7201 82.90938 154.6576Q82.83125 154.57947 82.83125 154.4701Q82.83125 154.36072 82.90938 154.29822Q82.9875 154.2201 83.15938 154.2201L84.56563 154.2201ZM92.39375 151.70447L92.39375 152.9701L91.675 152.9701L91.675 151.70447L92.39375 151.70447ZM92.40938 154.2201L92.40938 158.79822L94.34688 158.79822Q94.53438 158.79822 94.59688 158.87634Q94.675 158.93884 94.675 159.04822Q94.675 159.1576 94.59688 159.23572Q94.53438 159.29822 94.34688 159.29822L89.9875 159.29822Q89.81563 159.29822 89.7375 159.23572Q89.65938 159.1576 89.65938 159.04822Q89.65938 158.93884 89.7375 158.87634Q89.81563 158.79822 89.9875 158.79822L91.925 158.79822L91.925 154.7201L90.4875 154.7201Q90.31563 154.7201 90.22188 154.6576Q90.14375 154.57947 90.14375 154.4701Q90.14375 154.36072 90.22188 154.29822Q90.3 154.2201 90.4875 154.2201L92.40938 154.2201ZM101.20625 154.7201L101.20625 154.56384Q101.20625 154.37634 101.26875 154.29822Q101.34688 154.2201 101.45625 154.2201Q101.56563 154.2201 101.62813 154.29822Q101.70625 154.37634 101.70625 154.56384L101.70625 155.67322Q101.69063 155.8451 101.62813 155.92322Q101.56563 156.00134 101.45625 156.00134Q101.34688 156.00134 101.28438 155.93884Q101.22188 155.87634 101.20625 155.70447Q101.175 155.29822 100.65938 154.92322Q100.14375 154.54822 99.28438 154.54822Q98.175 154.54822 97.6125 155.23572Q97.05 155.92322 97.05 156.79822Q97.05 157.75134 97.675 158.37634Q98.3 159.00134 99.3 159.00134Q99.8625 159.00134 100.45625 158.79822Q101.06563 158.57947 101.53438 158.11072Q101.65938 157.98572 101.75313 157.98572Q101.8625 157.98572 101.925 158.06384Q101.9875 158.12634 101.9875 158.2201Q101.9875 158.4701 101.39375 158.86072Q100.44063 159.48572 99.26875 159.48572Q98.08125 159.48572 97.31563 158.73572Q96.55 157.9701 96.55 156.81384Q96.55 155.61072 97.33125 154.82947Q98.1125 154.04822 99.3 154.04822Q100.44063 154.04822 101.20625 154.7201ZM107.56563 159.29822L107.56563 158.5951Q106.4875 159.48572 105.26875 159.48572Q104.39375 159.48572 103.89375 159.04822Q103.39375 158.5951 103.39375 157.93884Q103.39375 157.23572 104.05 156.70447Q104.70625 156.1576 105.97188 156.1576Q106.3 156.1576 106.69063 156.20447Q107.09688 156.25134 107.56563 156.3451L107.56563 155.54822Q107.56563 155.14197 107.19063 154.8451Q106.81563 154.54822 106.06563 154.54822Q105.4875 154.54822 104.45625 154.87634Q104.26875 154.93884 104.22188 154.93884Q104.12813 154.93884 104.05 154.87634Q103.9875 154.79822 103.9875 154.68884Q103.9875 154.5951 104.05 154.5326Q104.12813 154.43884 104.70625 154.29822Q105.62813 154.04822 106.09688 154.04822Q107.01875 154.04822 107.53438 154.51697Q108.06563 154.9701 108.06563 155.54822L108.06563 158.79822L108.72188 158.79822Q108.90938 158.79822 108.97188 158.87634Q109.05 158.93884 109.05 159.04822Q109.05 159.1576 108.97188 159.23572Q108.90938 159.29822 108.72188 159.29822L107.56563 159.29822ZM107.56563 156.8451Q107.22188 156.75134 106.83125 156.70447Q106.44063 156.6576 106.01875 156.6576Q104.94063 156.6576 104.34688 157.11072Q103.89375 157.4701 103.89375 157.93884Q103.89375 158.39197 104.2375 158.70447Q104.58125 159.00134 105.25313 159.00134Q105.89375 159.00134 106.44063 158.75134Q106.9875 158.48572 107.56563 157.93884L107.56563 156.8451Z" fill-rule="nonzero"/><path fill="#9e9e9e" d="M23.159374 172.29822Q23.846874 172.5951 24.190624 173.12634Q24.55 173.6576 24.55 174.23572Q24.55 175.12634 23.83125 175.79822Q23.128124 176.4701 22.05 176.4701Q21.409374 176.4701 20.721874 176.20447Q20.05 175.93884 19.784374 175.6576Q19.690624 175.56384 19.690624 175.45447Q19.690624 175.36072 19.753124 175.29822Q19.83125 175.2201 19.925 175.2201Q20.01875 175.2201 20.128124 175.31384Q21.034374 175.98572 22.05 175.98572Q22.909374 175.98572 23.4875 175.45447Q24.065624 174.9076 24.065624 174.25134Q24.065624 173.81384 23.784374 173.39197Q23.503124 172.9701 22.95625 172.73572Q22.425 172.48572 21.878124 172.48572Q21.70625 172.48572 21.628124 172.42322Q21.55 172.3451 21.55 172.23572Q21.55 172.12634 21.628124 172.06384Q21.70625 171.98572 21.846874 171.98572L22.26875 172.00134Q22.940624 172.00134 23.3625 171.5951Q23.8 171.18884 23.8 170.6576Q23.8 170.11072 23.346874 169.68884Q22.89375 169.26697 22.159374 169.26697Q21.659374 169.26697 21.221874 169.43884Q20.8 169.61072 20.55 169.92322Q20.45625 170.0326 20.39375 170.06384Q20.346874 170.07947 20.284374 170.07947Q20.190624 170.07947 20.1125 170.01697Q20.05 169.95447 20.05 169.86072Q20.05 169.62634 20.55 169.26697Q21.26875 168.76697 22.159374 168.76697Q23.096874 168.76697 23.690624 169.32947Q24.3 169.89197 24.3 170.6576Q24.3 171.1576 24.003124 171.5951Q23.721874 172.0326 23.159374 172.29822ZM30.8 169.6576L30.8 169.43884L27.284374 169.43884L27.284374 169.87634Q27.284374 170.04822 27.20625 170.12634Q27.14375 170.20447 27.034374 170.20447Q26.925 170.20447 26.846874 170.12634Q26.784374 170.04822 26.784374 169.87634L26.784374 168.93884L31.3 168.93884L31.3 169.73572L29.33125 176.06384Q29.284374 176.20447 29.20625 176.26697Q29.14375 176.31384 29.065624 176.31384Q28.95625 176.31384 28.878124 176.25134Q28.815624 176.17322 28.815624 176.07947Q28.815624 176.01697 28.8625 175.9076L30.8 169.6576ZM36.05 174.89197L36.253124 174.89197Q36.58125 174.89197 36.815624 175.12634Q37.05 175.3451 37.05 175.67322Q37.05 176.01697 36.815624 176.25134Q36.58125 176.4701 36.253124 176.4701L36.05 176.4701Q35.721874 176.4701 35.4875 176.25134Q35.253124 176.01697 35.253124 175.68884Q35.253124 175.3451 35.4875 175.12634Q35.721874 174.89197 36.05 174.89197ZM41.8 169.43884L41.8 171.8451Q42.221874 171.67322 42.6125 171.57947Q43.01875 171.48572 43.378124 171.48572Q44.315624 171.48572 44.925 172.14197Q45.55 172.7826 45.55 173.8451Q45.55 175.01697 44.846874 175.75134Q44.14375 176.4701 43.096874 176.4701Q42.39375 176.4701 41.753124 176.1576Q41.3 175.93884 40.925 175.62634Q40.70625 175.42322 40.70625 175.29822Q40.70625 175.18884 40.76875 175.12634Q40.846874 175.04822 40.940624 175.04822Q41.034374 175.04822 41.14375 175.1576Q42.034374 175.98572 43.065624 175.98572Q43.940624 175.98572 44.503124 175.39197Q45.065624 174.79822 45.065624 173.82947Q45.065624 172.98572 44.565624 172.48572Q44.08125 171.98572 43.33125 171.98572Q42.565624 171.98572 41.8 172.37634Q41.6125 172.4701 41.534374 172.4701Q41.425 172.4701 41.3625 172.4076Q41.3 172.32947 41.3 172.20447L41.3 168.93884L44.7375 168.93884Q44.909374 168.93884 44.9875 169.01697Q45.065624 169.07947 45.065624 169.18884Q45.065624 169.29822 44.9875 169.37634Q44.909374 169.43884 44.7375 169.43884L41.8 169.43884ZM50.89375 170.3451Q50.89375 170.9701 50.45625 171.42322Q50.01875 171.86072 49.39375 171.86072Q48.784374 171.86072 48.33125 171.42322Q47.89375 170.9701 47.89375 170.3451Q47.89375 169.70447 48.33125 169.26697Q48.784374 168.82947 49.39375 168.82947Q50.01875 168.82947 50.45625 169.26697Q50.89375 169.70447 50.89375 170.3451ZM50.55 170.3451Q50.55 169.86072 50.20625 169.51697Q49.878124 169.17322 49.39375 169.17322Q48.925 169.17322 48.58125 169.51697Q48.253124 169.86072 48.253124 170.3451Q48.253124 170.82947 48.58125 171.17322Q48.925 171.51697 49.39375 171.51697Q49.878124 171.51697 50.20625 171.17322Q50.55 170.82947 50.55 170.3451ZM52.4875 172.04822L47.940624 173.5326Q47.846874 173.54822 47.815624 173.54822Q47.753124 173.54822 47.690624 173.50134Q47.64375 173.45447 47.64375 173.37634Q47.64375 173.31384 47.690624 173.26697Q47.721874 173.2201 47.815624 173.18884L52.378124 171.70447Q52.45625 171.68884 52.503124 171.68884Q52.565624 171.68884 52.6125 171.75134Q52.675 171.79822 52.675 171.86072Q52.675 171.92322 52.628124 171.98572Q52.596874 172.01697 52.4875 172.04822ZM52.409374 174.92322Q52.409374 175.54822 51.971874 176.00134Q51.534374 176.43884 50.909374 176.43884Q50.3 176.43884 49.846874 176.00134Q49.409374 175.54822 49.409374 174.92322Q49.409374 174.2826 49.846874 173.8451Q50.284374 173.39197 50.909374 173.39197Q51.534374 173.39197 51.971874 173.8451Q52.409374 174.2826 52.409374 174.92322ZM52.065624 174.92322Q52.065624 174.42322 51.721874 174.0951Q51.378124 173.75134 50.909374 173.75134Q50.440624 173.75134 50.096874 174.0951Q49.76875 174.43884 49.76875 174.92322Q49.76875 175.4076 50.096874 175.75134Q50.440624 176.07947 50.909374 176.07947Q51.378124 176.07947 51.721874 175.75134Q52.065624 175.4076 52.065624 174.92322Z" fill-rule="nonzero"/><path stroke="#757575" stroke-width="1.0" stroke-linecap="butt" d="M18.55 164.79822L127.05 164.79822L142.75436 164.79822" fill-rule="nonzero"/><path fill="#9e9e9e" d="M144.75436 164.79822C144.75436 163.69365 143.85893 162.79822 142.75436 162.79822C141.6498 162.79822 140.75436 163.69365 140.75436 164.79822C140.75436 165.90279 141.6498 166.79822 142.75436 166.79822C143.85893 166.79822 144.75436 165.90279 144.75436 164.79822" fill-rule="nonzero"/><path fill="#ffffff" d="M541.45 217.73685L541.45 220.54935L545.23126 220.54935L545.23126 219.09622Q545.23126 218.92435 545.29376 218.84622Q545.3719 218.7681 545.48126 218.7681Q545.59064 218.7681 545.65314 218.84622Q545.73126 218.92435 545.73126 219.09622L545.73126 221.04935L540.29376 221.04935Q540.1219 221.04935 540.04376 220.98685Q539.96564 220.90872 539.96564 220.79935Q539.96564 220.68997 540.04376 220.62747Q540.1219 220.54935 540.29376 220.54935L540.95 220.54935L540.95 214.68997L540.29376 214.68997Q540.1219 214.68997 540.04376 214.62747Q539.96564 214.54935 539.96564 214.43997Q539.96564 214.3306 540.04376 214.2681Q540.1219 214.18997 540.29376 214.18997L545.46564 214.18997L545.46564 215.8931Q545.46564 216.06497 545.40314 216.1431Q545.34064 216.22122 545.21564 216.22122Q545.10626 216.22122 545.04376 216.1431Q544.98126 216.06497 544.98126 215.8931L544.98126 214.68997L541.45 214.68997L541.45 217.25247L543.21564 217.25247L543.21564 216.68997Q543.21564 216.5181 543.27814 216.43997Q543.35626 216.36185 543.46564 216.36185Q543.575 216.36185 543.6375 216.43997Q543.71564 216.5181 543.71564 216.68997L543.71564 218.29935Q543.71564 218.47122 543.6375 218.54935Q543.575 218.62747 543.46564 218.62747Q543.35626 218.62747 543.27814 218.54935Q543.21564 218.47122 543.21564 218.29935L543.21564 217.73685L541.45 217.73685ZM551.73126 221.04935L551.73126 220.3306Q550.73126 221.23685 549.5594 221.23685Q548.84064 221.23685 548.46564 220.84622Q547.98126 220.3306 547.98126 219.6431L547.98126 216.47122L547.3094 216.47122Q547.1375 216.47122 547.0594 216.40872Q546.98126 216.3306 546.98126 216.22122Q546.98126 216.11185 547.0594 216.04935Q547.1375 215.97122 547.3094 215.97122L548.46564 215.97122L548.46564 219.6431Q548.46564 220.12747 548.7625 220.43997Q549.075 220.75247 549.52814 220.75247Q550.73126 220.75247 551.73126 219.6431L551.73126 216.47122L550.825 216.47122Q550.65314 216.47122 550.575 216.40872Q550.4969 216.3306 550.4969 216.22122Q550.4969 216.11185 550.575 216.04935Q550.65314 215.97122 550.825 215.97122L552.23126 215.97122L552.23126 220.54935L552.6375 220.54935Q552.825 220.54935 552.8875 220.62747Q552.96564 220.68997 552.96564 220.79935Q552.96564 220.90872 552.8875 220.98685Q552.825 221.04935 552.6375 221.04935L551.73126 221.04935ZM556.46564 215.97122L556.46564 217.22122Q557.41876 216.34622 557.8875 216.09622Q558.3719 215.84622 558.77814 215.84622Q559.21564 215.84622 559.59064 216.1431Q559.98126 216.43997 559.98126 216.59622Q559.98126 216.7056 559.90314 216.78372Q559.825 216.84622 559.71564 216.84622Q559.66876 216.84622 559.6219 216.8306Q559.575 216.81497 559.46564 216.7056Q559.2625 216.50247 559.10626 216.42435Q558.96564 216.34622 558.8094 216.34622Q558.4969 216.34622 558.02814 216.61185Q557.575 216.86185 556.46564 217.86185L556.46564 220.54935L558.6375 220.54935Q558.825 220.54935 558.90314 220.62747Q558.98126 220.68997 558.98126 220.79935Q558.98126 220.90872 558.90314 220.98685Q558.825 221.04935 558.6375 221.04935L554.77814 221.04935Q554.60626 221.04935 554.52814 220.98685Q554.45 220.90872 554.45 220.81497Q554.45 220.7056 554.52814 220.6431Q554.60626 220.5806 554.77814 220.5806L555.96564 220.5806L555.96564 216.47122L555.0594 216.47122Q554.8875 216.47122 554.8094 216.40872Q554.73126 216.3306 554.73126 216.22122Q554.73126 216.11185 554.8094 216.04935Q554.8875 215.97122 555.0594 215.97122L556.46564 215.97122ZM566.8094 218.5181Q566.8094 219.6431 565.9969 220.43997Q565.1844 221.23685 564.0594 221.23685Q562.90314 221.23685 562.09064 220.43997Q561.29376 219.6431 561.29376 218.5181Q561.29376 217.3931 562.09064 216.59622Q562.90314 215.79935 564.0594 215.79935Q565.1844 215.79935 565.9969 216.59622Q566.8094 217.3931 566.8094 218.5181ZM566.3094 218.5181Q566.3094 217.59622 565.6375 216.9556Q564.98126 216.29935 564.04376 216.29935Q563.10626 216.29935 562.45 216.9556Q561.79376 217.59622 561.79376 218.5181Q561.79376 219.43997 562.45 220.09622Q563.10626 220.75247 564.04376 220.75247Q564.98126 220.75247 565.6375 220.09622Q566.3094 219.43997 566.3094 218.5181ZM569.2 215.97122L569.2 216.87747Q569.6375 216.3306 570.1375 216.06497Q570.6375 215.79935 571.325 215.79935Q572.0594 215.79935 572.66876 216.1431Q573.29376 216.47122 573.6219 217.0806Q573.96564 217.68997 573.96564 218.36185Q573.96564 219.42435 573.2 220.17435Q572.45 220.92435 571.34064 220.92435Q570.0125 220.92435 569.2 219.84622L569.2 222.81497L570.3875 222.81497Q570.575 222.81497 570.6375 222.87747Q570.71564 222.9556 570.71564 223.06497Q570.71564 223.17435 570.6375 223.23685Q570.575 223.31497 570.3875 223.31497L568.04376 223.31497Q567.8719 223.31497 567.79376 223.23685Q567.71564 223.17435 567.71564 223.06497Q567.71564 222.9556 567.79376 222.87747Q567.8719 222.81497 568.04376 222.81497L568.7 222.81497L568.7 216.47122L568.04376 216.47122Q567.8719 216.47122 567.79376 216.40872Q567.71564 216.3306 567.71564 216.22122Q567.71564 216.11185 567.79376 216.04935Q567.8719 215.97122 568.04376 215.97122L569.2 215.97122ZM573.46564 218.36185Q573.46564 217.50247 572.84064 216.90872Q572.23126 216.29935 571.34064 216.29935Q570.4344 216.29935 569.8094 216.90872Q569.2 217.5181 569.2 218.36185Q569.2 219.2056 569.8094 219.81497Q570.4344 220.42435 571.34064 220.42435Q572.21564 220.42435 572.84064 219.8306Q573.46564 219.22122 573.46564 218.36185ZM580.71564 218.62747L575.7 218.62747Q575.825 219.5806 576.4969 220.17435Q577.16876 220.75247 578.15314 220.75247Q578.71564 220.75247 579.3094 220.5806Q579.91876 220.3931 580.29376 220.0806Q580.40314 220.00247 580.4969 220.00247Q580.59064 220.00247 580.65314 220.0806Q580.73126 220.1431 580.73126 220.25247Q580.73126 220.34622 580.6375 220.43997Q580.35626 220.73685 579.6375 220.98685Q578.91876 221.23685 578.15314 221.23685Q576.8875 221.23685 576.04376 220.40872Q575.2 219.5806 575.2 218.40872Q575.2 217.3306 575.9969 216.56497Q576.79376 215.79935 577.96564 215.79935Q579.16876 215.79935 579.95 216.59622Q580.73126 217.37747 580.71564 218.62747ZM580.21564 218.12747Q580.075 217.31497 579.45 216.81497Q578.825 216.29935 577.96564 216.29935Q577.10626 216.29935 576.48126 216.79935Q575.85626 217.29935 575.7 218.12747L580.21564 218.12747Z" fill-rule="nonzero"/><path fill="#9e9e9e" d="M548.7 231.18997L548.7 233.59622Q549.1219 233.42435 549.5125 233.3306Q549.91876 233.23685 550.27814 233.23685Q551.21564 233.23685 551.825 233.8931Q552.45 234.53372 552.45 235.59622Q552.45 236.7681 551.7469 237.50247Q551.04376 238.22122 549.9969 238.22122Q549.29376 238.22122 548.65314 237.90872Q548.2 237.68997 547.825 237.37747Q547.60626 237.17435 547.60626 237.04935Q547.60626 236.93997 547.66876 236.87747Q547.7469 236.79935 547.84064 236.79935Q547.9344 236.79935 548.04376 236.90872Q548.9344 237.73685 549.96564 237.73685Q550.84064 237.73685 551.40314 237.1431Q551.96564 236.54935 551.96564 235.5806Q551.96564 234.73685 551.46564 234.23685Q550.98126 233.73685 550.23126 233.73685Q549.46564 233.73685 548.7 234.12747Q548.5125 234.22122 548.4344 234.22122Q548.325 234.22122 548.2625 234.15872Q548.2 234.0806 548.2 233.9556L548.2 230.68997L551.6375 230.68997Q551.8094 230.68997 551.8875 230.7681Q551.96564 230.8306 551.96564 230.93997Q551.96564 231.04935 551.8875 231.12747Q551.8094 231.18997 551.6375 231.18997L548.7 231.18997ZM558.0594 234.23685Q558.6844 234.53372 558.9969 235.03372Q559.3094 235.5181 559.3094 236.0806Q559.3094 236.93997 558.65314 237.5806Q557.9969 238.22122 557.0594 238.22122Q556.1219 238.22122 555.46564 237.5806Q554.8094 236.93997 554.8094 236.0806Q554.8094 235.5181 555.1219 235.03372Q555.4344 234.53372 556.0594 234.23685Q555.5125 233.92435 555.2625 233.59622Q554.9344 233.11185 554.9344 232.53372Q554.9344 231.73685 555.54376 231.12747Q556.16876 230.5181 557.0594 230.5181Q557.9344 230.5181 558.5594 231.12747Q559.1844 231.73685 559.1844 232.53372Q559.1844 233.11185 558.84064 233.5806Q558.60626 233.92435 558.0594 234.23685ZM558.6844 232.56497Q558.6844 231.92435 558.2 231.47122Q557.73126 231.0181 557.04376 231.0181Q556.3719 231.0181 555.8875 231.47122Q555.41876 231.92435 555.41876 232.54935Q555.41876 233.12747 555.8875 233.56497Q556.35626 233.98685 557.04376 233.98685Q557.7469 233.98685 558.21564 233.56497Q558.6844 233.12747 558.6844 232.56497ZM558.8094 236.0806Q558.8094 235.43997 558.3094 234.9556Q557.8094 234.47122 557.0594 234.47122Q556.3094 234.47122 555.79376 234.9556Q555.29376 235.43997 555.29376 236.0806Q555.29376 236.75247 555.79376 237.25247Q556.3094 237.73685 557.0594 237.73685Q557.79376 237.73685 558.29376 237.25247Q558.8094 236.75247 558.8094 236.0806ZM563.95 236.6431L564.15314 236.6431Q564.48126 236.6431 564.71564 236.87747Q564.95 237.09622 564.95 237.42435Q564.95 237.7681 564.71564 238.00247Q564.48126 238.22122 564.15314 238.22122L563.95 238.22122Q563.6219 238.22122 563.3875 238.00247Q563.15314 237.7681 563.15314 237.43997Q563.15314 237.09622 563.3875 236.87747Q563.6219 236.6431 563.95 236.6431ZM572.0594 234.04935Q572.7469 234.34622 573.09064 234.87747Q573.45 235.40872 573.45 235.98685Q573.45 236.87747 572.73126 237.54935Q572.02814 238.22122 570.95 238.22122Q570.3094 238.22122 569.6219 237.9556Q568.95 237.68997 568.6844 237.40872Q568.59064 237.31497 568.59064 237.2056Q568.59064 237.11185 568.65314 237.04935Q568.73126 236.97122 568.825 236.97122Q568.91876 236.97122 569.02814 237.06497Q569.9344 237.73685 570.95 237.73685Q571.8094 237.73685 572.3875 237.2056Q572.96564 236.65872 572.96564 236.00247Q572.96564 235.56497 572.6844 235.1431Q572.40314 234.72122 571.85626 234.48685Q571.325 234.23685 570.77814 234.23685Q570.60626 234.23685 570.52814 234.17435Q570.45 234.09622 570.45 233.98685Q570.45 233.87747 570.52814 233.81497Q570.60626 233.73685 570.7469 233.73685L571.16876 233.75247Q571.84064 233.75247 572.2625 233.34622Q572.7 232.93997 572.7 232.40872Q572.7 231.86185 572.2469 231.43997Q571.79376 231.0181 571.0594 231.0181Q570.5594 231.0181 570.1219 231.18997Q569.7 231.36185 569.45 231.67435Q569.35626 231.78372 569.29376 231.81497Q569.2469 231.8306 569.1844 231.8306Q569.09064 231.8306 569.0125 231.7681Q568.95 231.7056 568.95 231.61185Q568.95 231.37747 569.45 231.0181Q570.16876 230.5181 571.0594 230.5181Q571.9969 230.5181 572.59064 231.0806Q573.2 231.6431 573.2 232.40872Q573.2 232.90872 572.90314 233.34622Q572.6219 233.78372 572.0594 234.04935ZM578.79376 232.09622Q578.79376 232.72122 578.35626 233.17435Q577.91876 233.61185 577.29376 233.61185Q576.6844 233.61185 576.23126 233.17435Q575.79376 232.72122 575.79376 232.09622Q575.79376 231.4556 576.23126 231.0181Q576.6844 230.5806 577.29376 230.5806Q577.91876 230.5806 578.35626 231.0181Q578.79376 231.4556 578.79376 232.09622ZM578.45 232.09622Q578.45 231.61185 578.10626 231.2681Q577.77814 230.92435 577.29376 230.92435Q576.825 230.92435 576.48126 231.2681Q576.15314 231.61185 576.15314 232.09622Q576.15314 232.5806 576.48126 232.92435Q576.825 233.2681 577.29376 233.2681Q577.77814 233.2681 578.10626 232.92435Q578.45 232.5806 578.45 232.09622ZM580.3875 233.79935L575.84064 235.28372Q575.7469 235.29935 575.71564 235.29935Q575.65314 235.29935 575.59064 235.25247Q575.54376 235.2056 575.54376 235.12747Q575.54376 235.06497 575.59064 235.0181Q575.6219 234.97122 575.71564 234.93997L580.27814 233.4556Q580.35626 233.43997 580.40314 233.43997Q580.46564 233.43997 580.5125 233.50247Q580.575 233.54935 580.575 233.61185Q580.575 233.67435 580.52814 233.73685Q580.4969 233.7681 580.3875 233.79935ZM580.3094 236.67435Q580.3094 237.29935 579.8719 237.75247Q579.4344 238.18997 578.8094 238.18997Q578.2 238.18997 577.7469 237.75247Q577.3094 237.29935 577.3094 236.67435Q577.3094 236.03372 577.7469 235.59622Q578.1844 235.1431 578.8094 235.1431Q579.4344 235.1431 579.8719 235.59622Q580.3094 236.03372 580.3094 236.67435ZM579.96564 236.67435Q579.96564 236.17435 579.6219 235.84622Q579.27814 235.50247 578.8094 235.50247Q578.34064 235.50247 577.9969 235.84622Q577.66876 236.18997 577.66876 236.67435Q577.66876 237.15872 577.9969 237.50247Q578.34064 237.8306 578.8094 237.8306Q579.27814 237.8306 579.6219 237.50247Q579.96564 237.15872 579.96564 236.67435Z" fill-rule="nonzero"/><path stroke="#757575" stroke-width="1.0" stroke-linecap="butt" d="M581.45 226.54935L472.95 226.54935L453.19824 226.54935" fill-rule="nonzero"/><path fill="#9e9e9e" d="M455.19824 226.54935C455.19824 225.44478 454.30283 224.54935 453.19824 224.54935C452.0937 224.54935 451.19824 225.44478 451.19824 226.54935C451.19824 227.65392 452.0937 228.54935 453.19824 228.54935C454.30283 228.54935 455.19824 227.65392 455.19824 226.54935" fill-rule="nonzero"/></svg>