<svg version="1.1" viewBox="0.0 0.0 600.0 371.0" fill="none" stroke="none" stroke-linecap="square" stroke-miterlimit="10" width="600" height="371" xmlns:xlink="http://www.w3.org/1999/xlink" xmlns="http://www.w3.org/2000/svg"><path fill="#ffffff" fill-opacity="0.0" d="M0 0L600.0 0L600.0 371.0L0 371.0L0 0Z" fill-rule="nonzero"/><path stroke="#333333" stroke-width="1.0" stroke-linecap="butt" d="M122.5 18.5L122.5 332.5" fill-rule="nonzero"/><path stroke="#cccccc" stroke-width="1.0" stroke-linecap="butt" d="M214.5 18.5L214.5 332.5" fill-rule="nonzero"/><path stroke="#cccccc" stroke-width="1.0" stroke-linecap="butt" d="M306.5 18.5L306.5 332.5" fill-rule="nonzero"/><path stroke="#cccccc" stroke-width="1.0" stroke-linecap="butt" d="M397.5 18.5L397.5 332.5" fill-rule="nonzero"/><path stroke="#cccccc" stroke-width="1.0" stroke-linecap="butt" d="M489.5 18.5L489.5 332.5" fill-rule="nonzero"/><path stroke="#cccccc" stroke-width="1.0" stroke-linecap="butt" d="M581.5 18.5L581.5 332.5" fill-rule="nonzero"/><clipPath id="id_0"><path d="M122.55 18.55L581.45 18.55L581.45 332.45L122.55 332.45L122.55 18.55Z" clip-rule="nonzero"/></clipPath><path stroke="#000000" stroke-width="2.0" stroke-linecap="butt" stroke-opacity="0.0" clip-path="url(#id_0)" d="M123.0 61.0L123.0 33.0L579.0 33.0C580.10455 33.0 581.0 33.89543 581.0 35.0L581.0 59.0C581.0 60.10457 580.10455 61.0 579.0 61.0Z" fill-rule="nonzero"/><path fill="#86c06c" clip-path="url(#id_0)" d="M123.0 61.0L123.0 33.0L579.0 33.0C580.10455 33.0 581.0 33.89543 581.0 35.0L581.0 59.0C581.0 60.10457 580.10455 61.0 579.0 61.0Z" fill-rule="nonzero"/><path stroke="#000000" stroke-width="2.0" stroke-linecap="butt" stroke-opacity="0.0" clip-path="url(#id_0)" d="M123.0 104.0L123.0 76.0L350.0 76.0C351.10458 76.0 352.0 76.89543 352.0 78.0L352.0 102.0C352.0 103.10457 351.10458 104.0 350.0 104.0Z" fill-rule="nonzero"/><path fill="#86c06c" clip-path="url(#id_0)" d="M123.0 104.0L123.0 76.0L350.0 76.0C351.10458 76.0 352.0 76.89543 352.0 78.0L352.0 102.0C352.0 103.10457 351.10458 104.0 350.0 104.0Z" fill-rule="nonzero"/><path stroke="#000000" stroke-width="2.0" stroke-linecap="butt" stroke-opacity="0.0" clip-path="url(#id_0)" d="M123.0 147.0L123.0 119.0L304.0 119.0C305.10458 119.0 306.0 119.89543 306.0 121.0L306.0 145.0C306.0 146.10457 305.10458 147.0 304.0 147.0Z" fill-rule="nonzero"/><path fill="#86c06c" clip-path="url(#id_0)" d="M123.0 147.0L123.0 119.0L304.0 119.0C305.10458 119.0 306.0 119.89543 306.0 121.0L306.0 145.0C306.0 146.10457 305.10458 147.0 304.0 147.0Z" fill-rule="nonzero"/><path stroke="#000000" stroke-width="2.0" stroke-linecap="butt" stroke-opacity="0.0" clip-path="url(#id_0)" d="M123.0 189.0L123.0 161.0L212.0 161.0C213.10457 161.0 214.0 161.89543 214.0 163.0L214.0 187.0C214.0 188.10457 213.10457 189.0 212.0 189.0Z" fill-rule="nonzero"/><path fill="#86c06c" clip-path="url(#id_0)" d="M123.0 189.0L123.0 161.0L212.0 161.0C213.10457 161.0 214.0 161.89543 214.0 163.0L214.0 187.0C214.0 188.10457 213.10457 189.0 212.0 189.0Z" fill-rule="nonzero"/><path stroke="#000000" stroke-width="2.0" stroke-linecap="butt" stroke-opacity="0.0" clip-path="url(#id_0)" d="M123.0 232.0L123.0 204.0L212.0 204.0C213.10457 204.0 214.0 204.89543 214.0 206.0L214.0 230.0C214.0 231.10457 213.10457 232.0 212.0 232.0Z" fill-rule="nonzero"/><path fill="#86c06c" clip-path="url(#id_0)" d="M123.0 232.0L123.0 204.0L212.0 204.0C213.10457 204.0 214.0 204.89543 214.0 206.0L214.0 230.0C214.0 231.10457 213.10457 232.0 212.0 232.0Z" fill-rule="nonzero"/><path stroke="#000000" stroke-width="2.0" stroke-linecap="butt" stroke-opacity="0.0" clip-path="url(#id_0)" d="M123.0 275.0L123.0 247.0L212.0 247.0C213.10457 247.0 214.0 247.89543 214.0 249.0L214.0 273.0C214.0 274.10458 213.10457 275.0 212.0 275.0Z" fill-rule="nonzero"/><path fill="#86c06c" clip-path="url(#id_0)" d="M123.0 275.0L123.0 247.0L212.0 247.0C213.10457 247.0 214.0 247.89543 214.0 249.0L214.0 273.0C214.0 274.10458 213.10457 275.0 212.0 275.0Z" fill-rule="nonzero"/><path stroke="#000000" stroke-width="2.0" stroke-linecap="butt" stroke-opacity="0.0" clip-path="url(#id_0)" d="M123.0 318.0L123.0 290.0L166.0 290.0C167.10457 290.0 168.0 290.89542 168.0 292.0L168.0 316.0C168.0 317.10458 167.10457 318.0 166.0 318.0Z" fill-rule="nonzero"/><path fill="#86c06c" clip-path="url(#id_0)" d="M123.0 318.0L123.0 290.0L166.0 290.0C167.10457 290.0 168.0 290.89542 168.0 292.0L168.0 316.0C168.0 317.10458 167.10457 318.0 166.0 318.0Z" fill-rule="nonzero"/><path fill="#ffffff" d="M101.53438 50.377552L96.8 50.377552L96.8 49.658802L100.8 44.049427L100.8 44.018177L97.51875 44.018177L97.51875 45.455677Q97.51875 45.643177 97.44063 45.721302Q97.37813 45.799427 97.26875 45.799427Q97.15938 45.799427 97.08125 45.721302Q97.01875 45.643177 97.01875 45.455677L97.01875 43.518177L101.26875 43.518177L101.26875 44.221302L97.26875 49.830677L97.26875 49.877552L101.05 49.877552L101.05 48.174427Q101.05 47.986927 101.1125 47.908802Q101.175 47.830677 101.3 47.830677Q101.40938 47.830677 101.47188 47.908802Q101.53438 47.986927 101.53438 48.174427L101.53438 50.377552ZM106.39375 42.783802L106.39375 44.049427L105.675 44.049427L105.675 42.783802L106.39375 42.783802ZM106.40938 45.299427L106.40938 49.877552L108.34688 49.877552Q108.53438 49.877552 108.59688 49.955677Q108.675 50.018177 108.675 50.127552Q108.675 50.236927 108.59688 50.315052Q108.53438 50.377552 108.34688 50.377552L103.9875 50.377552Q103.81563 50.377552 103.7375 50.315052Q103.65938 50.236927 103.65938 50.127552Q103.65938 50.018177 103.7375 49.955677Q103.81563 49.877552 103.9875 49.877552L105.925 49.877552L105.925 45.799427L104.4875 45.799427Q104.31563 45.799427 104.22188 45.736927Q104.14375 45.658802 104.14375 45.549427Q104.14375 45.440052 104.22188 45.377552Q104.3 45.299427 104.4875 45.299427L106.40938 45.299427ZM114.8 46.205677L114.8 45.299427L115.95625 45.299427Q116.14375 45.299427 116.20625 45.377552Q116.28438 45.440052 116.28438 45.549427Q116.28438 45.658802 116.20625 45.736927Q116.14375 45.799427 115.95625 45.799427L115.3 45.799427L115.3 50.721302Q115.3 51.205677 115.08125 51.596302Q114.94063 51.861927 114.6125 52.127552Q114.28438 52.408802 114.01875 52.518177Q113.75313 52.643177 113.3 52.643177L111.90938 52.643177Q111.7375 52.643177 111.65938 52.565052Q111.58125 52.502552 111.58125 52.393177Q111.58125 52.283802 111.65938 52.205677Q111.7375 52.143177 111.90938 52.143177L113.31563 52.143177Q113.75313 52.143177 114.09688 51.924427Q114.45625 51.705677 114.675 51.268177Q114.8 51.033802 114.8 50.643177L114.8 49.174427Q114.01875 50.252552 112.76875 50.252552Q111.75313 50.252552 111.01875 49.502552Q110.28438 48.752552 110.28438 47.690052Q110.28438 46.627552 111.01875 45.877552Q111.75313 45.127552 112.76875 45.127552Q114.01875 45.127552 114.8 46.205677ZM114.8 47.690052Q114.8 46.815052 114.20625 46.221302Q113.6125 45.627552 112.78438 45.627552Q111.97188 45.627552 111.37813 46.236927Q110.78438 46.830677 110.78438 47.690052Q110.78438 48.549427 111.37813 49.158802Q111.97188 49.752552 112.78438 49.752552Q113.6125 49.752552 114.20625 49.158802Q114.8 48.549427 114.8 47.690052Z" fill-rule="nonzero"/><path fill="#ffffff" d="M23.76875 90.78816L20.534374 90.78816L19.878124 92.58504L20.815624 92.58504Q20.9875 92.58504 21.065624 92.66316Q21.14375 92.72566 21.14375 92.83504Q21.14375 92.94441 21.065624 93.02254Q20.9875 93.08504 20.815624 93.08504L18.971874 93.08504Q18.8 93.08504 18.721874 93.02254Q18.64375 92.94441 18.64375 92.83504Q18.64375 92.72566 18.721874 92.66316Q18.8 92.58504 18.971874 92.58504L19.3625 92.58504L21.534374 86.72566L20.08125 86.72566Q19.909374 86.72566 19.83125 86.66316Q19.753124 86.58504 19.753124 86.47566Q19.753124 86.36629 19.83125 86.30379Q19.909374 86.22566 20.08125 86.22566L22.565624 86.22566L24.95625 92.58504L25.346874 92.58504Q25.51875 92.58504 25.596874 92.66316Q25.675 92.72566 25.675 92.83504Q25.675 92.94441 25.596874 93.02254Q25.51875 93.08504 25.346874 93.08504L23.503124 93.08504Q23.33125 93.08504 23.253124 93.02254Q23.175 92.94441 23.175 92.83504Q23.175 92.72566 23.253124 92.66316Q23.33125 92.58504 23.503124 92.58504L24.440624 92.58504L23.76875 90.78816ZM23.58125 90.30379L22.221874 86.72566L22.05 86.72566L20.721874 90.30379L23.58125 90.30379ZM30.784374 88.33504Q30.784374 88.16316 30.846874 88.08504Q30.925 88.00691 31.01875 88.00691Q31.128124 88.00691 31.190624 88.08504Q31.26875 88.16316 31.26875 88.35066L31.26875 89.19441Q31.26875 89.36629 31.190624 89.44441Q31.128124 89.52254 31.01875 89.52254Q30.925 89.52254 30.846874 89.46004Q30.784374 89.38191 30.784374 89.24129Q30.7375 88.88191 30.409374 88.66316Q29.940624 88.33504 29.14375 88.33504Q28.315624 88.33504 27.8625 88.66316Q27.51875 88.91316 27.51875 89.22566Q27.51875 89.58504 27.925 89.81941Q28.20625 89.97566 28.9875 90.06941Q30.01875 90.17879 30.409374 90.31941Q30.9875 90.52254 31.253124 90.89754Q31.534374 91.25691 31.534374 91.67879Q31.534374 92.30379 30.925 92.78816Q30.33125 93.27254 29.159374 93.27254Q28.003124 93.27254 27.253124 92.67879Q27.253124 92.88191 27.221874 92.94441Q27.20625 93.00691 27.14375 93.05379Q27.08125 93.08504 27.003124 93.08504Q26.909374 93.08504 26.83125 93.00691Q26.76875 92.92879 26.76875 92.75691L26.76875 91.74129Q26.76875 91.56941 26.83125 91.49129Q26.89375 91.41316 27.003124 91.41316Q27.1125 91.41316 27.190624 91.49129Q27.26875 91.55379 27.26875 91.67879Q27.26875 91.96004 27.39375 92.13191Q27.596874 92.41316 28.05 92.60066Q28.503124 92.78816 29.14375 92.78816Q30.1125 92.78816 30.58125 92.42879Q31.05 92.06941 31.05 91.67879Q31.05 91.21004 30.565624 90.94441Q30.096874 90.66316 29.175 90.56941Q28.253124 90.47566 27.846874 90.33504Q27.45625 90.17879 27.2375 89.88191Q27.01875 89.56941 27.01875 89.21004Q27.01875 88.58504 27.628124 88.21004Q28.253124 87.83504 29.1125 87.83504Q30.14375 87.83504 30.784374 88.33504ZM37.784374 88.33504Q37.784374 88.16316 37.846874 88.08504Q37.925 88.00691 38.01875 88.00691Q38.128124 88.00691 38.190624 88.08504Q38.26875 88.16316 38.26875 88.35066L38.26875 89.19441Q38.26875 89.36629 38.190624 89.44441Q38.128124 89.52254 38.01875 89.52254Q37.925 89.52254 37.846874 89.46004Q37.784374 89.38191 37.784374 89.24129Q37.7375 88.88191 37.409374 88.66316Q36.940624 88.33504 36.14375 88.33504Q35.315624 88.33504 34.8625 88.66316Q34.51875 88.91316 34.51875 89.22566Q34.51875 89.58504 34.925 89.81941Q35.20625 89.97566 35.9875 90.06941Q37.01875 90.17879 37.409374 90.31941Q37.9875 90.52254 38.253124 90.89754Q38.534374 91.25691 38.534374 91.67879Q38.534374 92.30379 37.925 92.78816Q37.33125 93.27254 36.159374 93.27254Q35.003124 93.27254 34.253124 92.67879Q34.253124 92.88191 34.221874 92.94441Q34.20625 93.00691 34.14375 93.05379Q34.08125 93.08504 34.003124 93.08504Q33.909374 93.08504 33.83125 93.00691Q33.76875 92.92879 33.76875 92.75691L33.76875 91.74129Q33.76875 91.56941 33.83125 91.49129Q33.89375 91.41316 34.003124 91.41316Q34.1125 91.41316 34.190624 91.49129Q34.26875 91.55379 34.26875 91.67879Q34.26875 91.96004 34.39375 92.13191Q34.596874 92.41316 35.05 92.60066Q35.503124 92.78816 36.14375 92.78816Q37.1125 92.78816 37.58125 92.42879Q38.05 92.06941 38.05 91.67879Q38.05 91.21004 37.565624 90.94441Q37.096874 90.66316 36.175 90.56941Q35.253124 90.47566 34.846874 90.33504Q34.45625 90.17879 34.2375 89.88191Q34.01875 89.56941 34.01875 89.21004Q34.01875 88.58504 34.628124 88.21004Q35.253124 87.83504 36.1125 87.83504Q37.14375 87.83504 37.784374 88.33504ZM45.815624 90.66316L40.8 90.66316Q40.925 91.61629 41.596874 92.21004Q42.26875 92.78816 43.253124 92.78816Q43.815624 92.78816 44.409374 92.61629Q45.01875 92.42879 45.39375 92.11629Q45.503124 92.03816 45.596874 92.03816Q45.690624 92.03816 45.753124 92.11629Q45.83125 92.17879 45.83125 92.28816Q45.83125 92.38191 45.7375 92.47566Q45.45625 92.77254 44.7375 93.02254Q44.01875 93.27254 43.253124 93.27254Q41.9875 93.27254 41.14375 92.44441Q40.3 91.61629 40.3 90.44441Q40.3 89.36629 41.096874 88.60066Q41.89375 87.83504 43.065624 87.83504Q44.26875 87.83504 45.05 88.63191Q45.83125 89.41316 45.815624 90.66316ZM45.315624 90.16316Q45.175 89.35066 44.55 88.85066Q43.925 88.33504 43.065624 88.33504Q42.20625 88.33504 41.58125 88.83504Q40.95625 89.33504 40.8 90.16316L45.315624 90.16316ZM47.909374 88.00691L47.909374 88.50691Q48.534374 87.83504 49.175 87.83504Q49.55 87.83504 49.83125 88.03816Q50.128124 88.24129 50.315624 88.64754Q50.64375 88.24129 50.971874 88.03816Q51.315624 87.83504 51.659374 87.83504Q52.190624 87.83504 52.503124 88.17879Q52.925 88.63191 52.925 89.14754L52.925 92.58504L53.346874 92.58504Q53.51875 92.58504 53.596874 92.66316Q53.675 92.72566 53.675 92.83504Q53.675 92.94441 53.596874 93.02254Q53.51875 93.08504 53.346874 93.08504L52.440624 93.08504L52.440624 89.19441Q52.440624 88.81941 52.20625 88.58504Q51.971874 88.33504 51.675 88.33504Q51.409374 88.33504 51.1125 88.53816Q50.815624 88.74129 50.425 89.33504L50.425 92.58504L50.846874 92.58504Q51.01875 92.58504 51.096874 92.66316Q51.175 92.72566 51.175 92.83504Q51.175 92.94441 51.096874 93.02254Q51.01875 93.08504 50.846874 93.08504L49.925 93.08504L49.925 89.24129Q49.925 88.83504 49.690624 88.58504Q49.471874 88.33504 49.175 88.33504Q48.925 88.33504 48.659374 88.50691Q48.3 88.74129 47.909374 89.33504L47.909374 92.58504L48.33125 92.58504Q48.503124 92.58504 48.58125 92.66316Q48.659374 92.72566 48.659374 92.83504Q48.659374 92.94441 48.58125 93.02254Q48.503124 93.08504 48.33125 93.08504L47.003124 93.08504Q46.83125 93.08504 46.753124 93.02254Q46.675 92.94441 46.675 92.83504Q46.675 92.72566 46.753124 92.66316Q46.83125 92.58504 47.003124 92.58504L47.425 92.58504L47.425 88.50691L47.003124 88.50691Q46.83125 88.50691 46.753124 88.44441Q46.675 88.36629 46.675 88.25691Q46.675 88.14754 46.753124 88.08504Q46.83125 88.00691 47.003124 88.00691L47.909374 88.00691ZM55.3 85.72566L55.3 88.99129Q56.190624 87.83504 57.440624 87.83504Q58.51875 87.83504 59.284374 88.61629Q60.065624 89.39754 60.065624 90.53816Q60.065624 91.67879 59.284374 92.47566Q58.503124 93.27254 57.440624 93.27254Q56.159374 93.27254 55.3 92.11629L55.3 93.08504L54.14375 93.08504Q53.971874 93.08504 53.89375 93.02254Q53.815624 92.94441 53.815624 92.83504Q53.815624 92.72566 53.89375 92.66316Q53.971874 92.58504 54.14375 92.58504L54.8 92.58504L54.8 86.22566L54.14375 86.22566Q53.971874 86.22566 53.89375 86.16316Q53.815624 86.08504 53.815624 85.97566Q53.815624 85.86629 53.89375 85.80379Q53.971874 85.72566 54.14375 85.72566L55.3 85.72566ZM59.565624 90.55379Q59.565624 89.63191 58.925 88.99129Q58.284374 88.33504 57.440624 88.33504Q56.58125 88.33504 55.940624 88.99129Q55.3 89.63191 55.3 90.55379Q55.3 91.49129 55.940624 92.14754Q56.58125 92.78816 57.440624 92.78816Q58.284374 92.78816 58.925 92.14754Q59.565624 91.49129 59.565624 90.55379ZM64.39375 85.72566L64.39375 92.58504L66.33125 92.58504Q66.51875 92.58504 66.59688 92.66316Q66.675 92.72566 66.675 92.83504Q66.675 92.94441 66.59688 93.02254Q66.51875 93.08504 66.33125 93.08504L61.971874 93.08504Q61.8 93.08504 61.721874 93.02254Q61.64375 92.94441 61.64375 92.83504Q61.64375 92.72566 61.721874 92.66316Q61.8 92.58504 61.971874 92.58504L63.909374 92.58504L63.909374 86.22566L62.4875 86.22566Q62.315624 86.22566 62.2375 86.16316Q62.159374 86.08504 62.159374 85.97566Q62.159374 85.86629 62.2375 85.80379Q62.315624 85.72566 62.4875 85.72566L64.39375 85.72566ZM71.19063 93.08504L68.89375 88.50691L68.75313 88.50691Q68.58125 88.50691 68.50313 88.44441Q68.425 88.36629 68.425 88.25691Q68.425 88.17879 68.45625 88.13191Q68.50313 88.06941 68.56563 88.03816Q68.62813 88.00691 68.75313 88.00691L70.09688 88.00691Q70.26875 88.00691 70.34688 88.08504Q70.425 88.14754 70.425 88.25691Q70.425 88.36629 70.34688 88.44441Q70.26875 88.50691 70.09688 88.50691L69.44063 88.50691L71.44063 92.53816L73.425 88.50691L72.76875 88.50691Q72.59688 88.50691 72.51875 88.44441Q72.44063 88.36629 72.44063 88.25691Q72.44063 88.14754 72.51875 88.08504Q72.59688 88.00691 72.76875 88.00691L74.1125 88.00691Q74.28438 88.00691 74.3625 88.08504Q74.44063 88.14754 74.44063 88.25691Q74.44063 88.33504 74.39375 88.39754Q74.34688 88.46004 74.28438 88.49129Q74.2375 88.50691 73.95625 88.50691L70.84688 94.85066L71.6125 94.85066Q71.78438 94.85066 71.8625 94.91316Q71.94063 94.99129 71.94063 95.10066Q71.94063 95.21004 71.8625 95.27254Q71.78438 95.35066 71.6125 95.35066L68.76875 95.35066Q68.59688 95.35066 68.51875 95.27254Q68.44063 95.21004 68.44063 95.10066Q68.44063 94.99129 68.51875 94.91316Q68.59688 94.85066 68.76875 94.85066L70.31563 94.85066L71.19063 93.08504ZM79.90938 86.72566L79.90938 86.55379Q79.90938 86.38191 79.97188 86.30379Q80.05 86.22566 80.15938 86.22566Q80.26875 86.22566 80.33125 86.30379Q80.40938 86.38191 80.40938 86.55379L80.40938 87.80379Q80.40938 87.99129 80.33125 88.06941Q80.26875 88.13191 80.15938 88.13191Q80.05 88.13191 79.9875 88.06941Q79.925 87.99129 79.90938 87.83504Q79.87813 87.35066 79.39375 86.96004Q78.925 86.56941 78.15938 86.56941Q77.34688 86.56941 76.8625 86.99129Q76.37813 87.39754 76.37813 87.97566Q76.37813 88.25691 76.50313 88.50691Q76.64375 88.74129 76.8625 88.89754Q77.09688 89.03816 77.37813 89.13191Q77.65938 89.22566 78.25313 89.31941Q79.25313 89.49129 79.64375 89.66316Q80.14375 89.88191 80.40938 90.28816Q80.675 90.69441 80.675 91.24129Q80.675 92.08504 79.9875 92.67879Q79.31563 93.27254 78.175 93.27254Q76.89375 93.27254 76.12813 92.47566L76.12813 92.75691Q76.12813 92.92879 76.05 93.00691Q75.9875 93.08504 75.87813 93.08504Q75.76875 93.08504 75.69063 93.00691Q75.62813 92.92879 75.62813 92.75691L75.62813 91.39754Q75.62813 91.21004 75.69063 91.14754Q75.76875 91.06941 75.87813 91.06941Q75.9875 91.06941 76.05 91.14754Q76.12813 91.21004 76.12813 91.36629Q76.15938 91.89754 76.70625 92.35066Q77.25313 92.78816 78.175 92.78816Q79.09688 92.78816 79.62813 92.33504Q80.175 91.86629 80.175 91.22566Q80.175 90.83504 79.97188 90.53816Q79.76875 90.24129 79.3625 90.05379Q79.08125 89.94441 78.19063 89.78816Q76.97188 89.58504 76.425 89.16316Q75.89375 88.74129 75.89375 87.96004Q75.89375 87.17879 76.50313 86.63191Q77.12813 86.06941 78.14375 86.06941Q79.175 86.06941 79.90938 86.72566ZM87.20625 88.50691L87.20625 88.35066Q87.20625 88.16316 87.26875 88.08504Q87.34688 88.00691 87.45625 88.00691Q87.56563 88.00691 87.62813 88.08504Q87.70625 88.16316 87.70625 88.35066L87.70625 89.46004Q87.69063 89.63191 87.62813 89.71004Q87.56563 89.78816 87.45625 89.78816Q87.34688 89.78816 87.28438 89.72566Q87.22188 89.66316 87.20625 89.49129Q87.175 89.08504 86.65938 88.71004Q86.14375 88.33504 85.28438 88.33504Q84.175 88.33504 83.6125 89.02254Q83.05 89.71004 83.05 90.58504Q83.05 91.53816 83.675 92.16316Q84.3 92.78816 85.3 92.78816Q85.8625 92.78816 86.45625 92.58504Q87.06563 92.36629 87.53438 91.89754Q87.65938 91.77254 87.75313 91.77254Q87.8625 91.77254 87.925 91.85066Q87.9875 91.91316 87.9875 92.00691Q87.9875 92.25691 87.39375 92.64754Q86.44063 93.27254 85.26875 93.27254Q84.08125 93.27254 83.31563 92.52254Q82.55 91.75691 82.55 90.60066Q82.55 89.39754 83.33125 88.61629Q84.1125 87.83504 85.3 87.83504Q86.44063 87.83504 87.20625 88.50691ZM91.56563 88.00691L91.56563 89.25691Q92.51875 88.38191 92.9875 88.13191Q93.47188 87.88191 93.87813 87.88191Q94.31563 87.88191 94.69063 88.17879Q95.08125 88.47566 95.08125 88.63191Q95.08125 88.74129 95.00313 88.81941Q94.925 88.88191 94.81563 88.88191Q94.76875 88.88191 94.72188 88.86629Q94.675 88.85066 94.56563 88.74129Q94.3625 88.53816 94.20625 88.46004Q94.06563 88.38191 93.90938 88.38191Q93.59688 88.38191 93.12813 88.64754Q92.675 88.89754 91.56563 89.89754L91.56563 92.58504L93.7375 92.58504Q93.925 92.58504 94.00313 92.66316Q94.08125 92.72566 94.08125 92.83504Q94.08125 92.94441 94.00313 93.02254Q93.925 93.08504 93.7375 93.08504L89.87813 93.08504Q89.70625 93.08504 89.62813 93.02254Q89.55 92.94441 89.55 92.85066Q89.55 92.74129 89.62813 92.67879Q89.70625 92.61629 89.87813 92.61629L91.06563 92.61629L91.06563 88.50691L90.15938 88.50691Q89.9875 88.50691 89.90938 88.44441Q89.83125 88.36629 89.83125 88.25691Q89.83125 88.14754 89.90938 88.08504Q89.9875 88.00691 90.15938 88.00691L91.56563 88.00691ZM99.39375 85.49129L99.39375 86.75691L98.675 86.75691L98.675 85.49129L99.39375 85.49129ZM99.40938 88.00691L99.40938 92.58504L101.34688 92.58504Q101.53438 92.58504 101.59688 92.66316Q101.675 92.72566 101.675 92.83504Q101.675 92.94441 101.59688 93.02254Q101.53438 93.08504 101.34688 93.08504L96.9875 93.08504Q96.81563 93.08504 96.7375 93.02254Q96.65938 92.94441 96.65938 92.83504Q96.65938 92.72566 96.7375 92.66316Q96.81563 92.58504 96.9875 92.58504L98.925 92.58504L98.925 88.50691L97.4875 88.50691Q97.31563 88.50691 97.22188 88.44441Q97.14375 88.36629 97.14375 88.25691Q97.14375 88.14754 97.22188 88.08504Q97.3 88.00691 97.4875 88.00691L99.40938 88.00691ZM104.3 88.00691L104.3 88.91316Q104.7375 88.36629 105.2375 88.10066Q105.7375 87.83504 106.425 87.83504Q107.15938 87.83504 107.76875 88.17879Q108.39375 88.50691 108.72188 89.11629Q109.06563 89.72566 109.06563 90.39754Q109.06563 91.46004 108.3 92.21004Q107.55 92.96004 106.44063 92.96004Q105.1125 92.96004 104.3 91.88191L104.3 94.85066L105.4875 94.85066Q105.675 94.85066 105.7375 94.91316Q105.81563 94.99129 105.81563 95.10066Q105.81563 95.21004 105.7375 95.27254Q105.675 95.35066 105.4875 95.35066L103.14375 95.35066Q102.97188 95.35066 102.89375 95.27254Q102.81563 95.21004 102.81563 95.10066Q102.81563 94.99129 102.89375 94.91316Q102.97188 94.85066 103.14375 94.85066L103.8 94.85066L103.8 88.50691L103.14375 88.50691Q102.97188 88.50691 102.89375 88.44441Q102.81563 88.36629 102.81563 88.25691Q102.81563 88.14754 102.89375 88.08504Q102.97188 88.00691 103.14375 88.00691L104.3 88.00691ZM108.56563 90.39754Q108.56563 89.53816 107.94063 88.94441Q107.33125 88.33504 106.44063 88.33504Q105.53438 88.33504 104.90938 88.94441Q104.3 89.55379 104.3 90.39754Q104.3 91.24129 104.90938 91.85066Q105.53438 92.46004 106.44063 92.46004Q107.31563 92.46004 107.94063 91.86629Q108.56563 91.25691 108.56563 90.39754ZM112.14375 88.00691L114.81563 88.00691Q114.9875 88.00691 115.06563 88.08504Q115.14375 88.14754 115.14375 88.25691Q115.14375 88.36629 115.06563 88.44441Q114.9875 88.50691 114.81563 88.50691L112.14375 88.50691L112.14375 91.78816Q112.14375 92.21004 112.4875 92.50691Q112.83125 92.78816 113.4875 92.78816Q113.9875 92.78816 114.56563 92.64754Q115.14375 92.49129 115.47188 92.30379Q115.58125 92.22566 115.65938 92.22566Q115.75313 92.22566 115.81563 92.30379Q115.89375 92.36629 115.89375 92.47566Q115.89375 92.55379 115.81563 92.63191Q115.62813 92.81941 114.90938 93.05379Q114.19063 93.27254 113.51875 93.27254Q112.65938 93.27254 112.14375 92.88191Q111.64375 92.47566 111.64375 91.78816L111.64375 88.50691L110.7375 88.50691Q110.56563 88.50691 110.4875 88.44441Q110.40938 88.36629 110.40938 88.25691Q110.40938 88.14754 110.4875 88.08504Q110.56563 88.00691 110.7375 88.00691L111.64375 88.00691L111.64375 86.55379Q111.64375 86.38191 111.70625 86.30379Q111.78438 86.22566 111.89375 86.22566Q112.00313 86.22566 112.06563 86.30379Q112.14375 86.38191 112.14375 86.55379L112.14375 88.00691Z" fill-rule="nonzero"/><path fill="#ffffff" d="M90.55 132.73001L90.55 135.29251L91.45625 135.29251Q91.64375 135.29251 91.70625 135.37064Q91.78438 135.43314 91.78438 135.54251Q91.78438 135.65189 91.70625 135.73001Q91.64375 135.79251 91.45625 135.79251L89.39375 135.79251Q89.22188 135.79251 89.14375 135.73001Q89.06563 135.65189 89.06563 135.54251Q89.06563 135.43314 89.14375 135.37064Q89.22188 135.29251 89.39375 135.29251L90.05 135.29251L90.05 129.43314L89.39375 129.43314Q89.22188 129.43314 89.14375 129.37064Q89.06563 129.29251 89.06563 129.18314Q89.06563 129.07376 89.14375 129.01126Q89.22188 128.93314 89.39375 128.93314L92.37813 128.93314Q93.28438 128.93314 93.90938 129.52689Q94.55 130.10501 94.55 130.83939Q94.55 131.35501 94.15938 131.82376Q93.76875 132.29251 92.8625 132.60501Q93.37813 132.96439 93.75313 133.43314Q94.12813 133.88626 94.95625 135.29251L95.33125 135.29251Q95.51875 135.29251 95.58125 135.37064Q95.65938 135.43314 95.65938 135.54251Q95.65938 135.65189 95.58125 135.73001Q95.51875 135.79251 95.33125 135.79251L94.675 135.79251Q93.76875 134.15189 93.26875 133.60501Q92.76875 133.04251 92.1125 132.73001L90.55 132.73001ZM90.55 132.24564L91.89375 132.24564Q92.53438 132.24564 93.05 132.01126Q93.58125 131.77689 93.81563 131.46439Q94.06563 131.13626 94.06563 130.80814Q94.06563 130.32376 93.56563 129.88626Q93.06563 129.43314 92.3625 129.43314L90.55 129.43314L90.55 132.24564ZM100.83125 135.79251L100.83125 135.07376Q99.83125 135.98001 98.65938 135.98001Q97.94063 135.98001 97.56563 135.58939Q97.08125 135.07376 97.08125 134.38626L97.08125 131.21439L96.40938 131.21439Q96.2375 131.21439 96.15938 131.15189Q96.08125 131.07376 96.08125 130.96439Q96.08125 130.85501 96.15938 130.79251Q96.2375 130.71439 96.40938 130.71439L97.56563 130.71439L97.56563 134.38626Q97.56563 134.87064 97.8625 135.18314Q98.175 135.49564 98.62813 135.49564Q99.83125 135.49564 100.83125 134.38626L100.83125 131.21439L99.925 131.21439Q99.75313 131.21439 99.675 131.15189Q99.59688 131.07376 99.59688 130.96439Q99.59688 130.85501 99.675 130.79251Q99.75313 130.71439 99.925 130.71439L101.33125 130.71439L101.33125 135.29251L101.7375 135.29251Q101.925 135.29251 101.9875 135.37064Q102.06563 135.43314 102.06563 135.54251Q102.06563 135.65189 101.9875 135.73001Q101.925 135.79251 101.7375 135.79251L100.83125 135.79251ZM107.78438 131.04251Q107.78438 130.87064 107.84688 130.79251Q107.925 130.71439 108.01875 130.71439Q108.12813 130.71439 108.19063 130.79251Q108.26875 130.87064 108.26875 131.05814L108.26875 131.90189Q108.26875 132.07376 108.19063 132.15189Q108.12813 132.23001 108.01875 132.23001Q107.925 132.23001 107.84688 132.16751Q107.78438 132.08939 107.78438 131.94876Q107.7375 131.58939 107.40938 131.37064Q106.94063 131.04251 106.14375 131.04251Q105.31563 131.04251 104.8625 131.37064Q104.51875 131.62064 104.51875 131.93314Q104.51875 132.29251 104.925 132.52689Q105.20625 132.68314 105.9875 132.77689Q107.01875 132.88626 107.40938 133.02689Q107.9875 133.23001 108.25313 133.60501Q108.53438 133.96439 108.53438 134.38626Q108.53438 135.01126 107.925 135.49564Q107.33125 135.98001 106.15938 135.98001Q105.00313 135.98001 104.25313 135.38626Q104.25313 135.58939 104.22188 135.65189Q104.20625 135.71439 104.14375 135.76126Q104.08125 135.79251 104.00313 135.79251Q103.90938 135.79251 103.83125 135.71439Q103.76875 135.63626 103.76875 135.46439L103.76875 134.44876Q103.76875 134.27689 103.83125 134.19876Q103.89375 134.12064 104.00313 134.12064Q104.1125 134.12064 104.19063 134.19876Q104.26875 134.26126 104.26875 134.38626Q104.26875 134.66751 104.39375 134.83939Q104.59688 135.12064 105.05 135.30814Q105.50313 135.49564 106.14375 135.49564Q107.1125 135.49564 107.58125 135.13626Q108.05 134.77689 108.05 134.38626Q108.05 133.91751 107.56563 133.65189Q107.09688 133.37064 106.175 133.27689Q105.25313 133.18314 104.84688 133.04251Q104.45625 132.88626 104.2375 132.58939Q104.01875 132.27689 104.01875 131.91751Q104.01875 131.29251 104.62813 130.91751Q105.25313 130.54251 106.1125 130.54251Q107.14375 130.54251 107.78438 131.04251ZM112.14375 130.71439L114.81563 130.71439Q114.9875 130.71439 115.06563 130.79251Q115.14375 130.85501 115.14375 130.96439Q115.14375 131.07376 115.06563 131.15189Q114.9875 131.21439 114.81563 131.21439L112.14375 131.21439L112.14375 134.49564Q112.14375 134.91751 112.4875 135.21439Q112.83125 135.49564 113.4875 135.49564Q113.9875 135.49564 114.56563 135.35501Q115.14375 135.19876 115.47188 135.01126Q115.58125 134.93314 115.65938 134.93314Q115.75313 134.93314 115.81563 135.01126Q115.89375 135.07376 115.89375 135.18314Q115.89375 135.26126 115.81563 135.33939Q115.62813 135.52689 114.90938 135.76126Q114.19063 135.98001 113.51875 135.98001Q112.65938 135.98001 112.14375 135.58939Q111.64375 135.18314 111.64375 134.49564L111.64375 131.21439L110.7375 131.21439Q110.56563 131.21439 110.4875 131.15189Q110.40938 131.07376 110.40938 130.96439Q110.40938 130.85501 110.4875 130.79251Q110.56563 130.71439 110.7375 130.71439L111.64375 130.71439L111.64375 129.26126Q111.64375 129.08939 111.70625 129.01126Q111.78438 128.93314 111.89375 128.93314Q112.00313 128.93314 112.06563 129.01126Q112.14375 129.08939 112.14375 129.26126L112.14375 130.71439Z" fill-rule="nonzero"/><path fill="#ffffff" d="M115.31563 172.3125L115.31563 171.96875Q115.31563 171.79688 115.37813 171.71875Q115.45625 171.64062 115.56563 171.64062Q115.675 171.64062 115.7375 171.71875Q115.81563 171.79688 115.81563 171.96875L115.81563 173.34375Q115.81563 173.51562 115.7375 173.59375Q115.675 173.67188 115.56563 173.67188Q115.45625 173.67188 115.39375 173.60938Q115.33125 173.53125 115.31563 173.375Q115.28438 172.875 114.78438 172.5Q114.09688 171.98438 113.2375 171.98438Q112.675 171.98438 112.15938 172.23438Q111.78438 172.40625 111.56563 172.67188Q111.175 173.125 110.95625 173.6875Q110.78438 174.09375 110.78438 174.60938L110.78438 175.46875Q110.78438 176.57812 111.58125 177.39062Q112.37813 178.20312 113.44063 178.20312Q114.06563 178.20312 114.56563 177.9375Q115.06563 177.65625 115.53438 177.09375Q115.64375 176.96875 115.76875 176.96875Q115.8625 176.96875 115.925 177.03125Q116.00313 177.09375 116.00313 177.20312Q116.00313 177.32812 115.7375 177.60938Q115.26875 178.14062 114.65938 178.42188Q114.06563 178.6875 113.44063 178.6875Q112.90938 178.6875 112.3625 178.48438Q111.94063 178.32812 111.65938 178.125Q111.39375 177.90625 110.9875 177.40625Q110.58125 176.90625 110.44063 176.48438Q110.3 176.0625 110.3 175.54688L110.3 174.54688Q110.3 173.8125 110.69063 173.0625Q111.08125 172.29688 111.75313 171.89062Q112.425 171.48438 113.22188 171.48438Q114.44063 171.48438 115.31563 172.3125Z" fill-rule="nonzero"/><path fill="#ffffff" d="M101.31563 215.01999L101.31563 214.67624Q101.31563 214.50436 101.37813 214.42624Q101.45625 214.34811 101.56563 214.34811Q101.675 214.34811 101.7375 214.42624Q101.81563 214.50436 101.81563 214.67624L101.81563 216.05124Q101.81563 216.22311 101.7375 216.30124Q101.675 216.37936 101.56563 216.37936Q101.45625 216.37936 101.39375 216.31686Q101.33125 216.23874 101.31563 216.08249Q101.28438 215.58249 100.78438 215.20749Q100.09688 214.69186 99.2375 214.69186Q98.675 214.69186 98.15938 214.94186Q97.78438 215.11374 97.56563 215.37936Q97.175 215.83249 96.95625 216.39499Q96.78438 216.80124 96.78438 217.31686L96.78438 218.17624Q96.78438 219.28561 97.58125 220.09811Q98.37813 220.91061 99.44063 220.91061Q100.06563 220.91061 100.56563 220.64499Q101.06563 220.36374 101.53438 219.80124Q101.64375 219.67624 101.76875 219.67624Q101.8625 219.67624 101.925 219.73874Q102.00313 219.80124 102.00313 219.91061Q102.00313 220.03561 101.7375 220.31686Q101.26875 220.84811 100.65938 221.12936Q100.06563 221.39499 99.44063 221.39499Q98.90938 221.39499 98.3625 221.19186Q97.94063 221.03561 97.65938 220.83249Q97.39375 220.61374 96.9875 220.11374Q96.58125 219.61374 96.44063 219.19186Q96.3 218.76999 96.3 218.25436L96.3 217.25436Q96.3 216.51999 96.69063 215.76999Q97.08125 215.00436 97.75313 214.59811Q98.425 214.19186 99.22188 214.19186Q100.44063 214.19186 101.31563 215.01999ZM106.39375 218.01999L106.39375 220.48874Q106.39375 220.66061 106.31563 220.73874Q106.25313 220.81686 106.14375 220.81686Q106.05 220.81686 105.97188 220.73874Q105.90938 220.66061 105.90938 220.48874L105.90938 218.01999L103.72188 218.01999Q103.55 218.01999 103.47188 217.95749Q103.39375 217.89499 103.39375 217.78561Q103.39375 217.66061 103.47188 217.59811Q103.55 217.53561 103.72188 217.53561L105.90938 217.53561L105.90938 215.08249Q105.90938 214.91061 105.97188 214.83249Q106.05 214.75436 106.15938 214.75436Q106.25313 214.75436 106.31563 214.83249Q106.39375 214.91061 106.39375 215.08249L106.39375 217.53561L108.58125 217.53561Q108.75313 217.53561 108.83125 217.59811Q108.90938 217.66061 108.90938 217.78561Q108.90938 217.89499 108.83125 217.95749Q108.75313 218.01999 108.58125 218.01999L106.39375 218.01999ZM113.39375 218.01999L113.39375 220.48874Q113.39375 220.66061 113.31563 220.73874Q113.25313 220.81686 113.14375 220.81686Q113.05 220.81686 112.97188 220.73874Q112.90938 220.66061 112.90938 220.48874L112.90938 218.01999L110.72188 218.01999Q110.55 218.01999 110.47188 217.95749Q110.39375 217.89499 110.39375 217.78561Q110.39375 217.66061 110.47188 217.59811Q110.55 217.53561 110.72188 217.53561L112.90938 217.53561L112.90938 215.08249Q112.90938 214.91061 112.97188 214.83249Q113.05 214.75436 113.15938 214.75436Q113.25313 214.75436 113.31563 214.83249Q113.39375 214.91061 113.39375 215.08249L113.39375 217.53561L115.58125 217.53561Q115.75313 217.53561 115.83125 217.59811Q115.90938 217.66061 115.90938 217.78561Q115.90938 217.89499 115.83125 217.95749Q115.75313 218.01999 115.58125 218.01999L113.39375 218.01999Z" fill-rule="nonzero"/><path fill="#ffffff" d="M95.15938 260.50873Q95.15938 261.4931 94.75313 262.33685Q94.3625 263.16498 93.65938 263.63373Q92.95625 264.10248 92.15938 264.10248Q90.97188 264.10248 90.06563 263.10248Q89.15938 262.08685 89.15938 260.50873Q89.15938 258.91498 90.06563 257.91498Q90.97188 256.89935 92.15938 256.89935Q92.95625 256.89935 93.65938 257.3681Q94.3625 257.83685 94.75313 258.6806Q95.15938 259.50873 95.15938 260.50873ZM94.65938 260.50873Q94.65938 259.3056 93.95625 258.35248Q93.26875 257.39935 92.15938 257.39935Q91.12813 257.39935 90.39375 258.3056Q89.65938 259.21185 89.65938 260.50873Q89.65938 261.8681 90.425 262.7431Q91.19063 263.6181 92.15938 263.6181Q93.26875 263.6181 93.95625 262.66498Q94.65938 261.71185 94.65938 260.50873ZM101.56563 256.5556L101.56563 263.41498L102.22188 263.41498Q102.39375 263.41498 102.47188 263.4931Q102.55 263.5556 102.55 263.66498Q102.55 263.77435 102.47188 263.85248Q102.39375 263.91498 102.22188 263.91498L101.06563 263.91498L101.06563 262.9306Q100.20625 264.10248 98.89375 264.10248Q98.22188 264.10248 97.6125 263.75873Q97.00313 263.39935 96.64375 262.7431Q96.28438 262.08685 96.28438 261.38373Q96.28438 260.6806 96.64375 260.03998Q97.00313 259.38373 97.6125 259.02435Q98.22188 258.66498 98.89375 258.66498Q100.19063 258.66498 101.06563 259.83685L101.06563 257.0556L100.40938 257.0556Q100.22188 257.0556 100.14375 256.9931Q100.08125 256.91498 100.08125 256.8056Q100.08125 256.69623 100.14375 256.63373Q100.22188 256.5556 100.40938 256.5556L101.56563 256.5556ZM101.06563 261.38373Q101.06563 260.44623 100.425 259.8056Q99.8 259.16498 98.925 259.16498Q98.05 259.16498 97.40938 259.8056Q96.78438 260.44623 96.78438 261.38373Q96.78438 262.32123 97.40938 262.97748Q98.05 263.6181 98.925 263.6181Q99.8 263.6181 100.425 262.97748Q101.06563 262.32123 101.06563 261.38373ZM106.39375 256.32123L106.39375 257.58685L105.675 257.58685L105.675 256.32123L106.39375 256.32123ZM106.40938 258.83685L106.40938 263.41498L108.34688 263.41498Q108.53438 263.41498 108.59688 263.4931Q108.675 263.5556 108.675 263.66498Q108.675 263.77435 108.59688 263.85248Q108.53438 263.91498 108.34688 263.91498L103.9875 263.91498Q103.81563 263.91498 103.7375 263.85248Q103.65938 263.77435 103.65938 263.66498Q103.65938 263.5556 103.7375 263.4931Q103.81563 263.41498 103.9875 263.41498L105.925 263.41498L105.925 259.33685L104.4875 259.33685Q104.31563 259.33685 104.22188 259.27435Q104.14375 259.19623 104.14375 259.08685Q104.14375 258.97748 104.22188 258.91498Q104.3 258.83685 104.4875 258.83685L106.40938 258.83685ZM111.56563 258.83685L111.56563 259.58685Q112.08125 259.0556 112.4875 258.8681Q112.90938 258.66498 113.425 258.66498Q113.9875 258.66498 114.45625 258.89935Q114.78438 259.08685 115.05 259.4931Q115.31563 259.89935 115.31563 260.32123L115.31563 263.41498L115.7375 263.41498Q115.90938 263.41498 115.9875 263.4931Q116.06563 263.5556 116.06563 263.66498Q116.06563 263.77435 115.9875 263.85248Q115.90938 263.91498 115.7375 263.91498L114.40938 263.91498Q114.2375 263.91498 114.15938 263.85248Q114.08125 263.77435 114.08125 263.66498Q114.08125 263.5556 114.15938 263.4931Q114.2375 263.41498 114.40938 263.41498L114.83125 263.41498L114.83125 260.39935Q114.83125 259.88373 114.44063 259.52435Q114.06563 259.16498 113.425 259.16498Q112.94063 259.16498 112.58125 259.3681Q112.22188 259.5556 111.56563 260.33685L111.56563 263.41498L112.1125 263.41498Q112.3 263.41498 112.3625 263.4931Q112.44063 263.5556 112.44063 263.66498Q112.44063 263.77435 112.3625 263.85248Q112.3 263.91498 112.1125 263.91498L110.51875 263.91498Q110.33125 263.91498 110.25313 263.85248Q110.19063 263.77435 110.19063 263.66498Q110.19063 263.5556 110.25313 263.4931Q110.33125 263.41498 110.51875 263.41498L111.06563 263.41498L111.06563 259.33685L110.65938 259.33685Q110.47188 259.33685 110.39375 259.27435Q110.33125 259.19623 110.33125 259.08685Q110.33125 258.97748 110.39375 258.91498Q110.47188 258.83685 110.65938 258.83685L111.56563 258.83685Z" fill-rule="nonzero"/><path fill="#ffffff" d="M87.56563 306.62244L86.925 306.62244L83.3 300.4818L83.3 306.12244L84.20625 306.12244Q84.39375 306.12244 84.47188 306.20056Q84.55 306.26306 84.55 306.37244Q84.55 306.4818 84.47188 306.55994Q84.39375 306.62244 84.20625 306.62244L82.39375 306.62244Q82.22188 306.62244 82.14375 306.55994Q82.06563 306.4818 82.06563 306.37244Q82.06563 306.26306 82.14375 306.20056Q82.22188 306.12244 82.39375 306.12244L82.81563 306.12244L82.81563 300.26306L82.14375 300.26306Q81.97188 300.26306 81.89375 300.20056Q81.81563 300.12244 81.81563 300.01306Q81.81563 299.9037 81.89375 299.8412Q81.97188 299.76306 82.14375 299.76306L83.44063 299.76306L87.06563 305.9193L87.06563 300.26306L86.15938 300.26306Q85.9875 300.26306 85.90938 300.20056Q85.83125 300.12244 85.83125 300.01306Q85.83125 299.9037 85.90938 299.8412Q85.9875 299.76306 86.15938 299.76306L87.97188 299.76306Q88.15938 299.76306 88.22188 299.8412Q88.3 299.9037 88.3 300.01306Q88.3 300.12244 88.22188 300.20056Q88.15938 300.26306 87.97188 300.26306L87.56563 300.26306L87.56563 306.62244ZM94.81563 304.20056L89.8 304.20056Q89.925 305.1537 90.59688 305.74744Q91.26875 306.32556 92.25313 306.32556Q92.81563 306.32556 93.40938 306.1537Q94.01875 305.9662 94.39375 305.6537Q94.50313 305.57556 94.59688 305.57556Q94.69063 305.57556 94.75313 305.6537Q94.83125 305.7162 94.83125 305.82556Q94.83125 305.9193 94.7375 306.01306Q94.45625 306.30994 93.7375 306.55994Q93.01875 306.80994 92.25313 306.80994Q90.9875 306.80994 90.14375 305.9818Q89.3 305.1537 89.3 303.9818Q89.3 302.9037 90.09688 302.13806Q90.89375 301.37244 92.06563 301.37244Q93.26875 301.37244 94.05 302.1693Q94.83125 302.95056 94.81563 304.20056ZM94.31563 303.70056Q94.175 302.88806 93.55 302.38806Q92.925 301.87244 92.06563 301.87244Q91.20625 301.87244 90.58125 302.37244Q89.95625 302.87244 89.8 303.70056L94.31563 303.70056ZM99.39375 299.26306L99.39375 306.12244L101.33125 306.12244Q101.51875 306.12244 101.59688 306.20056Q101.675 306.26306 101.675 306.37244Q101.675 306.4818 101.59688 306.55994Q101.51875 306.62244 101.33125 306.62244L96.97188 306.62244Q96.8 306.62244 96.72188 306.55994Q96.64375 306.4818 96.64375 306.37244Q96.64375 306.26306 96.72188 306.20056Q96.8 306.12244 96.97188 306.12244L98.90938 306.12244L98.90938 299.76306L97.4875 299.76306Q97.31563 299.76306 97.2375 299.70056Q97.15938 299.62244 97.15938 299.51306Q97.15938 299.4037 97.2375 299.3412Q97.31563 299.26306 97.4875 299.26306L99.39375 299.26306ZM107.83125 306.62244L107.83125 305.9037Q106.83125 306.80994 105.65938 306.80994Q104.94063 306.80994 104.56563 306.4193Q104.08125 305.9037 104.08125 305.2162L104.08125 302.0443L103.40938 302.0443Q103.2375 302.0443 103.15938 301.9818Q103.08125 301.9037 103.08125 301.7943Q103.08125 301.68494 103.15938 301.62244Q103.2375 301.5443 103.40938 301.5443L104.56563 301.5443L104.56563 305.2162Q104.56563 305.70056 104.8625 306.01306Q105.175 306.32556 105.62813 306.32556Q106.83125 306.32556 107.83125 305.2162L107.83125 302.0443L106.925 302.0443Q106.75313 302.0443 106.675 301.9818Q106.59688 301.9037 106.59688 301.7943Q106.59688 301.68494 106.675 301.62244Q106.75313 301.5443 106.925 301.5443L108.33125 301.5443L108.33125 306.12244L108.7375 306.12244Q108.925 306.12244 108.9875 306.20056Q109.06563 306.26306 109.06563 306.37244Q109.06563 306.4818 108.9875 306.55994Q108.925 306.62244 108.7375 306.62244L107.83125 306.62244ZM114.56563 306.62244L114.56563 305.9193Q113.4875 306.80994 112.26875 306.80994Q111.39375 306.80994 110.89375 306.37244Q110.39375 305.9193 110.39375 305.26306Q110.39375 304.55994 111.05 304.0287Q111.70625 303.4818 112.97188 303.4818Q113.3 303.4818 113.69063 303.5287Q114.09688 303.57556 114.56563 303.6693L114.56563 302.87244Q114.56563 302.4662 114.19063 302.1693Q113.81563 301.87244 113.06563 301.87244Q112.4875 301.87244 111.45625 302.20056Q111.26875 302.26306 111.22188 302.26306Q111.12813 302.26306 111.05 302.20056Q110.9875 302.12244 110.9875 302.01306Q110.9875 301.9193 111.05 301.8568Q111.12813 301.76306 111.70625 301.62244Q112.62813 301.37244 113.09688 301.37244Q114.01875 301.37244 114.53438 301.8412Q115.06563 302.2943 115.06563 302.87244L115.06563 306.12244L115.72188 306.12244Q115.90938 306.12244 115.97188 306.20056Q116.05 306.26306 116.05 306.37244Q116.05 306.4818 115.97188 306.55994Q115.90938 306.62244 115.72188 306.62244L114.56563 306.62244ZM114.56563 304.1693Q114.22188 304.07556 113.83125 304.0287Q113.44063 303.9818 113.01875 303.9818Q111.94063 303.9818 111.34688 304.43494Q110.89375 304.7943 110.89375 305.26306Q110.89375 305.7162 111.2375 306.0287Q111.58125 306.32556 112.25313 306.32556Q112.89375 306.32556 113.44063 306.07556Q113.9875 305.80994 114.56563 305.26306L114.56563 304.1693Z" fill-rule="nonzero"/><path fill="#ffffff" d="M124.90938 344.16876L124.90938 345.3875Q124.90938 346.96564 124.15938 347.90314Q123.56563 348.6219 122.65938 348.6219Q122.22188 348.6219 121.83125 348.45Q121.45625 348.27814 121.19063 347.96564Q121.01875 347.77814 120.81563 347.35626Q120.6125 346.91876 120.53438 346.5594Q120.39375 346.0594 120.39375 345.3875L120.39375 344.16876Q120.39375 342.575 121.14375 341.65314Q121.7375 340.91876 122.64375 340.91876Q123.08125 340.91876 123.45625 341.09064Q123.84688 341.2625 124.1125 341.575Q124.28438 341.77814 124.4875 342.21564Q124.69063 342.6375 124.78438 342.98126Q124.90938 343.48126 124.90938 344.16876ZM124.425 344.23126Q124.425 343.52814 124.22188 342.9344Q124.01875 342.325 123.78438 341.98126Q123.62813 341.7625 123.39375 341.6219Q123.06563 341.41876 122.64375 341.41876Q121.81563 341.41876 121.34688 342.2625Q120.87813 343.10626 120.87813 344.23126L120.87813 345.3094Q120.87813 346.0125 121.08125 346.6219Q121.28438 347.21564 121.53438 347.575Q121.675 347.77814 121.90938 347.91876Q122.2375 348.1375 122.65938 348.1375Q123.4875 348.1375 123.95625 347.29376Q124.425 346.4344 124.425 345.3094L124.425 344.23126Z" fill-rule="nonzero"/><path fill="#ffffff" d="M212.31438 347.95L216.09563 347.95L216.09563 347.7625Q216.09563 347.59064 216.15813 347.5125Q216.23625 347.4344 216.34563 347.4344Q216.455 347.4344 216.5175 347.5125Q216.59563 347.59064 216.59563 347.7625L216.59563 348.45L211.83 348.45L211.83 347.71564Q213.33 346.3719 214.75188 344.98126Q215.40813 344.325 215.65813 344.02814Q215.90813 343.71564 215.98625 343.4969Q216.08 343.2625 216.08 343.02814Q216.08 342.3875 215.56438 341.90314Q215.06438 341.41876 214.34563 341.41876Q213.705 341.41876 213.205 341.79376Q212.705 342.15314 212.56438 342.7Q212.5175 342.84064 212.47063 342.8875Q212.40813 342.9344 212.31438 342.9344Q212.205 342.9344 212.1425 342.8719Q212.08 342.8094 212.08 342.71564Q212.08 342.4344 212.37688 341.95Q212.68938 341.46564 213.22063 341.2Q213.7675 340.91876 214.34563 340.91876Q215.2675 340.91876 215.92375 341.5594Q216.58 342.2 216.58 343.0125Q216.58 343.34064 216.47063 343.6375Q216.36125 343.91876 216.09563 344.2625Q215.83 344.59064 215.1425 345.2625Q213.40813 346.98126 212.31438 347.91876L212.31438 347.95Z" fill-rule="nonzero"/><path fill="#ffffff" d="M307.1256 346.3875L303.86 346.3875L303.86 345.825L306.59436 341.09064L307.6256 341.09064L307.6256 345.90314L308.03186 345.90314Q308.21936 345.90314 308.2975 345.96564Q308.3756 346.02814 308.3756 346.15314Q308.3756 346.2469 308.2975 346.325Q308.21936 346.3875 308.03186 346.3875L307.6256 346.3875L307.6256 347.95L308.03186 347.95Q308.21936 347.95 308.2975 348.02814Q308.3756 348.09064 308.3756 348.2Q308.3756 348.3094 308.2975 348.3875Q308.21936 348.45 308.03186 348.45L306.20374 348.45Q306.03186 348.45 305.95374 348.3875Q305.8756 348.3094 305.8756 348.2Q305.8756 348.09064 305.95374 348.02814Q306.03186 347.95 306.20374 347.95L307.1256 347.95L307.1256 346.3875ZM307.1256 345.90314L307.1256 341.59064L306.8756 341.59064L304.3756 345.90314L307.1256 345.90314Z" fill-rule="nonzero"/><path fill="#ffffff" d="M396.53064 345.34064Q396.98376 344.66876 397.46814 344.34064Q397.9525 344.0125 398.54626 344.0125Q399.3275 344.0125 399.9369 344.66876Q400.54626 345.325 400.54626 346.29376Q400.54626 347.16876 399.98376 347.90314Q399.4369 348.6219 398.4525 348.6219Q397.8119 348.6219 397.2494 348.23126Q396.7025 347.84064 396.39 347.02814Q395.9994 346.0125 395.9994 344.77814Q395.9994 343.85626 396.35876 343.0594Q396.64 342.45 397.10876 341.98126Q397.5775 341.5125 398.2025 341.21564Q398.8275 340.91876 399.5619 340.91876Q400.04626 340.91876 400.3744 341.1219Q400.515 341.2 400.515 341.35626Q400.515 341.46564 400.4525 341.52814Q400.39 341.59064 400.29626 341.59064Q400.21814 341.59064 400.10876 341.52814Q399.8744 341.41876 399.515 341.41876Q398.3744 341.41876 397.42126 342.40314Q396.48376 343.3875 396.48376 344.73126Q396.48376 344.9344 396.53064 345.34064ZM396.64 346.15314Q396.85876 347.21564 397.3275 347.6844Q397.8119 348.1375 398.46814 348.1375Q399.1244 348.1375 399.5775 347.6219Q400.04626 347.10626 400.04626 346.29376Q400.04626 345.5125 399.5775 345.0125Q399.10876 344.5125 398.515 344.5125Q397.9525 344.5125 397.42126 344.9969Q397.0775 345.325 396.64 346.15314Z" fill-rule="nonzero"/><path fill="#ffffff" d="M490.7794 344.6375Q491.4044 344.9344 491.7169 345.4344Q492.0294 345.91876 492.0294 346.48126Q492.0294 347.34064 491.37314 347.98126Q490.7169 348.6219 489.7794 348.6219Q488.8419 348.6219 488.18564 347.98126Q487.5294 347.34064 487.5294 346.48126Q487.5294 345.91876 487.8419 345.4344Q488.1544 344.9344 488.7794 344.6375Q488.2325 344.325 487.9825 343.9969Q487.6544 343.5125 487.6544 342.9344Q487.6544 342.1375 488.26376 341.52814Q488.88876 340.91876 489.7794 340.91876Q490.6544 340.91876 491.2794 341.52814Q491.9044 342.1375 491.9044 342.9344Q491.9044 343.5125 491.56064 343.98126Q491.32626 344.325 490.7794 344.6375ZM491.4044 342.96564Q491.4044 342.325 490.92 341.8719Q490.45126 341.41876 489.76376 341.41876Q489.0919 341.41876 488.6075 341.8719Q488.13876 342.325 488.13876 342.95Q488.13876 343.52814 488.6075 343.96564Q489.07626 344.3875 489.76376 344.3875Q490.4669 344.3875 490.93564 343.96564Q491.4044 343.52814 491.4044 342.96564ZM491.5294 346.48126Q491.5294 345.84064 491.0294 345.35626Q490.5294 344.8719 489.7794 344.8719Q489.0294 344.8719 488.51376 345.35626Q488.01376 345.84064 488.01376 346.48126Q488.01376 347.15314 488.51376 347.65314Q489.0294 348.1375 489.7794 348.1375Q490.51376 348.1375 491.01376 347.65314Q491.5294 347.15314 491.5294 346.48126Z" fill-rule="nonzero"/><path fill="#ffffff" d="M578.29376 340.9969L578.29376 347.95L579.98126 347.95Q580.15314 347.95 580.23126 348.02814Q580.3094 348.09064 580.3094 348.2Q580.3094 348.3094 580.23126 348.3875Q580.15314 348.45 579.98126 348.45L576.1219 348.45Q575.9344 348.45 575.85626 348.3875Q575.79376 348.3094 575.79376 348.2Q575.79376 348.09064 575.85626 348.02814Q575.9344 347.95 576.1219 347.95L577.8094 347.95L577.8094 341.66876L576.2 342.1844Q576.075 342.21564 576.02814 342.21564Q575.9344 342.21564 575.85626 342.15314Q575.79376 342.075 575.79376 341.96564Q575.79376 341.8875 575.85626 341.8094Q575.90314 341.7625 576.04376 341.7L578.29376 340.9969ZM587.3094 344.16876L587.3094 345.3875Q587.3094 346.96564 586.5594 347.90314Q585.96564 348.6219 585.0594 348.6219Q584.6219 348.6219 584.23126 348.45Q583.85626 348.27814 583.59064 347.96564Q583.41876 347.77814 583.21564 347.35626Q583.0125 346.91876 582.9344 346.5594Q582.79376 346.0594 582.79376 345.3875L582.79376 344.16876Q582.79376 342.575 583.54376 341.65314Q584.1375 340.91876 585.04376 340.91876Q585.48126 340.91876 585.85626 341.09064Q586.2469 341.2625 586.5125 341.575Q586.6844 341.77814 586.8875 342.21564Q587.09064 342.6375 587.1844 342.98126Q587.3094 343.48126 587.3094 344.16876ZM586.825 344.23126Q586.825 343.52814 586.6219 342.9344Q586.41876 342.325 586.1844 341.98126Q586.02814 341.7625 585.79376 341.6219Q585.46564 341.41876 585.04376 341.41876Q584.21564 341.41876 583.7469 342.2625Q583.27814 343.10626 583.27814 344.23126L583.27814 345.3094Q583.27814 346.0125 583.48126 346.6219Q583.6844 347.21564 583.9344 347.575Q584.075 347.77814 584.3094 347.91876Q584.6375 348.1375 585.0594 348.1375Q585.8875 348.1375 586.35626 347.29376Q586.825 346.4344 586.825 345.3094L586.825 344.23126Z" fill-rule="nonzero"/></svg>