<svg version="1.1" viewBox="0.0 0.0 600.0 371.0" fill="none" stroke="none" stroke-linecap="square" stroke-miterlimit="10" width="600" height="371" xmlns:xlink="http://www.w3.org/1999/xlink" xmlns="http://www.w3.org/2000/svg"><path fill="#ffffff" fill-opacity="0.0" d="M0 0L600.0 0L600.0 371.0L0 371.0L0 0Z" fill-rule="nonzero"/><path fill="#306850" d="M300.0 18.55C364.67126 18.55 423.52518 55.899826 451.06088 114.416145C478.59656 172.93246 469.8602 242.08786 428.63718 291.91794L300.0 185.5Z" fill-rule="nonzero"/><path fill="#e0f8cf" d="M258.48123 23.795042C272.04605 20.312187 285.9952 18.55 300.0 18.55L300.0 185.5Z" fill-rule="nonzero"/><path fill="#86c06c" d="M428.63718 291.91794C382.53415 347.64694 305.78967 367.35156 238.54161 340.7262C171.29355 314.1008 128.83798 247.20152 133.37944 175.01712C137.9209 102.83272 188.42639 41.782066 258.48123 23.795042L300.0 185.5Z" fill-rule="nonzero"/><path fill="#ffffff" d="M24.565624 28.55L23.925 28.55L20.3 22.409374L20.3 28.05L21.20625 28.05Q21.39375 28.05 21.471874 28.128124Q21.55 28.190624 21.55 28.3Q21.55 28.409374 21.471874 28.4875Q21.39375 28.55 21.20625 28.55L19.39375 28.55Q19.221874 28.55 19.14375 28.4875Q19.065624 28.409374 19.065624 28.3Q19.065624 28.190624 19.14375 28.128124Q19.221874 28.05 19.39375 28.05L19.815624 28.05L19.815624 22.190624L19.14375 22.190624Q18.971874 22.190624 18.89375 22.128124Q18.815624 22.05 18.815624 21.940624Q18.815624 21.83125 18.89375 21.76875Q18.971874 21.690624 19.14375 21.690624L20.440624 21.690624L24.065624 27.846874L24.065624 22.190624L23.159374 22.190624Q22.9875 22.190624 22.909374 22.128124Q22.83125 22.05 22.83125 21.940624Q22.83125 21.83125 22.909374 21.76875Q22.9875 21.690624 23.159374 21.690624L24.971874 21.690624Q25.159374 21.690624 25.221874 21.76875Q25.3 21.83125 25.3 21.940624Q25.3 22.05 25.221874 22.128124Q25.159374 22.190624 24.971874 22.190624L24.565624 22.190624L24.565624 28.55ZM31.909374 26.01875Q31.909374 27.14375 31.096874 27.940624Q30.284374 28.7375 29.159374 28.7375Q28.003124 28.7375 27.190624 27.940624Q26.39375 27.14375 26.39375 26.01875Q26.39375 24.89375 27.190624 24.096874Q28.003124 23.3 29.159374 23.3Q30.284374 23.3 31.096874 24.096874Q31.909374 24.89375 31.909374 26.01875ZM31.409374 26.01875Q31.409374 25.096874 30.7375 24.45625Q30.08125 23.8 29.14375 23.8Q28.20625 23.8 27.55 24.45625Q26.89375 25.096874 26.89375 26.01875Q26.89375 26.940624 27.55 27.596874Q28.20625 28.253124 29.14375 28.253124Q30.08125 28.253124 30.7375 27.596874Q31.409374 26.940624 31.409374 26.01875ZM34.565624 23.471874L34.565624 24.221874Q35.08125 23.690624 35.4875 23.503124Q35.909374 23.3 36.425 23.3Q36.9875 23.3 37.45625 23.534374Q37.784374 23.721874 38.05 24.128124Q38.315624 24.534374 38.315624 24.95625L38.315624 28.05L38.7375 28.05Q38.909374 28.05 38.9875 28.128124Q39.065624 28.190624 39.065624 28.3Q39.065624 28.409374 38.9875 28.4875Q38.909374 28.55 38.7375 28.55L37.409374 28.55Q37.2375 28.55 37.159374 28.4875Q37.08125 28.409374 37.08125 28.3Q37.08125 28.190624 37.159374 28.128124Q37.2375 28.05 37.409374 28.05L37.83125 28.05L37.83125 25.034374Q37.83125 24.51875 37.440624 24.159374Q37.065624 23.8 36.425 23.8Q35.940624 23.8 35.58125 24.003124Q35.221874 24.190624 34.565624 24.971874L34.565624 28.05L35.1125 28.05Q35.3 28.05 35.3625 28.128124Q35.440624 28.190624 35.440624 28.3Q35.440624 28.409374 35.3625 28.4875Q35.3 28.55 35.1125 28.55L33.51875 28.55Q33.33125 28.55 33.253124 28.4875Q33.190624 28.409374 33.190624 28.3Q33.190624 28.190624 33.253124 28.128124Q33.33125 28.05 33.51875 28.05L34.065624 28.05L34.065624 23.971874L33.659374 23.971874Q33.471874 23.971874 33.39375 23.909374Q33.33125 23.83125 33.33125 23.721874Q33.33125 23.6125 33.39375 23.55Q33.471874 23.471874 33.659374 23.471874L34.565624 23.471874ZM45.659374 24.8L45.659374 25.503124L40.64375 25.503124L40.64375 24.8L45.659374 24.8ZM51.784374 23.8Q51.784374 23.628124 51.846874 23.55Q51.925 23.471874 52.01875 23.471874Q52.128124 23.471874 52.190624 23.55Q52.26875 23.628124 52.26875 23.815624L52.26875 24.659374Q52.26875 24.83125 52.190624 24.909374Q52.128124 24.9875 52.01875 24.9875Q51.925 24.9875 51.846874 24.925Q51.784374 24.846874 51.784374 24.70625Q51.7375 24.346874 51.409374 24.128124Q50.940624 23.8 50.14375 23.8Q49.315624 23.8 48.8625 24.128124Q48.51875 24.378124 48.51875 24.690624Q48.51875 25.05 48.925 25.284374Q49.20625 25.440624 49.9875 25.534374Q51.01875 25.64375 51.409374 25.784374Q51.9875 25.9875 52.253124 26.3625Q52.534374 26.721874 52.534374 27.14375Q52.534374 27.76875 51.925 28.253124Q51.33125 28.7375 50.159374 28.7375Q49.003124 28.7375 48.253124 28.14375Q48.253124 28.346874 48.221874 28.409374Q48.20625 28.471874 48.14375 28.51875Q48.08125 28.55 48.003124 28.55Q47.909374 28.55 47.83125 28.471874Q47.76875 28.39375 47.76875 28.221874L47.76875 27.20625Q47.76875 27.034374 47.83125 26.95625Q47.89375 26.878124 48.003124 26.878124Q48.1125 26.878124 48.190624 26.95625Q48.26875 27.01875 48.26875 27.14375Q48.26875 27.425 48.39375 27.596874Q48.596874 27.878124 49.05 28.065624Q49.503124 28.253124 50.14375 28.253124Q51.1125 28.253124 51.58125 27.89375Q52.05 27.534374 52.05 27.14375Q52.05 26.675 51.565624 26.409374Q51.096874 26.128124 50.175 26.034374Q49.253124 25.940624 48.846874 25.8Q48.45625 25.64375 48.2375 25.346874Q48.01875 25.034374 48.01875 24.675Q48.01875 24.05 48.628124 23.675Q49.253124 23.3 50.1125 23.3Q51.14375 23.3 51.784374 23.8ZM59.909374 26.01875Q59.909374 27.14375 59.096874 27.940624Q58.284374 28.7375 57.159374 28.7375Q56.003124 28.7375 55.190624 27.940624Q54.39375 27.14375 54.39375 26.01875Q54.39375 24.89375 55.190624 24.096874Q56.003124 23.3 57.159374 23.3Q58.284374 23.3 59.096874 24.096874Q59.909374 24.89375 59.909374 26.01875ZM59.409374 26.01875Q59.409374 25.096874 58.7375 24.45625Q58.08125 23.8 57.14375 23.8Q56.20625 23.8 55.55 24.45625Q54.89375 25.096874 54.89375 26.01875Q54.89375 26.940624 55.55 27.596874Q56.20625 28.253124 57.14375 28.253124Q58.08125 28.253124 58.7375 27.596874Q59.409374 26.940624 59.409374 26.01875ZM63.83125 23.971874L63.83125 28.05L65.9875 28.05Q66.15938 28.05 66.2375 28.128124Q66.31563 28.190624 66.31563 28.3Q66.31563 28.409374 66.2375 28.4875Q66.15938 28.55 65.9875 28.55L62.14375 28.55Q61.95625 28.55 61.878124 28.4875Q61.815624 28.409374 61.815624 28.3Q61.815624 28.190624 61.878124 28.128124Q61.95625 28.05 62.14375 28.05L63.33125 28.05L63.33125 23.971874L62.26875 23.971874Q62.08125 23.971874 62.003124 23.909374Q61.940624 23.83125 61.940624 23.721874Q61.940624 23.6125 62.003124 23.55Q62.08125 23.471874 62.26875 23.471874L63.33125 23.471874L63.33125 22.7375Q63.33125 22.1125 63.83125 21.659374Q64.33125 21.190624 65.175 21.190624Q65.8625 21.190624 66.65938 21.33125Q66.95625 21.378124 67.01875 21.440624Q67.08125 21.503124 67.08125 21.6125Q67.08125 21.70625 67.00313 21.784374Q66.94063 21.846874 66.81563 21.846874Q66.76875 21.846874 66.65938 21.83125Q65.78438 21.690624 65.175 21.690624Q64.51875 21.690624 64.175 22.01875Q63.83125 22.33125 63.83125 22.7375L63.83125 23.471874L66.12813 23.471874Q66.3 23.471874 66.37813 23.55Q66.45625 23.6125 66.45625 23.721874Q66.45625 23.83125 66.37813 23.909374Q66.3 23.971874 66.12813 23.971874L63.83125 23.971874ZM70.14375 23.471874L72.81563 23.471874Q72.9875 23.471874 73.06563 23.55Q73.14375 23.6125 73.14375 23.721874Q73.14375 23.83125 73.06563 23.909374Q72.9875 23.971874 72.81563 23.971874L70.14375 23.971874L70.14375 27.253124Q70.14375 27.675 70.4875 27.971874Q70.83125 28.253124 71.4875 28.253124Q71.9875 28.253124 72.56563 28.1125Q73.14375 27.95625 73.47188 27.76875Q73.58125 27.690624 73.65938 27.690624Q73.75313 27.690624 73.81563 27.76875Q73.89375 27.83125 73.89375 27.940624Q73.89375 28.01875 73.81563 28.096874Q73.62813 28.284374 72.90938 28.51875Q72.19063 28.7375 71.51875 28.7375Q70.65938 28.7375 70.14375 28.346874Q69.64375 27.940624 69.64375 27.253124L69.64375 23.971874L68.7375 23.971874Q68.56563 23.971874 68.4875 23.909374Q68.40938 23.83125 68.40938 23.721874Q68.40938 23.6125 68.4875 23.55Q68.56563 23.471874 68.7375 23.471874L69.64375 23.471874L69.64375 22.01875Q69.64375 21.846874 69.70625 21.76875Q69.78438 21.690624 69.89375 21.690624Q70.00313 21.690624 70.06563 21.76875Q70.14375 21.846874 70.14375 22.01875L70.14375 23.471874ZM79.84688 28.55L79.2375 28.55L78.15938 25.39375L77.08125 28.55L76.47188 28.55L75.44063 23.971874L75.20625 23.971874Q75.03438 23.971874 74.95625 23.909374Q74.87813 23.83125 74.87813 23.721874Q74.87813 23.6125 74.95625 23.55Q75.03438 23.471874 75.20625 23.471874L76.56563 23.471874Q76.7375 23.471874 76.81563 23.55Q76.89375 23.6125 76.89375 23.721874Q76.89375 23.83125 76.81563 23.909374Q76.7375 23.971874 76.56563 23.971874L75.94063 23.971874L76.8 27.878124L77.8625 24.753124L78.44063 24.753124L79.51875 27.878124L80.3625 23.971874L79.7375 23.971874Q79.56563 23.971874 79.4875 23.909374Q79.40938 23.83125 79.40938 23.721874Q79.40938 23.6125 79.47188 23.55Q79.55 23.471874 79.7375 23.471874L81.08125 23.471874Q81.26875 23.471874 81.34688 23.55Q81.425 23.6125 81.425 23.721874Q81.425 23.83125 81.34688 23.909374Q81.26875 23.971874 81.08125 23.971874L80.84688 23.971874L79.84688 28.55ZM86.56563 28.55L86.56563 27.846874Q85.4875 28.7375 84.26875 28.7375Q83.39375 28.7375 82.89375 28.3Q82.39375 27.846874 82.39375 27.190624Q82.39375 26.4875 83.05 25.95625Q83.70625 25.409374 84.97188 25.409374Q85.3 25.409374 85.69063 25.45625Q86.09688 25.503124 86.56563 25.596874L86.56563 24.8Q86.56563 24.39375 86.19063 24.096874Q85.81563 23.8 85.06563 23.8Q84.4875 23.8 83.45625 24.128124Q83.26875 24.190624 83.22188 24.190624Q83.12813 24.190624 83.05 24.128124Q82.9875 24.05 82.9875 23.940624Q82.9875 23.846874 83.05 23.784374Q83.12813 23.690624 83.70625 23.55Q84.62813 23.3 85.09688 23.3Q86.01875 23.3 86.53438 23.76875Q87.06563 24.221874 87.06563 24.8L87.06563 28.05L87.72188 28.05Q87.90938 28.05 87.97188 28.128124Q88.05 28.190624 88.05 28.3Q88.05 28.409374 87.97188 28.4875Q87.90938 28.55 87.72188 28.55L86.56563 28.55ZM86.56563 26.096874Q86.22188 26.003124 85.83125 25.95625Q85.44063 25.909374 85.01875 25.909374Q83.94063 25.909374 83.34688 26.3625Q82.89375 26.721874 82.89375 27.190624Q82.89375 27.64375 83.2375 27.95625Q83.58125 28.253124 84.25313 28.253124Q84.89375 28.253124 85.44063 28.003124Q85.9875 27.7375 86.56563 27.190624L86.56563 26.096874ZM91.56563 23.471874L91.56563 24.721874Q92.51875 23.846874 92.9875 23.596874Q93.47188 23.346874 93.87813 23.346874Q94.31563 23.346874 94.69063 23.64375Q95.08125 23.940624 95.08125 24.096874Q95.08125 24.20625 95.00313 24.284374Q94.925 24.346874 94.81563 24.346874Q94.76875 24.346874 94.72188 24.33125Q94.675 24.315624 94.56563 24.20625Q94.3625 24.003124 94.20625 23.925Q94.06563 23.846874 93.90938 23.846874Q93.59688 23.846874 93.12813 24.1125Q92.675 24.3625 91.56563 25.3625L91.56563 28.05L93.7375 28.05Q93.925 28.05 94.00313 28.128124Q94.08125 28.190624 94.08125 28.3Q94.08125 28.409374 94.00313 28.4875Q93.925 28.55 93.7375 28.55L89.87813 28.55Q89.70625 28.55 89.62813 28.4875Q89.55 28.409374 89.55 28.315624Q89.55 28.20625 89.62813 28.14375Q89.70625 28.08125 89.87813 28.08125L91.06563 28.08125L91.06563 23.971874L90.15938 23.971874Q89.9875 23.971874 89.90938 23.909374Q89.83125 23.83125 89.83125 23.721874Q89.83125 23.6125 89.90938 23.55Q89.9875 23.471874 90.15938 23.471874L91.56563 23.471874ZM101.81563 26.128124L96.8 26.128124Q96.925 27.08125 97.59688 27.675Q98.26875 28.253124 99.25313 28.253124Q99.81563 28.253124 100.40938 28.08125Q101.01875 27.89375 101.39375 27.58125Q101.50313 27.503124 101.59688 27.503124Q101.69063 27.503124 101.75313 27.58125Q101.83125 27.64375 101.83125 27.753124Q101.83125 27.846874 101.7375 27.940624Q101.45625 28.2375 100.7375 28.4875Q100.01875 28.7375 99.25313 28.7375Q97.9875 28.7375 97.14375 27.909374Q96.3 27.08125 96.3 25.909374Q96.3 24.83125 97.09688 24.065624Q97.89375 23.3 99.06563 23.3Q100.26875 23.3 101.05 24.096874Q101.83125 24.878124 101.81563 26.128124ZM101.31563 25.628124Q101.175 24.815624 100.55 24.315624Q99.925 23.8 99.06563 23.8Q98.20625 23.8 97.58125 24.3Q96.95625 24.8 96.8 25.628124L101.31563 25.628124Z" fill-rule="nonzero"/><path fill="#9e9e9e" d="M23.065624 43.4875L19.8 43.4875L19.8 42.925L22.534374 38.190624L23.565624 38.190624L23.565624 43.003124L23.971874 43.003124Q24.159374 43.003124 24.2375 43.065624Q24.315624 43.128124 24.315624 43.253124Q24.315624 43.346874 24.2375 43.425Q24.159374 43.4875 23.971874 43.4875L23.565624 43.4875L23.565624 45.05L23.971874 45.05Q24.159374 45.05 24.2375 45.128124Q24.315624 45.190624 24.315624 45.3Q24.315624 45.409374 24.2375 45.4875Q24.159374 45.55 23.971874 45.55L22.14375 45.55Q21.971874 45.55 21.89375 45.4875Q21.815624 45.409374 21.815624 45.3Q21.815624 45.190624 21.89375 45.128124Q21.971874 45.05 22.14375 45.05L23.065624 45.05L23.065624 43.4875ZM23.065624 43.003124L23.065624 38.690624L22.815624 38.690624L20.315624 43.003124L23.065624 43.003124ZM29.05 44.14375L29.253124 44.14375Q29.58125 44.14375 29.815624 44.378124Q30.05 44.596874 30.05 44.925Q30.05 45.26875 29.815624 45.503124Q29.58125 45.721874 29.253124 45.721874L29.05 45.721874Q28.721874 45.721874 28.4875 45.503124Q28.253124 45.26875 28.253124 44.940624Q28.253124 44.596874 28.4875 44.378124Q28.721874 44.14375 29.05 44.14375ZM38.409374 41.26875L38.409374 42.4875Q38.409374 44.065624 37.659374 45.003124Q37.065624 45.721874 36.159374 45.721874Q35.721874 45.721874 35.33125 45.55Q34.95625 45.378124 34.690624 45.065624Q34.51875 44.878124 34.315624 44.45625Q34.1125 44.01875 34.034374 43.659374Q33.89375 43.159374 33.89375 42.4875L33.89375 41.26875Q33.89375 39.675 34.64375 38.753124Q35.2375 38.01875 36.14375 38.01875Q36.58125 38.01875 36.95625 38.190624Q37.346874 38.3625 37.6125 38.675Q37.784374 38.878124 37.9875 39.315624Q38.190624 39.7375 38.284374 40.08125Q38.409374 40.58125 38.409374 41.26875ZM37.925 41.33125Q37.925 40.628124 37.721874 40.034374Q37.51875 39.425 37.284374 39.08125Q37.128124 38.8625 36.89375 38.721874Q36.565624 38.51875 36.14375 38.51875Q35.315624 38.51875 34.846874 39.3625Q34.378124 40.20625 34.378124 41.33125L34.378124 42.409374Q34.378124 43.1125 34.58125 43.721874Q34.784374 44.315624 35.034374 44.675Q35.175 44.878124 35.409374 45.01875Q35.7375 45.2375 36.159374 45.2375Q36.9875 45.2375 37.45625 44.39375Q37.925 43.534374 37.925 42.409374L37.925 41.33125ZM43.89375 39.596874Q43.89375 40.221874 43.45625 40.675Q43.01875 41.1125 42.39375 41.1125Q41.784374 41.1125 41.33125 40.675Q40.89375 40.221874 40.89375 39.596874Q40.89375 38.95625 41.33125 38.51875Q41.784374 38.08125 42.39375 38.08125Q43.01875 38.08125 43.45625 38.51875Q43.89375 38.95625 43.89375 39.596874ZM43.55 39.596874Q43.55 39.1125 43.20625 38.76875Q42.878124 38.425 42.39375 38.425Q41.925 38.425 41.58125 38.76875Q41.253124 39.1125 41.253124 39.596874Q41.253124 40.08125 41.58125 40.425Q41.925 40.76875 42.39375 40.76875Q42.878124 40.76875 43.20625 40.425Q43.55 40.08125 43.55 39.596874ZM45.4875 41.3L40.940624 42.784374Q40.846874 42.8 40.815624 42.8Q40.753124 42.8 40.690624 42.753124Q40.64375 42.70625 40.64375 42.628124Q40.64375 42.565624 40.690624 42.51875Q40.721874 42.471874 40.815624 42.440624L45.378124 40.95625Q45.45625 40.940624 45.503124 40.940624Q45.565624 40.940624 45.6125 41.003124Q45.675 41.05 45.675 41.1125Q45.675 41.175 45.628124 41.2375Q45.596874 41.26875 45.4875 41.3ZM45.409374 44.175Q45.409374 44.8 44.971874 45.253124Q44.534374 45.690624 43.909374 45.690624Q43.3 45.690624 42.846874 45.253124Q42.409374 44.8 42.409374 44.175Q42.409374 43.534374 42.846874 43.096874Q43.284374 42.64375 43.909374 42.64375Q44.534374 42.64375 44.971874 43.096874Q45.409374 43.534374 45.409374 44.175ZM45.065624 44.175Q45.065624 43.675 44.721874 43.346874Q44.378124 43.003124 43.909374 43.003124Q43.440624 43.003124 43.096874 43.346874Q42.76875 43.690624 42.76875 44.175Q42.76875 44.659374 43.096874 45.003124Q43.440624 45.33125 43.909374 45.33125Q44.378124 45.33125 44.721874 45.003124Q45.065624 44.659374 45.065624 44.175Z" fill-rule="nonzero"/><path stroke="#757575" stroke-width="1.0" stroke-linecap="butt" d="M18.55 34.05L127.05 34.05L280.12183 28.148129" fill-rule="nonzero"/><path fill="#9e9e9e" d="M282.12183 28.148129C282.12183 27.043558 281.2264 26.148129 280.12183 26.148129C279.01727 26.148129 278.12183 27.043558 278.12183 28.148129C278.12183 29.252697 279.01727 30.148129 280.12183 30.148129C281.2264 30.148129 282.12183 29.252697 282.12183 28.148129" fill-rule="nonzero"/><path fill="#ffffff" d="M23.909374 258.62408L23.909374 258.4522Q23.909374 258.28033 23.971874 258.2022Q24.05 258.12408 24.159374 258.12408Q24.26875 258.12408 24.33125 258.2022Q24.409374 258.28033 24.409374 258.4522L24.409374 259.7022Q24.409374 259.8897 24.33125 259.96783Q24.26875 260.03033 24.159374 260.03033Q24.05 260.03033 23.9875 259.96783Q23.925 259.8897 23.909374 259.73346Q23.878124 259.24908 23.39375 258.85846Q22.925 258.46783 22.159374 258.46783Q21.346874 258.46783 20.8625 258.8897Q20.378124 259.29596 20.378124 259.87408Q20.378124 260.15533 20.503124 260.40533Q20.64375 260.6397 20.8625 260.79596Q21.096874 260.93658 21.378124 261.03033Q21.659374 261.12408 22.253124 261.21783Q23.253124 261.3897 23.64375 261.56158Q24.14375 261.78033 24.409374 262.18658Q24.675 262.59283 24.675 263.1397Q24.675 263.98346 23.9875 264.5772Q23.315624 265.17096 22.175 265.17096Q20.89375 265.17096 20.128124 264.37408L20.128124 264.65533Q20.128124 264.8272 20.05 264.90533Q19.9875 264.98346 19.878124 264.98346Q19.76875 264.98346 19.690624 264.90533Q19.628124 264.8272 19.628124 264.65533L19.628124 263.29596Q19.628124 263.10846 19.690624 263.04596Q19.76875 262.96783 19.878124 262.96783Q19.9875 262.96783 20.05 263.04596Q20.128124 263.10846 20.128124 263.2647Q20.159374 263.79596 20.70625 264.24908Q21.253124 264.68658 22.175 264.68658Q23.096874 264.68658 23.628124 264.23346Q24.175 263.7647 24.175 263.12408Q24.175 262.73346 23.971874 262.43658Q23.76875 262.1397 23.3625 261.9522Q23.08125 261.84283 22.190624 261.68658Q20.971874 261.48346 20.425 261.06158Q19.89375 260.6397 19.89375 259.85846Q19.89375 259.0772 20.503124 258.53033Q21.128124 257.96783 22.14375 257.96783Q23.175 257.96783 23.909374 258.62408ZM31.909374 262.4522Q31.909374 263.5772 31.096874 264.37408Q30.284374 265.17096 29.159374 265.17096Q28.003124 265.17096 27.190624 264.37408Q26.39375 263.5772 26.39375 262.4522Q26.39375 261.3272 27.190624 260.53033Q28.003124 259.73346 29.159374 259.73346Q30.284374 259.73346 31.096874 260.53033Q31.909374 261.3272 31.909374 262.4522ZM31.409374 262.4522Q31.409374 261.53033 30.7375 260.8897Q30.08125 260.23346 29.14375 260.23346Q28.20625 260.23346 27.55 260.8897Q26.89375 261.53033 26.89375 262.4522Q26.89375 263.37408 27.55 264.03033Q28.20625 264.68658 29.14375 264.68658Q30.08125 264.68658 30.7375 264.03033Q31.409374 263.37408 31.409374 262.4522ZM35.83125 260.40533L35.83125 264.48346L37.9875 264.48346Q38.159374 264.48346 38.2375 264.56158Q38.315624 264.62408 38.315624 264.73346Q38.315624 264.84283 38.2375 264.92096Q38.159374 264.98346 37.9875 264.98346L34.14375 264.98346Q33.95625 264.98346 33.878124 264.92096Q33.815624 264.84283 33.815624 264.73346Q33.815624 264.62408 33.878124 264.56158Q33.95625 264.48346 34.14375 264.48346L35.33125 264.48346L35.33125 260.40533L34.26875 260.40533Q34.08125 260.40533 34.003124 260.34283Q33.940624 260.2647 33.940624 260.15533Q33.940624 260.04596 34.003124 259.98346Q34.08125 259.90533 34.26875 259.90533L35.33125 259.90533L35.33125 259.17096Q35.33125 258.54596 35.83125 258.09283Q36.33125 257.62408 37.175 257.62408Q37.8625 257.62408 38.659374 257.7647Q38.95625 257.81158 39.01875 257.87408Q39.08125 257.93658 39.08125 258.04596Q39.08125 258.1397 39.003124 258.21783Q38.940624 258.28033 38.815624 258.28033Q38.76875 258.28033 38.659374 258.2647Q37.784374 258.12408 37.175 258.12408Q36.51875 258.12408 36.175 258.4522Q35.83125 258.7647 35.83125 259.17096L35.83125 259.90533L38.128124 259.90533Q38.3 259.90533 38.378124 259.98346Q38.45625 260.04596 38.45625 260.15533Q38.45625 260.2647 38.378124 260.34283Q38.3 260.40533 38.128124 260.40533L35.83125 260.40533ZM42.14375 259.90533L44.815624 259.90533Q44.9875 259.90533 45.065624 259.98346Q45.14375 260.04596 45.14375 260.15533Q45.14375 260.2647 45.065624 260.34283Q44.9875 260.40533 44.815624 260.40533L42.14375 260.40533L42.14375 263.68658Q42.14375 264.10846 42.4875 264.40533Q42.83125 264.68658 43.4875 264.68658Q43.9875 264.68658 44.565624 264.54596Q45.14375 264.3897 45.471874 264.2022Q45.58125 264.12408 45.659374 264.12408Q45.753124 264.12408 45.815624 264.2022Q45.89375 264.2647 45.89375 264.37408Q45.89375 264.4522 45.815624 264.53033Q45.628124 264.71783 44.909374 264.9522Q44.190624 265.17096 43.51875 265.17096Q42.659374 265.17096 42.14375 264.78033Q41.64375 264.37408 41.64375 263.68658L41.64375 260.40533L40.7375 260.40533Q40.565624 260.40533 40.4875 260.34283Q40.409374 260.2647 40.409374 260.15533Q40.409374 260.04596 40.4875 259.98346Q40.565624 259.90533 40.7375 259.90533L41.64375 259.90533L41.64375 258.4522Q41.64375 258.28033 41.70625 258.2022Q41.784374 258.12408 41.89375 258.12408Q42.003124 258.12408 42.065624 258.2022Q42.14375 258.28033 42.14375 258.4522L42.14375 259.90533ZM51.846874 264.98346L51.2375 264.98346L50.159374 261.8272L49.08125 264.98346L48.471874 264.98346L47.440624 260.40533L47.20625 260.40533Q47.034374 260.40533 46.95625 260.34283Q46.878124 260.2647 46.878124 260.15533Q46.878124 260.04596 46.95625 259.98346Q47.034374 259.90533 47.20625 259.90533L48.565624 259.90533Q48.7375 259.90533 48.815624 259.98346Q48.89375 260.04596 48.89375 260.15533Q48.89375 260.2647 48.815624 260.34283Q48.7375 260.40533 48.565624 260.40533L47.940624 260.40533L48.8 264.31158L49.8625 261.18658L50.440624 261.18658L51.51875 264.31158L52.3625 260.40533L51.7375 260.40533Q51.565624 260.40533 51.4875 260.34283Q51.409374 260.2647 51.409374 260.15533Q51.409374 260.04596 51.471874 259.98346Q51.55 259.90533 51.7375 259.90533L53.08125 259.90533Q53.26875 259.90533 53.346874 259.98346Q53.425 260.04596 53.425 260.15533Q53.425 260.2647 53.346874 260.34283Q53.26875 260.40533 53.08125 260.40533L52.846874 260.40533L51.846874 264.98346ZM58.565624 264.98346L58.565624 264.28033Q57.4875 265.17096 56.26875 265.17096Q55.39375 265.17096 54.89375 264.73346Q54.39375 264.28033 54.39375 263.62408Q54.39375 262.92096 55.05 262.3897Q55.70625 261.84283 56.971874 261.84283Q57.3 261.84283 57.690624 261.8897Q58.096874 261.93658 58.565624 262.03033L58.565624 261.23346Q58.565624 260.8272 58.190624 260.53033Q57.815624 260.23346 57.065624 260.23346Q56.4875 260.23346 55.45625 260.56158Q55.26875 260.62408 55.221874 260.62408Q55.128124 260.62408 55.05 260.56158Q54.9875 260.48346 54.9875 260.37408Q54.9875 260.28033 55.05 260.21783Q55.128124 260.12408 55.70625 259.98346Q56.628124 259.73346 57.096874 259.73346Q58.01875 259.73346 58.534374 260.2022Q59.065624 260.65533 59.065624 261.23346L59.065624 264.48346L59.721874 264.48346Q59.909374 264.48346 59.971874 264.56158Q60.05 264.62408 60.05 264.73346Q60.05 264.84283 59.971874 264.92096Q59.909374 264.98346 59.721874 264.98346L58.565624 264.98346ZM58.565624 262.53033Q58.221874 262.43658 57.83125 262.3897Q57.440624 262.34283 57.01875 262.34283Q55.940624 262.34283 55.346874 262.79596Q54.89375 263.15533 54.89375 263.62408Q54.89375 264.0772 55.2375 264.3897Q55.58125 264.68658 56.253124 264.68658Q56.89375 264.68658 57.440624 264.43658Q57.9875 264.17096 58.565624 263.62408L58.565624 262.53033ZM63.565624 259.90533L63.565624 261.15533Q64.51875 260.28033 64.9875 260.03033Q65.47188 259.78033 65.87813 259.78033Q66.31563 259.78033 66.69063 260.0772Q67.08125 260.37408 67.08125 260.53033Q67.08125 260.6397 67.00313 260.71783Q66.925 260.78033 66.81563 260.78033Q66.76875 260.78033 66.72188 260.7647Q66.675 260.74908 66.56563 260.6397Q66.3625 260.43658 66.20625 260.35846Q66.06563 260.28033 65.90938 260.28033Q65.59688 260.28033 65.12813 260.54596Q64.675 260.79596 63.565624 261.79596L63.565624 264.48346L65.7375 264.48346Q65.925 264.48346 66.00313 264.56158Q66.08125 264.62408 66.08125 264.73346Q66.08125 264.84283 66.00313 264.92096Q65.925 264.98346 65.7375 264.98346L61.878124 264.98346Q61.70625 264.98346 61.628124 264.92096Q61.55 264.84283 61.55 264.74908Q61.55 264.6397 61.628124 264.5772Q61.70625 264.5147 61.878124 264.5147L63.065624 264.5147L63.065624 260.40533L62.159374 260.40533Q61.9875 260.40533 61.909374 260.34283Q61.83125 260.2647 61.83125 260.15533Q61.83125 260.04596 61.909374 259.98346Q61.9875 259.90533 62.159374 259.90533L63.565624 259.90533ZM73.81563 262.56158L68.8 262.56158Q68.925 263.5147 69.59688 264.10846Q70.26875 264.68658 71.25313 264.68658Q71.81563 264.68658 72.40938 264.5147Q73.01875 264.3272 73.39375 264.0147Q73.50313 263.93658 73.59688 263.93658Q73.69063 263.93658 73.75313 264.0147Q73.83125 264.0772 73.83125 264.18658Q73.83125 264.28033 73.7375 264.37408Q73.45625 264.67096 72.7375 264.92096Q72.01875 265.17096 71.25313 265.17096Q69.9875 265.17096 69.14375 264.34283Q68.3 263.5147 68.3 262.34283Q68.3 261.2647 69.09688 260.49908Q69.89375 259.73346 71.06563 259.73346Q72.26875 259.73346 73.05 260.53033Q73.83125 261.31158 73.81563 262.56158ZM73.31563 262.06158Q73.175 261.24908 72.55 260.74908Q71.925 260.23346 71.06563 260.23346Q70.20625 260.23346 69.58125 260.73346Q68.95625 261.23346 68.8 262.06158L73.31563 262.06158Z" fill-rule="nonzero"/><path fill="#9e9e9e" d="M20.690624 278.87408Q21.14375 278.2022 21.628124 277.87408Q22.1125 277.54596 22.70625 277.54596Q23.4875 277.54596 24.096874 278.2022Q24.70625 278.85846 24.70625 279.8272Q24.70625 280.7022 24.14375 281.43658Q23.596874 282.15533 22.6125 282.15533Q21.971874 282.15533 21.409374 281.7647Q20.8625 281.37408 20.55 280.56158Q20.159374 279.54596 20.159374 278.31158Q20.159374 277.3897 20.51875 276.59283Q20.8 275.98346 21.26875 275.5147Q21.7375 275.04596 22.3625 274.74908Q22.9875 274.4522 23.721874 274.4522Q24.20625 274.4522 24.534374 274.65533Q24.675 274.73346 24.675 274.8897Q24.675 274.99908 24.6125 275.06158Q24.55 275.12408 24.45625 275.12408Q24.378124 275.12408 24.26875 275.06158Q24.034374 274.9522 23.675 274.9522Q22.534374 274.9522 21.58125 275.93658Q20.64375 276.92096 20.64375 278.2647Q20.64375 278.46783 20.690624 278.87408ZM20.8 279.68658Q21.01875 280.74908 21.4875 281.21783Q21.971874 281.67096 22.628124 281.67096Q23.284374 281.67096 23.7375 281.15533Q24.20625 280.6397 24.20625 279.8272Q24.20625 279.04596 23.7375 278.54596Q23.26875 278.04596 22.675 278.04596Q22.1125 278.04596 21.58125 278.53033Q21.2375 278.85846 20.8 279.68658ZM31.409374 277.7022L31.409374 278.92096Q31.409374 280.49908 30.659374 281.43658Q30.065624 282.15533 29.159374 282.15533Q28.721874 282.15533 28.33125 281.98346Q27.95625 281.81158 27.690624 281.49908Q27.51875 281.31158 27.315624 280.8897Q27.1125 280.4522 27.034374 280.09283Q26.89375 279.59283 26.89375 278.92096L26.89375 277.7022Q26.89375 276.10846 27.64375 275.18658Q28.2375 274.4522 29.14375 274.4522Q29.58125 274.4522 29.95625 274.62408Q30.346874 274.79596 30.6125 275.10846Q30.784374 275.31158 30.9875 275.74908Q31.190624 276.17096 31.284374 276.5147Q31.409374 277.0147 31.409374 277.7022ZM30.925 277.7647Q30.925 277.06158 30.721874 276.46783Q30.51875 275.85846 30.284374 275.5147Q30.128124 275.29596 29.89375 275.15533Q29.565624 274.9522 29.14375 274.9522Q28.315624 274.9522 27.846874 275.79596Q27.378124 276.6397 27.378124 277.7647L27.378124 278.84283Q27.378124 279.54596 27.58125 280.15533Q27.784374 280.74908 28.034374 281.10846Q28.175 281.31158 28.409374 281.4522Q28.7375 281.67096 29.159374 281.67096Q29.9875 281.67096 30.45625 280.8272Q30.925 279.96783 30.925 278.84283L30.925 277.7647ZM36.05 280.5772L36.253124 280.5772Q36.58125 280.5772 36.815624 280.81158Q37.05 281.03033 37.05 281.35846Q37.05 281.7022 36.815624 281.93658Q36.58125 282.15533 36.253124 282.15533L36.05 282.15533Q35.721874 282.15533 35.4875 281.93658Q35.253124 281.7022 35.253124 281.37408Q35.253124 281.03033 35.4875 280.81158Q35.721874 280.5772 36.05 280.5772ZM45.409374 277.7022L45.409374 278.92096Q45.409374 280.49908 44.659374 281.43658Q44.065624 282.15533 43.159374 282.15533Q42.721874 282.15533 42.33125 281.98346Q41.95625 281.81158 41.690624 281.49908Q41.51875 281.31158 41.315624 280.8897Q41.1125 280.4522 41.034374 280.09283Q40.89375 279.59283 40.89375 278.92096L40.89375 277.7022Q40.89375 276.10846 41.64375 275.18658Q42.2375 274.4522 43.14375 274.4522Q43.58125 274.4522 43.95625 274.62408Q44.346874 274.79596 44.6125 275.10846Q44.784374 275.31158 44.9875 275.74908Q45.190624 276.17096 45.284374 276.5147Q45.409374 277.0147 45.409374 277.7022ZM44.925 277.7647Q44.925 277.06158 44.721874 276.46783Q44.51875 275.85846 44.284374 275.5147Q44.128124 275.29596 43.89375 275.15533Q43.565624 274.9522 43.14375 274.9522Q42.315624 274.9522 41.846874 275.79596Q41.378124 276.6397 41.378124 277.7647L41.378124 278.84283Q41.378124 279.54596 41.58125 280.15533Q41.784374 280.74908 42.034374 281.10846Q42.175 281.31158 42.409374 281.4522Q42.7375 281.67096 43.159374 281.67096Q43.9875 281.67096 44.45625 280.8272Q44.925 279.96783 44.925 278.84283L44.925 277.7647ZM50.89375 276.03033Q50.89375 276.65533 50.45625 277.10846Q50.01875 277.54596 49.39375 277.54596Q48.784374 277.54596 48.33125 277.10846Q47.89375 276.65533 47.89375 276.03033Q47.89375 275.3897 48.33125 274.9522Q48.784374 274.5147 49.39375 274.5147Q50.01875 274.5147 50.45625 274.9522Q50.89375 275.3897 50.89375 276.03033ZM50.55 276.03033Q50.55 275.54596 50.20625 275.2022Q49.878124 274.85846 49.39375 274.85846Q48.925 274.85846 48.58125 275.2022Q48.253124 275.54596 48.253124 276.03033Q48.253124 276.5147 48.58125 276.85846Q48.925 277.2022 49.39375 277.2022Q49.878124 277.2022 50.20625 276.85846Q50.55 276.5147 50.55 276.03033ZM52.4875 277.73346L47.940624 279.21783Q47.846874 279.23346 47.815624 279.23346Q47.753124 279.23346 47.690624 279.18658Q47.64375 279.1397 47.64375 279.06158Q47.64375 278.99908 47.690624 278.9522Q47.721874 278.90533 47.815624 278.87408L52.378124 277.3897Q52.45625 277.37408 52.503124 277.37408Q52.565624 277.37408 52.6125 277.43658Q52.675 277.48346 52.675 277.54596Q52.675 277.60846 52.628124 277.67096Q52.596874 277.7022 52.4875 277.73346ZM52.409374 280.60846Q52.409374 281.23346 51.971874 281.68658Q51.534374 282.12408 50.909374 282.12408Q50.3 282.12408 49.846874 281.68658Q49.409374 281.23346 49.409374 280.60846Q49.409374 279.96783 49.846874 279.53033Q50.284374 279.0772 50.909374 279.0772Q51.534374 279.0772 51.971874 279.53033Q52.409374 279.96783 52.409374 280.60846ZM52.065624 280.60846Q52.065624 280.10846 51.721874 279.78033Q51.378124 279.43658 50.909374 279.43658Q50.440624 279.43658 50.096874 279.78033Q49.76875 280.12408 49.76875 280.60846Q49.76875 281.09283 50.096874 281.43658Q50.440624 281.7647 50.909374 281.7647Q51.378124 281.7647 51.721874 281.43658Q52.065624 281.09283 52.065624 280.60846Z" fill-rule="nonzero"/><path stroke="#757575" stroke-width="1.0" stroke-linecap="butt" d="M18.55 270.48346L127.05 270.48346L166.08748 270.48346" fill-rule="nonzero"/><path fill="#9e9e9e" d="M168.08748 270.48346C168.08748 269.3789 167.19205 268.48346 166.08748 268.48346C164.98291 268.48346 164.08748 269.3789 164.08748 270.48346C164.08748 271.58804 164.98291 272.48346 166.08748 272.48346C167.19205 272.48346 168.08748 271.58804 168.08748 270.48346" fill-rule="nonzero"/><path fill="#ffffff" d="M537.8094 106.11096L537.8094 105.93909Q537.8094 105.76721 537.8719 105.68909Q537.95 105.61096 538.0594 105.61096Q538.16876 105.61096 538.23126 105.68909Q538.3094 105.76721 538.3094 105.93909L538.3094 107.18909Q538.3094 107.37659 538.23126 107.45471Q538.16876 107.51721 538.0594 107.51721Q537.95 107.51721 537.8875 107.45471Q537.825 107.37659 537.8094 107.22034Q537.77814 106.73596 537.29376 106.34534Q536.825 105.95471 536.0594 105.95471Q535.2469 105.95471 534.7625 106.37659Q534.27814 106.78284 534.27814 107.36096Q534.27814 107.64221 534.40314 107.89221Q534.54376 108.12659 534.7625 108.28284Q534.9969 108.42346 535.27814 108.51721Q535.5594 108.61096 536.15314 108.70471Q537.15314 108.87659 537.54376 109.04846Q538.04376 109.26721 538.3094 109.67346Q538.575 110.07971 538.575 110.62659Q538.575 111.47034 537.8875 112.06409Q537.21564 112.65784 536.075 112.65784Q534.79376 112.65784 534.02814 111.86096L534.02814 112.14221Q534.02814 112.31409 533.95 112.39221Q533.8875 112.47034 533.77814 112.47034Q533.66876 112.47034 533.59064 112.39221Q533.52814 112.31409 533.52814 112.14221L533.52814 110.78284Q533.52814 110.59534 533.59064 110.53284Q533.66876 110.45471 533.77814 110.45471Q533.8875 110.45471 533.95 110.53284Q534.02814 110.59534 534.02814 110.75159Q534.0594 111.28284 534.60626 111.73596Q535.15314 112.17346 536.075 112.17346Q536.9969 112.17346 537.52814 111.72034Q538.075 111.25159 538.075 110.61096Q538.075 110.22034 537.8719 109.92346Q537.66876 109.62659 537.2625 109.43909Q536.98126 109.32971 536.09064 109.17346Q534.8719 108.97034 534.325 108.54846Q533.79376 108.12659 533.79376 107.34534Q533.79376 106.56409 534.40314 106.01721Q535.02814 105.45471 536.04376 105.45471Q537.075 105.45471 537.8094 106.11096ZM542.04376 107.39221L544.71564 107.39221Q544.8875 107.39221 544.96564 107.47034Q545.04376 107.53284 545.04376 107.64221Q545.04376 107.75159 544.96564 107.82971Q544.8875 107.89221 544.71564 107.89221L542.04376 107.89221L542.04376 111.17346Q542.04376 111.59534 542.3875 111.89221Q542.73126 112.17346 543.3875 112.17346Q543.8875 112.17346 544.46564 112.03284Q545.04376 111.87659 545.3719 111.68909Q545.48126 111.61096 545.5594 111.61096Q545.65314 111.61096 545.71564 111.68909Q545.79376 111.75159 545.79376 111.86096Q545.79376 111.93909 545.71564 112.01721Q545.52814 112.20471 544.8094 112.43909Q544.09064 112.65784 543.41876 112.65784Q542.5594 112.65784 542.04376 112.26721Q541.54376 111.86096 541.54376 111.17346L541.54376 107.89221L540.6375 107.89221Q540.46564 107.89221 540.3875 107.82971Q540.3094 107.75159 540.3094 107.64221Q540.3094 107.53284 540.3875 107.47034Q540.46564 107.39221 540.6375 107.39221L541.54376 107.39221L541.54376 105.93909Q541.54376 105.76721 541.60626 105.68909Q541.6844 105.61096 541.79376 105.61096Q541.90314 105.61096 541.96564 105.68909Q542.04376 105.76721 542.04376 105.93909L542.04376 107.39221ZM551.73126 112.47034L551.73126 111.75159Q550.73126 112.65784 549.5594 112.65784Q548.84064 112.65784 548.46564 112.26721Q547.98126 111.75159 547.98126 111.06409L547.98126 107.89221L547.3094 107.89221Q547.1375 107.89221 547.0594 107.82971Q546.98126 107.75159 546.98126 107.64221Q546.98126 107.53284 547.0594 107.47034Q547.1375 107.39221 547.3094 107.39221L548.46564 107.39221L548.46564 111.06409Q548.46564 111.54846 548.7625 111.86096Q549.075 112.17346 549.52814 112.17346Q550.73126 112.17346 551.73126 111.06409L551.73126 107.89221L550.825 107.89221Q550.65314 107.89221 550.575 107.82971Q550.4969 107.75159 550.4969 107.64221Q550.4969 107.53284 550.575 107.47034Q550.65314 107.39221 550.825 107.39221L552.23126 107.39221L552.23126 111.97034L552.6375 111.97034Q552.825 111.97034 552.8875 112.04846Q552.96564 112.11096 552.96564 112.22034Q552.96564 112.32971 552.8875 112.40784Q552.825 112.47034 552.6375 112.47034L551.73126 112.47034ZM559.46564 105.11096L559.46564 111.97034L560.1219 111.97034Q560.29376 111.97034 560.3719 112.04846Q560.45 112.11096 560.45 112.22034Q560.45 112.32971 560.3719 112.40784Q560.29376 112.47034 560.1219 112.47034L558.96564 112.47034L558.96564 111.48596Q558.10626 112.65784 556.79376 112.65784Q556.1219 112.65784 555.5125 112.31409Q554.90314 111.95471 554.54376 111.29846Q554.1844 110.64221 554.1844 109.93909Q554.1844 109.23596 554.54376 108.59534Q554.90314 107.93909 555.5125 107.57971Q556.1219 107.22034 556.79376 107.22034Q558.09064 107.22034 558.96564 108.39221L558.96564 105.61096L558.3094 105.61096Q558.1219 105.61096 558.04376 105.54846Q557.98126 105.47034 557.98126 105.36096Q557.98126 105.25159 558.04376 105.18909Q558.1219 105.11096 558.3094 105.11096L559.46564 105.11096ZM558.96564 109.93909Q558.96564 109.00159 558.325 108.36096Q557.7 107.72034 556.825 107.72034Q555.95 107.72034 555.3094 108.36096Q554.6844 109.00159 554.6844 109.93909Q554.6844 110.87659 555.3094 111.53284Q555.95 112.17346 556.825 112.17346Q557.7 112.17346 558.325 111.53284Q558.96564 110.87659 558.96564 109.93909ZM566.71564 110.04846L561.7 110.04846Q561.825 111.00159 562.4969 111.59534Q563.16876 112.17346 564.15314 112.17346Q564.71564 112.17346 565.3094 112.00159Q565.91876 111.81409 566.29376 111.50159Q566.40314 111.42346 566.4969 111.42346Q566.59064 111.42346 566.65314 111.50159Q566.73126 111.56409 566.73126 111.67346Q566.73126 111.76721 566.6375 111.86096Q566.35626 112.15784 565.6375 112.40784Q564.91876 112.65784 564.15314 112.65784Q562.8875 112.65784 562.04376 111.82971Q561.2 111.00159 561.2 109.82971Q561.2 108.75159 561.9969 107.98596Q562.79376 107.22034 563.96564 107.22034Q565.16876 107.22034 565.95 108.01721Q566.73126 108.79846 566.71564 110.04846ZM566.21564 109.54846Q566.075 108.73596 565.45 108.23596Q564.825 107.72034 563.96564 107.72034Q563.10626 107.72034 562.48126 108.22034Q561.85626 108.72034 561.7 109.54846L566.21564 109.54846ZM569.46564 107.39221L569.46564 108.14221Q569.98126 107.61096 570.3875 107.42346Q570.8094 107.22034 571.325 107.22034Q571.8875 107.22034 572.35626 107.45471Q572.6844 107.64221 572.95 108.04846Q573.21564 108.45471 573.21564 108.87659L573.21564 111.97034L573.6375 111.97034Q573.8094 111.97034 573.8875 112.04846Q573.96564 112.11096 573.96564 112.22034Q573.96564 112.32971 573.8875 112.40784Q573.8094 112.47034 573.6375 112.47034L572.3094 112.47034Q572.1375 112.47034 572.0594 112.40784Q571.98126 112.32971 571.98126 112.22034Q571.98126 112.11096 572.0594 112.04846Q572.1375 111.97034 572.3094 111.97034L572.73126 111.97034L572.73126 108.95471Q572.73126 108.43909 572.34064 108.07971Q571.96564 107.72034 571.325 107.72034Q570.84064 107.72034 570.48126 107.92346Q570.1219 108.11096 569.46564 108.89221L569.46564 111.97034L570.0125 111.97034Q570.2 111.97034 570.2625 112.04846Q570.34064 112.11096 570.34064 112.22034Q570.34064 112.32971 570.2625 112.40784Q570.2 112.47034 570.0125 112.47034L568.41876 112.47034Q568.23126 112.47034 568.15314 112.40784Q568.09064 112.32971 568.09064 112.22034Q568.09064 112.11096 568.15314 112.04846Q568.23126 111.97034 568.41876 111.97034L568.96564 111.97034L568.96564 107.89221L568.5594 107.89221Q568.3719 107.89221 568.29376 107.82971Q568.23126 107.75159 568.23126 107.64221Q568.23126 107.53284 568.29376 107.47034Q568.3719 107.39221 568.5594 107.39221L569.46564 107.39221ZM577.04376 107.39221L579.71564 107.39221Q579.8875 107.39221 579.96564 107.47034Q580.04376 107.53284 580.04376 107.64221Q580.04376 107.75159 579.96564 107.82971Q579.8875 107.89221 579.71564 107.89221L577.04376 107.89221L577.04376 111.17346Q577.04376 111.59534 577.3875 111.89221Q577.73126 112.17346 578.3875 112.17346Q578.8875 112.17346 579.46564 112.03284Q580.04376 111.87659 580.3719 111.68909Q580.48126 111.61096 580.5594 111.61096Q580.65314 111.61096 580.71564 111.68909Q580.79376 111.75159 580.79376 111.86096Q580.79376 111.93909 580.71564 112.01721Q580.52814 112.20471 579.8094 112.43909Q579.09064 112.65784 578.41876 112.65784Q577.5594 112.65784 577.04376 112.26721Q576.54376 111.86096 576.54376 111.17346L576.54376 107.89221L575.6375 107.89221Q575.46564 107.89221 575.3875 107.82971Q575.3094 107.75159 575.3094 107.64221Q575.3094 107.53284 575.3875 107.47034Q575.46564 107.39221 575.6375 107.39221L576.54376 107.39221L576.54376 105.93909Q576.54376 105.76721 576.60626 105.68909Q576.6844 105.61096 576.79376 105.61096Q576.90314 105.61096 576.96564 105.68909Q577.04376 105.76721 577.04376 105.93909L577.04376 107.39221Z" fill-rule="nonzero"/><path fill="#9e9e9e" d="M551.0594 125.47034Q551.7469 125.76721 552.09064 126.29846Q552.45 126.82971 552.45 127.40784Q552.45 128.29846 551.73126 128.97034Q551.02814 129.64221 549.95 129.64221Q549.3094 129.64221 548.6219 129.37659Q547.95 129.11096 547.6844 128.82971Q547.59064 128.73596 547.59064 128.62659Q547.59064 128.53284 547.65314 128.47034Q547.73126 128.39221 547.825 128.39221Q547.91876 128.39221 548.02814 128.48596Q548.9344 129.15784 549.95 129.15784Q550.8094 129.15784 551.3875 128.62659Q551.96564 128.07971 551.96564 127.42346Q551.96564 126.98596 551.6844 126.56409Q551.40314 126.14221 550.85626 125.90784Q550.325 125.65784 549.77814 125.65784Q549.60626 125.65784 549.52814 125.59534Q549.45 125.51721 549.45 125.40784Q549.45 125.29846 549.52814 125.23596Q549.60626 125.15784 549.7469 125.15784L550.16876 125.17346Q550.84064 125.17346 551.2625 124.76721Q551.7 124.36096 551.7 123.82971Q551.7 123.28284 551.2469 122.86096Q550.79376 122.43909 550.0594 122.43909Q549.5594 122.43909 549.1219 122.61096Q548.7 122.78284 548.45 123.09534Q548.35626 123.20471 548.29376 123.23596Q548.2469 123.25159 548.1844 123.25159Q548.09064 123.25159 548.0125 123.18909Q547.95 123.12659 547.95 123.03284Q547.95 122.79846 548.45 122.43909Q549.16876 121.93909 550.0594 121.93909Q550.9969 121.93909 551.59064 122.50159Q552.2 123.06409 552.2 123.82971Q552.2 124.32971 551.90314 124.76721Q551.6219 125.20471 551.0594 125.47034ZM555.59064 126.36096Q556.04376 125.68909 556.52814 125.36096Q557.0125 125.03284 557.60626 125.03284Q558.3875 125.03284 558.9969 125.68909Q559.60626 126.34534 559.60626 127.31409Q559.60626 128.18909 559.04376 128.92346Q558.4969 129.64221 557.5125 129.64221Q556.8719 129.64221 556.3094 129.25159Q555.7625 128.86096 555.45 128.04846Q555.0594 127.03284 555.0594 125.79846Q555.0594 124.87659 555.41876 124.07971Q555.7 123.47034 556.16876 123.00159Q556.6375 122.53284 557.2625 122.23596Q557.8875 121.93909 558.6219 121.93909Q559.10626 121.93909 559.4344 122.14221Q559.575 122.22034 559.575 122.37659Q559.575 122.48596 559.5125 122.54846Q559.45 122.61096 559.35626 122.61096Q559.27814 122.61096 559.16876 122.54846Q558.9344 122.43909 558.575 122.43909Q557.4344 122.43909 556.48126 123.42346Q555.54376 124.40784 555.54376 125.75159Q555.54376 125.95471 555.59064 126.36096ZM555.7 127.17346Q555.91876 128.23596 556.3875 128.70471Q556.8719 129.15784 557.52814 129.15784Q558.1844 129.15784 558.6375 128.64221Q559.10626 128.12659 559.10626 127.31409Q559.10626 126.53284 558.6375 126.03284Q558.16876 125.53284 557.575 125.53284Q557.0125 125.53284 556.48126 126.01721Q556.1375 126.34534 555.7 127.17346ZM563.95 128.06409L564.15314 128.06409Q564.48126 128.06409 564.71564 128.29846Q564.95 128.51721 564.95 128.84534Q564.95 129.18909 564.71564 129.42346Q564.48126 129.64221 564.15314 129.64221L563.95 129.64221Q563.6219 129.64221 563.3875 129.42346Q563.15314 129.18909 563.15314 128.86096Q563.15314 128.51721 563.3875 128.29846Q563.6219 128.06409 563.95 128.06409ZM573.3094 125.18909L573.3094 126.40784Q573.3094 127.98596 572.5594 128.92346Q571.96564 129.64221 571.0594 129.64221Q570.6219 129.64221 570.23126 129.47034Q569.85626 129.29846 569.59064 128.98596Q569.41876 128.79846 569.21564 128.37659Q569.0125 127.93909 568.9344 127.57971Q568.79376 127.07971 568.79376 126.40784L568.79376 125.18909Q568.79376 123.59534 569.54376 122.67346Q570.1375 121.93909 571.04376 121.93909Q571.48126 121.93909 571.85626 122.11096Q572.2469 122.28284 572.5125 122.59534Q572.6844 122.79846 572.8875 123.23596Q573.09064 123.65784 573.1844 124.00159Q573.3094 124.50159 573.3094 125.18909ZM572.825 125.25159Q572.825 124.54846 572.6219 123.95471Q572.41876 123.34534 572.1844 123.00159Q572.02814 122.78284 571.79376 122.64221Q571.46564 122.43909 571.04376 122.43909Q570.21564 122.43909 569.7469 123.28284Q569.27814 124.12659 569.27814 125.25159L569.27814 126.32971Q569.27814 127.03284 569.48126 127.64221Q569.6844 128.23596 569.9344 128.59534Q570.075 128.79846 570.3094 128.93909Q570.6375 129.15784 571.0594 129.15784Q571.8875 129.15784 572.35626 128.31409Q572.825 127.45471 572.825 126.32971L572.825 125.25159ZM578.79376 123.51721Q578.79376 124.14221 578.35626 124.59534Q577.91876 125.03284 577.29376 125.03284Q576.6844 125.03284 576.23126 124.59534Q575.79376 124.14221 575.79376 123.51721Q575.79376 122.87659 576.23126 122.43909Q576.6844 122.00159 577.29376 122.00159Q577.91876 122.00159 578.35626 122.43909Q578.79376 122.87659 578.79376 123.51721ZM578.45 123.51721Q578.45 123.03284 578.10626 122.68909Q577.77814 122.34534 577.29376 122.34534Q576.825 122.34534 576.48126 122.68909Q576.15314 123.03284 576.15314 123.51721Q576.15314 124.00159 576.48126 124.34534Q576.825 124.68909 577.29376 124.68909Q577.77814 124.68909 578.10626 124.34534Q578.45 124.00159 578.45 123.51721ZM580.3875 125.22034L575.84064 126.70471Q575.7469 126.72034 575.71564 126.72034Q575.65314 126.72034 575.59064 126.67346Q575.54376 126.62659 575.54376 126.54846Q575.54376 126.48596 575.59064 126.43909Q575.6219 126.39221 575.71564 126.36096L580.27814 124.87659Q580.35626 124.86096 580.40314 124.86096Q580.46564 124.86096 580.5125 124.92346Q580.575 124.97034 580.575 125.03284Q580.575 125.09534 580.52814 125.15784Q580.4969 125.18909 580.3875 125.22034ZM580.3094 128.09534Q580.3094 128.72034 579.8719 129.17346Q579.4344 129.61096 578.8094 129.61096Q578.2 129.61096 577.7469 129.17346Q577.3094 128.72034 577.3094 128.09534Q577.3094 127.45471 577.7469 127.01721Q578.1844 126.56409 578.8094 126.56409Q579.4344 126.56409 579.8719 127.01721Q580.3094 127.45471 580.3094 128.09534ZM579.96564 128.09534Q579.96564 127.59534 579.6219 127.26721Q579.27814 126.92346 578.8094 126.92346Q578.34064 126.92346 577.9969 127.26721Q577.66876 127.61096 577.66876 128.09534Q577.66876 128.57971 577.9969 128.92346Q578.34064 129.25159 578.8094 129.25159Q579.27814 129.25159 579.6219 128.92346Q579.96564 128.57971 579.96564 128.09534Z" fill-rule="nonzero"/><path stroke="#757575" stroke-width="1.0" stroke-linecap="butt" d="M581.45 117.97034L472.95 117.97034L443.50784 117.97034" fill-rule="nonzero"/><path fill="#9e9e9e" d="M445.50784 117.97034C445.50784 116.86577 444.6124 115.97034 443.50784 115.97034C442.40326 115.97034 441.50784 116.86577 441.50784 117.97034C441.50784 119.07491 442.40326 119.97034 443.50784 119.97034C444.6124 119.97034 445.50784 119.07491 445.50784 117.97034" fill-rule="nonzero"/></svg>